<svg width="502" height="502" viewBox="0 0 502 502" fill="none" xmlns="http://www.w3.org/2000/svg">
<path d="M251 501C389.071 501 501 389.071 501 251C501 112.929 389.071 1 251 1C112.929 1 1 112.929 1 251C1 389.071 112.929 501 251 501Z" stroke="white" stroke-width="0.25"/>
<path d="M250.999 459.334C366.059 459.334 459.333 366.06 459.333 251C459.333 135.941 366.059 42.667 250.999 42.667C135.94 42.667 42.666 135.941 42.666 251C42.666 366.06 135.94 459.334 250.999 459.334Z" stroke="white" stroke-width="0.25"/>
<path d="M251.001 448.916C360.307 448.916 448.917 360.306 448.917 251C448.917 141.693 360.307 53.083 251.001 53.083C141.694 53.083 53.084 141.693 53.084 251C53.084 360.306 141.694 448.916 251.001 448.916Z" stroke="white" stroke-width="0.25"/>
<path d="M251 329.125C294.147 329.125 329.125 294.147 329.125 251C329.125 207.853 294.147 172.875 251 172.875C207.853 172.875 172.875 207.853 172.875 251C172.875 294.147 207.853 329.125 251 329.125Z" stroke="white" stroke-width="0.25"/>
<path d="M251.001 277.041C265.383 277.041 277.042 265.382 277.042 251C277.042 236.617 265.383 224.958 251.001 224.958C236.618 224.958 224.959 236.617 224.959 251C224.959 265.382 236.618 277.041 251.001 277.041Z" stroke="white" stroke-width="0.25"/>
<path d="M1 251H172.875" stroke="white" stroke-width="0.25"/>
<path d="M501 251H329.125" stroke="white" stroke-width="0.25"/>
<path d="M42.6992 247.364L53.1142 247.546" stroke="white" stroke-width="0.1"/>
<path d="M42.6992 254.636L53.1142 254.454" stroke="white" stroke-width="0.1"/>
<path d="M42.793 243.729L53.2028 244.093" stroke="white" stroke-width="0.1"/>
<path d="M42.793 258.271L53.2028 257.907" stroke="white" stroke-width="0.1"/>
<path d="M42.9512 240.097L53.3536 240.642" stroke="white" stroke-width="0.1"/>
<path d="M42.9512 261.903L53.3536 261.358" stroke="white" stroke-width="0.1"/>
<path d="M43.1738 236.468L53.5651 237.194" stroke="white" stroke-width="0.1"/>
<path d="M43.1738 265.532L53.5651 264.806" stroke="white" stroke-width="0.1"/>
<path d="M43.4609 232.842L53.838 233.75" stroke="white" stroke-width="0.1"/>
<path d="M43.4609 269.158L53.838 268.25" stroke="white" stroke-width="0.1"/>
<path d="M43.8086 229.224L54.1682 230.312" stroke="white" stroke-width="0.25"/>
<path d="M43.8086 272.776L54.1682 271.688" stroke="white" stroke-width="0.25"/>
<path d="M44.2188 225.61L54.5578 226.88" stroke="white" stroke-width="0.1"/>
<path d="M44.2188 276.39L54.5578 275.12" stroke="white" stroke-width="0.1"/>
<path d="M44.6953 222.005L55.0106 223.455" stroke="white" stroke-width="0.1"/>
<path d="M44.6953 279.995L55.0106 278.545" stroke="white" stroke-width="0.1"/>
<path d="M45.2324 218.409L55.5208 220.039" stroke="white" stroke-width="0.1"/>
<path d="M45.2324 283.591L55.5208 281.961" stroke="white" stroke-width="0.1"/>
<path d="M45.832 214.823L56.0904 216.632" stroke="white" stroke-width="0.1"/>
<path d="M45.832 287.177L56.0904 285.368" stroke="white" stroke-width="0.1"/>
<path d="M46.4941 211.248L56.7194 213.236" stroke="white" stroke-width="0.1"/>
<path d="M46.4941 290.752L56.7194 288.764" stroke="white" stroke-width="0.1"/>
<path d="M47.2207 207.686L57.4097 209.851" stroke="white" stroke-width="0.25"/>
<path d="M47.2207 294.314L57.4097 292.149" stroke="white" stroke-width="0.25"/>
<path d="M48.0078 204.135L58.1575 206.478" stroke="white" stroke-width="0.1"/>
<path d="M48.0078 297.865L58.1575 295.522" stroke="white" stroke-width="0.1"/>
<path d="M48.8555 200.6L58.9627 203.12" stroke="white" stroke-width="0.1"/>
<path d="M48.8555 301.4L58.9627 298.88" stroke="white" stroke-width="0.1"/>
<path d="M49.7656 197.079L59.8274 199.775" stroke="white" stroke-width="0.1"/>
<path d="M49.7656 304.921L59.8274 302.225" stroke="white" stroke-width="0.1"/>
<path d="M50.7383 193.575L60.7514 196.446" stroke="white" stroke-width="0.1"/>
<path d="M50.7383 308.425L60.7514 305.554" stroke="white" stroke-width="0.1"/>
<path d="M51.7695 190.089L61.731 193.134" stroke="white" stroke-width="0.1"/>
<path d="M51.7695 311.911L61.731 308.866" stroke="white" stroke-width="0.1"/>
<path d="M52.8633 186.621L62.7701 189.84" stroke="white" stroke-width="0.25"/>
<path d="M52.8633 315.379L62.7701 312.16" stroke="white" stroke-width="0.25"/>
<path d="M54.0176 183.174L63.8667 186.565" stroke="white" stroke-width="0.1"/>
<path d="M54.0176 318.826L63.8667 315.435" stroke="white" stroke-width="0.1"/>
<path d="M55.2305 179.745L65.0189 183.308" stroke="white" stroke-width="0.1"/>
<path d="M55.2305 322.255L65.0189 318.692" stroke="white" stroke-width="0.1"/>
<path d="M56.5039 176.34L66.2287 180.073" stroke="white" stroke-width="0.1"/>
<path d="M56.5039 325.66L66.2287 321.927" stroke="white" stroke-width="0.1"/>
<path d="M57.8359 172.957L67.4941 176.859" stroke="white" stroke-width="0.1"/>
<path d="M57.8359 329.043L67.4941 325.141" stroke="white" stroke-width="0.1"/>
<path d="M59.2266 169.598L68.8152 173.668" stroke="white" stroke-width="0.1"/>
<path d="M59.2266 332.402L68.8152 328.332" stroke="white" stroke-width="0.1"/>
<path d="M60.6777 166.263L70.1938 170.5" stroke="white" stroke-width="0.25"/>
<path d="M60.6777 335.737L70.1938 331.5" stroke="white" stroke-width="0.25"/>
<path d="M62.1855 162.955L71.6263 167.357" stroke="white" stroke-width="0.1"/>
<path d="M62.1855 339.045L71.6263 334.643" stroke="white" stroke-width="0.1"/>
<path d="M63.75 159.673L73.1124 164.239" stroke="white" stroke-width="0.1"/>
<path d="M63.75 342.327L73.1124 337.761" stroke="white" stroke-width="0.1"/>
<path d="M65.373 156.419L74.6544 161.148" stroke="white" stroke-width="0.1"/>
<path d="M65.373 345.581L74.6544 340.852" stroke="white" stroke-width="0.1"/>
<path d="M67.0527 153.193L76.2501 158.084" stroke="white" stroke-width="0.1"/>
<path d="M67.0527 348.807L76.2501 343.916" stroke="white" stroke-width="0.1"/>
<path d="M68.7871 149.998L77.8977 155.048" stroke="white" stroke-width="0.1"/>
<path d="M68.7871 352.002L77.8977 346.952" stroke="white" stroke-width="0.1"/>
<path d="M34.4941 126L183.342 211.937" stroke="white" stroke-width="0.25"/>
<path d="M34.4941 376L183.342 290.063" stroke="white" stroke-width="0.25"/>
<path d="M72.4238 143.7L81.3527 149.065" stroke="white" stroke-width="0.1"/>
<path d="M72.4238 358.3L81.3527 352.935" stroke="white" stroke-width="0.1"/>
<path d="M74.3242 140.601L83.1581 146.121" stroke="white" stroke-width="0.1"/>
<path d="M74.3242 361.399L83.1581 355.879" stroke="white" stroke-width="0.1"/>
<path d="M76.2773 137.533L85.0135 143.207" stroke="white" stroke-width="0.1"/>
<path d="M76.2773 364.467L85.0135 358.793" stroke="white" stroke-width="0.1"/>
<path d="M78.2852 134.501L86.921 140.326" stroke="white" stroke-width="0.1"/>
<path d="M78.2852 367.499L86.921 361.674" stroke="white" stroke-width="0.1"/>
<path d="M80.3438 131.506L88.8766 137.481" stroke="white" stroke-width="0.1"/>
<path d="M80.3438 370.494L88.8766 364.519" stroke="white" stroke-width="0.1"/>
<path d="M82.4551 128.545L90.8823 134.668" stroke="white" stroke-width="0.25"/>
<path d="M82.4551 373.455L90.8823 367.332" stroke="white" stroke-width="0.25"/>
<path d="M84.6172 125.621L92.9363 131.89" stroke="white" stroke-width="0.1"/>
<path d="M84.6172 376.379L92.9363 370.11" stroke="white" stroke-width="0.1"/>
<path d="M86.832 122.737L95.0405 129.15" stroke="white" stroke-width="0.1"/>
<path d="M86.832 379.263L95.0405 372.85" stroke="white" stroke-width="0.1"/>
<path d="M89.0938 119.892L97.189 126.447" stroke="white" stroke-width="0.1"/>
<path d="M89.0938 382.108L97.189 375.553" stroke="white" stroke-width="0.1"/>
<path d="M91.4082 117.086L99.3878 123.782" stroke="white" stroke-width="0.1"/>
<path d="M91.4082 384.914L99.3878 378.218" stroke="white" stroke-width="0.1"/>
<path d="M93.7695 114.321L101.631 121.155" stroke="white" stroke-width="0.1"/>
<path d="M93.7695 387.679L101.631 380.845" stroke="white" stroke-width="0.1"/>
<path d="M96.1777 111.598L103.919 118.568" stroke="white" stroke-width="0.25"/>
<path d="M96.1777 390.402L103.919 383.432" stroke="white" stroke-width="0.25"/>
<path d="M98.6348 108.917L106.253 116.021" stroke="white" stroke-width="0.1"/>
<path d="M98.6348 393.083L106.253 385.979" stroke="white" stroke-width="0.1"/>
<path d="M101.139 106.279L108.632 113.515" stroke="white" stroke-width="0.1"/>
<path d="M101.139 395.721L108.632 388.485" stroke="white" stroke-width="0.1"/>
<path d="M103.686 103.687L111.051 111.052" stroke="white" stroke-width="0.1"/>
<path d="M103.686 398.313L111.051 390.948" stroke="white" stroke-width="0.1"/>
<path d="M106.279 101.138L113.515 108.631" stroke="white" stroke-width="0.1"/>
<path d="M106.279 400.862L113.515 393.369" stroke="white" stroke-width="0.1"/>
<path d="M108.916 98.6348L116.02 106.253" stroke="white" stroke-width="0.1"/>
<path d="M108.916 403.365L116.02 395.747" stroke="white" stroke-width="0.1"/>
<path d="M111.598 96.1777L118.568 103.919" stroke="white" stroke-width="0.25"/>
<path d="M111.598 405.822L118.568 398.081" stroke="white" stroke-width="0.25"/>
<path d="M114.322 93.7686L121.156 101.63" stroke="white" stroke-width="0.1"/>
<path d="M114.322 408.231L121.156 400.37" stroke="white" stroke-width="0.1"/>
<path d="M117.086 91.4072L123.782 99.3869" stroke="white" stroke-width="0.1"/>
<path d="M117.086 410.593L123.782 402.613" stroke="white" stroke-width="0.1"/>
<path d="M119.893 89.0947L126.448 97.19" stroke="white" stroke-width="0.1"/>
<path d="M119.893 412.906L126.448 404.811" stroke="white" stroke-width="0.1"/>
<path d="M122.736 86.8311L129.149 95.0395" stroke="white" stroke-width="0.1"/>
<path d="M122.736 415.169L129.149 406.96" stroke="white" stroke-width="0.1"/>
<path d="M125.621 84.6172L131.89 92.9363" stroke="white" stroke-width="0.1"/>
<path d="M125.621 417.383L131.89 409.064" stroke="white" stroke-width="0.1"/>
<path d="M128.545 82.4541L134.668 90.8814" stroke="white" stroke-width="0.25"/>
<path d="M128.545 419.546L134.668 411.119" stroke="white" stroke-width="0.25"/>
<path d="M131.506 80.3438L137.481 88.8766" stroke="white" stroke-width="0.1"/>
<path d="M131.506 421.656L137.481 413.123" stroke="white" stroke-width="0.1"/>
<path d="M134.502 78.2842L140.327 86.92" stroke="white" stroke-width="0.1"/>
<path d="M134.502 423.716L140.327 415.08" stroke="white" stroke-width="0.1"/>
<path d="M137.533 76.2764L143.207 85.0125" stroke="white" stroke-width="0.1"/>
<path d="M137.533 425.724L143.207 416.987" stroke="white" stroke-width="0.1"/>
<path d="M140.6 74.3232L146.12 83.1571" stroke="white" stroke-width="0.1"/>
<path d="M140.6 427.677L146.12 418.843" stroke="white" stroke-width="0.1"/>
<path d="M143.699 72.4238L149.064 81.3527" stroke="white" stroke-width="0.1"/>
<path d="M143.699 429.576L149.064 420.647" stroke="white" stroke-width="0.1"/>
<path d="M126 34.4941L211.938 183.342" stroke="white" stroke-width="0.25"/>
<path d="M126 467.506L211.938 318.658" stroke="white" stroke-width="0.25"/>
<path d="M149.996 68.7881L155.046 77.8987" stroke="white" stroke-width="0.1"/>
<path d="M149.996 433.212L155.046 424.101" stroke="white" stroke-width="0.1"/>
<path d="M153.193 67.0527L158.084 76.2501" stroke="white" stroke-width="0.1"/>
<path d="M153.193 434.947L158.084 425.75" stroke="white" stroke-width="0.1"/>
<path d="M156.418 65.374L161.147 74.6553" stroke="white" stroke-width="0.1"/>
<path d="M156.418 436.626L161.147 427.345" stroke="white" stroke-width="0.1"/>
<path d="M159.674 63.751L164.24 73.1134" stroke="white" stroke-width="0.1"/>
<path d="M159.674 438.249L164.24 428.887" stroke="white" stroke-width="0.1"/>
<path d="M162.955 62.1855L167.357 71.6263" stroke="white" stroke-width="0.1"/>
<path d="M162.955 439.814L167.357 430.374" stroke="white" stroke-width="0.1"/>
<path d="M166.264 60.6777L170.501 70.1938" stroke="white" stroke-width="0.25"/>
<path d="M166.264 441.322L170.501 431.806" stroke="white" stroke-width="0.25"/>
<path d="M169.598 59.2285L173.668 68.8171" stroke="white" stroke-width="0.1"/>
<path d="M169.598 442.771L173.668 433.183" stroke="white" stroke-width="0.1"/>
<path d="M172.957 57.8369L176.859 67.4951" stroke="white" stroke-width="0.1"/>
<path d="M172.957 444.163L176.859 434.505" stroke="white" stroke-width="0.1"/>
<path d="M176.34 56.5039L180.073 66.2287" stroke="white" stroke-width="0.1"/>
<path d="M176.34 445.496L180.073 435.771" stroke="white" stroke-width="0.1"/>
<path d="M179.746 55.2305L183.309 65.0189" stroke="white" stroke-width="0.1"/>
<path d="M179.746 446.77L183.309 436.981" stroke="white" stroke-width="0.1"/>
<path d="M183.174 54.0176L186.565 63.8667" stroke="white" stroke-width="0.1"/>
<path d="M183.174 447.982L186.565 438.133" stroke="white" stroke-width="0.1"/>
<path d="M186.623 52.8633L189.842 62.7701" stroke="white" stroke-width="0.25"/>
<path d="M186.623 449.137L189.842 439.23" stroke="white" stroke-width="0.25"/>
<path d="M190.09 51.7705L193.135 61.732" stroke="white" stroke-width="0.1"/>
<path d="M190.09 450.229L193.135 440.268" stroke="white" stroke-width="0.1"/>
<path d="M193.576 50.7373L196.447 60.7504" stroke="white" stroke-width="0.1"/>
<path d="M193.576 451.263L196.447 441.25" stroke="white" stroke-width="0.1"/>
<path d="M197.08 49.7646L199.776 59.8264" stroke="white" stroke-width="0.1"/>
<path d="M197.08 452.235L199.776 442.174" stroke="white" stroke-width="0.1"/>
<path d="M200.6 48.8545L203.12 58.9617" stroke="white" stroke-width="0.1"/>
<path d="M200.6 453.146L203.12 443.038" stroke="white" stroke-width="0.1"/>
<path d="M204.135 48.0059L206.478 58.1555" stroke="white" stroke-width="0.1"/>
<path d="M204.135 453.994L206.478 443.844" stroke="white" stroke-width="0.1"/>
<path d="M207.686 47.2188L209.851 57.4078" stroke="white" stroke-width="0.25"/>
<path d="M207.686 454.781L209.851 444.592" stroke="white" stroke-width="0.25"/>
<path d="M211.248 46.4941L213.236 56.7194" stroke="white" stroke-width="0.1"/>
<path d="M211.248 455.506L213.236 445.281" stroke="white" stroke-width="0.1"/>
<path d="M214.822 45.8311L216.631 56.0895" stroke="white" stroke-width="0.1"/>
<path d="M214.822 456.169L216.631 445.911" stroke="white" stroke-width="0.1"/>
<path d="M218.41 45.2314L220.04 55.5199" stroke="white" stroke-width="0.1"/>
<path d="M218.41 456.769L220.04 446.48" stroke="white" stroke-width="0.1"/>
<path d="M222.006 44.6943L223.456 55.0096" stroke="white" stroke-width="0.1"/>
<path d="M222.006 457.306L223.456 446.99" stroke="white" stroke-width="0.1"/>
<path d="M225.611 44.2197L226.881 54.5587" stroke="white" stroke-width="0.1"/>
<path d="M225.611 457.78L226.881 447.441" stroke="white" stroke-width="0.1"/>
<path d="M229.223 43.8076L230.311 54.1672" stroke="white" stroke-width="0.25"/>
<path d="M229.223 458.192L230.311 447.833" stroke="white" stroke-width="0.25"/>
<path d="M232.842 43.459L233.75 53.836" stroke="white" stroke-width="0.1"/>
<path d="M232.842 458.541L233.75 448.164" stroke="white" stroke-width="0.1"/>
<path d="M236.467 43.1738L237.193 53.5651" stroke="white" stroke-width="0.1"/>
<path d="M236.467 458.826L237.193 448.435" stroke="white" stroke-width="0.1"/>
<path d="M240.098 42.9521L240.643 53.3545" stroke="white" stroke-width="0.1"/>
<path d="M240.098 459.048L240.643 448.645" stroke="white" stroke-width="0.1"/>
<path d="M243.729 42.7939L244.092 53.2037" stroke="white" stroke-width="0.1"/>
<path d="M243.729 459.206L244.092 448.796" stroke="white" stroke-width="0.1"/>
<path d="M247.365 42.6982L247.547 53.1132" stroke="white" stroke-width="0.1"/>
<path d="M247.365 459.302L247.547 448.887" stroke="white" stroke-width="0.1"/>
<path d="M251 1V172.875" stroke="white" stroke-width="0.25"/>
<path d="M251 501V329.125" stroke="white" stroke-width="0.25"/>
<path d="M254.635 42.6982L254.453 53.1132" stroke="white" stroke-width="0.1"/>
<path d="M254.635 459.302L254.453 448.887" stroke="white" stroke-width="0.1"/>
<path d="M258.271 42.7939L257.908 53.2037" stroke="white" stroke-width="0.1"/>
<path d="M258.271 459.206L257.908 448.796" stroke="white" stroke-width="0.1"/>
<path d="M261.902 42.9521L261.357 53.3545" stroke="white" stroke-width="0.1"/>
<path d="M261.902 459.048L261.357 448.645" stroke="white" stroke-width="0.1"/>
<path d="M265.533 43.1738L264.807 53.5651" stroke="white" stroke-width="0.1"/>
<path d="M265.533 458.826L264.807 448.435" stroke="white" stroke-width="0.1"/>
<path d="M269.158 43.459L268.25 53.836" stroke="white" stroke-width="0.1"/>
<path d="M269.158 458.541L268.25 448.164" stroke="white" stroke-width="0.1"/>
<path d="M272.777 43.8076L271.689 54.1672" stroke="white" stroke-width="0.25"/>
<path d="M272.777 458.192L271.689 447.833" stroke="white" stroke-width="0.25"/>
<path d="M276.389 44.2197L275.119 54.5587" stroke="white" stroke-width="0.1"/>
<path d="M276.389 457.78L275.119 447.441" stroke="white" stroke-width="0.1"/>
<path d="M279.994 44.6943L278.544 55.0096" stroke="white" stroke-width="0.1"/>
<path d="M279.994 457.306L278.544 446.99" stroke="white" stroke-width="0.1"/>
<path d="M283.59 45.2314L281.96 55.5199" stroke="white" stroke-width="0.1"/>
<path d="M283.59 456.769L281.96 446.48" stroke="white" stroke-width="0.1"/>
<path d="M287.178 45.8311L285.369 56.0895" stroke="white" stroke-width="0.1"/>
<path d="M287.178 456.169L285.369 445.911" stroke="white" stroke-width="0.1"/>
<path d="M290.752 46.4941L288.764 56.7194" stroke="white" stroke-width="0.1"/>
<path d="M290.752 455.506L288.764 445.281" stroke="white" stroke-width="0.1"/>
<path d="M294.314 47.2188L292.149 57.4078" stroke="white" stroke-width="0.25"/>
<path d="M294.314 454.781L292.149 444.592" stroke="white" stroke-width="0.25"/>
<path d="M297.865 48.0059L295.522 58.1555" stroke="white" stroke-width="0.1"/>
<path d="M297.865 453.994L295.522 443.844" stroke="white" stroke-width="0.1"/>
<path d="M301.4 48.8545L298.88 58.9617" stroke="white" stroke-width="0.1"/>
<path d="M301.4 453.146L298.88 443.038" stroke="white" stroke-width="0.1"/>
<path d="M304.92 49.7646L302.224 59.8264" stroke="white" stroke-width="0.1"/>
<path d="M304.92 452.235L302.224 442.174" stroke="white" stroke-width="0.1"/>
<path d="M308.424 50.7373L305.553 60.7504" stroke="white" stroke-width="0.1"/>
<path d="M308.424 451.263L305.553 441.25" stroke="white" stroke-width="0.1"/>
<path d="M311.91 51.7705L308.865 61.732" stroke="white" stroke-width="0.1"/>
<path d="M311.91 450.229L308.865 440.268" stroke="white" stroke-width="0.1"/>
<path d="M315.377 52.8633L312.158 62.7701" stroke="white" stroke-width="0.25"/>
<path d="M315.377 449.137L312.158 439.23" stroke="white" stroke-width="0.25"/>
<path d="M318.826 54.0176L315.435 63.8667" stroke="white" stroke-width="0.1"/>
<path d="M318.826 447.982L315.435 438.133" stroke="white" stroke-width="0.1"/>
<path d="M322.254 55.2305L318.691 65.0189" stroke="white" stroke-width="0.1"/>
<path d="M322.254 446.77L318.691 436.981" stroke="white" stroke-width="0.1"/>
<path d="M325.66 56.5039L321.927 66.2287" stroke="white" stroke-width="0.1"/>
<path d="M325.66 445.496L321.927 435.771" stroke="white" stroke-width="0.1"/>
<path d="M329.043 57.8369L325.141 67.4951" stroke="white" stroke-width="0.1"/>
<path d="M329.043 444.163L325.141 434.505" stroke="white" stroke-width="0.1"/>
<path d="M332.402 59.2285L328.332 68.8171" stroke="white" stroke-width="0.1"/>
<path d="M332.402 442.771L328.332 433.183" stroke="white" stroke-width="0.1"/>
<path d="M335.736 60.6777L331.499 70.1938" stroke="white" stroke-width="0.25"/>
<path d="M335.736 441.322L331.499 431.806" stroke="white" stroke-width="0.25"/>
<path d="M339.045 62.1855L334.643 71.6263" stroke="white" stroke-width="0.1"/>
<path d="M339.045 439.814L334.643 430.374" stroke="white" stroke-width="0.1"/>
<path d="M342.326 63.751L337.76 73.1134" stroke="white" stroke-width="0.1"/>
<path d="M342.326 438.249L337.76 428.887" stroke="white" stroke-width="0.1"/>
<path d="M345.582 65.374L340.853 74.6553" stroke="white" stroke-width="0.1"/>
<path d="M345.582 436.626L340.853 427.345" stroke="white" stroke-width="0.1"/>
<path d="M348.807 67.0527L343.916 76.2501" stroke="white" stroke-width="0.1"/>
<path d="M348.807 434.947L343.916 425.75" stroke="white" stroke-width="0.1"/>
<path d="M352.004 68.7881L346.954 77.8987" stroke="white" stroke-width="0.1"/>
<path d="M352.004 433.212L346.954 424.101" stroke="white" stroke-width="0.1"/>
<path d="M376 34.4941L290.062 183.342" stroke="white" stroke-width="0.25"/>
<path d="M376 467.506L290.062 318.658" stroke="white" stroke-width="0.25"/>
<path d="M358.301 72.4238L352.936 81.3527" stroke="white" stroke-width="0.1"/>
<path d="M358.301 429.576L352.936 420.647" stroke="white" stroke-width="0.1"/>
<path d="M361.4 74.3232L355.88 83.1571" stroke="white" stroke-width="0.1"/>
<path d="M361.4 427.677L355.88 418.843" stroke="white" stroke-width="0.1"/>
<path d="M364.467 76.2764L358.793 85.0125" stroke="white" stroke-width="0.1"/>
<path d="M364.467 425.724L358.793 416.987" stroke="white" stroke-width="0.1"/>
<path d="M367.498 78.2842L361.673 86.92" stroke="white" stroke-width="0.1"/>
<path d="M367.498 423.716L361.673 415.08" stroke="white" stroke-width="0.1"/>
<path d="M370.494 80.3438L364.519 88.8766" stroke="white" stroke-width="0.1"/>
<path d="M370.494 421.656L364.519 413.123" stroke="white" stroke-width="0.1"/>
<path d="M373.455 82.4541L367.332 90.8814" stroke="white" stroke-width="0.25"/>
<path d="M373.455 419.546L367.332 411.119" stroke="white" stroke-width="0.25"/>
<path d="M376.379 84.6172L370.11 92.9363" stroke="white" stroke-width="0.1"/>
<path d="M376.379 417.383L370.11 409.064" stroke="white" stroke-width="0.1"/>
<path d="M379.264 86.8311L372.851 95.0395" stroke="white" stroke-width="0.1"/>
<path d="M379.264 415.169L372.851 406.96" stroke="white" stroke-width="0.1"/>
<path d="M382.107 89.0947L375.552 97.19" stroke="white" stroke-width="0.1"/>
<path d="M382.107 412.906L375.552 404.811" stroke="white" stroke-width="0.1"/>
<path d="M384.914 91.4072L378.218 99.3869" stroke="white" stroke-width="0.1"/>
<path d="M384.914 410.593L378.218 402.613" stroke="white" stroke-width="0.1"/>
<path d="M387.678 93.7686L380.844 101.63" stroke="white" stroke-width="0.1"/>
<path d="M387.678 408.231L380.844 400.37" stroke="white" stroke-width="0.1"/>
<path d="M390.402 96.1777L383.432 103.919" stroke="white" stroke-width="0.25"/>
<path d="M390.402 405.822L383.432 398.081" stroke="white" stroke-width="0.25"/>
<path d="M393.084 98.6348L385.98 106.253" stroke="white" stroke-width="0.1"/>
<path d="M393.084 403.365L385.98 395.747" stroke="white" stroke-width="0.1"/>
<path d="M395.721 101.138L388.485 108.631" stroke="white" stroke-width="0.1"/>
<path d="M395.721 400.862L388.485 393.369" stroke="white" stroke-width="0.1"/>
<path d="M398.314 103.687L390.949 111.052" stroke="white" stroke-width="0.1"/>
<path d="M398.314 398.313L390.949 390.948" stroke="white" stroke-width="0.1"/>
<path d="M400.861 106.279L393.368 113.515" stroke="white" stroke-width="0.1"/>
<path d="M400.861 395.721L393.368 388.485" stroke="white" stroke-width="0.1"/>
<path d="M403.365 108.917L395.747 116.021" stroke="white" stroke-width="0.1"/>
<path d="M403.365 393.083L395.747 385.979" stroke="white" stroke-width="0.1"/>
<path d="M405.822 111.598L398.081 118.568" stroke="white" stroke-width="0.25"/>
<path d="M405.822 390.402L398.081 383.432" stroke="white" stroke-width="0.25"/>
<path d="M408.23 114.321L400.369 121.155" stroke="white" stroke-width="0.1"/>
<path d="M408.23 387.679L400.369 380.845" stroke="white" stroke-width="0.1"/>
<path d="M410.592 117.086L402.612 123.782" stroke="white" stroke-width="0.1"/>
<path d="M410.592 384.914L402.612 378.218" stroke="white" stroke-width="0.1"/>
<path d="M412.906 119.892L404.811 126.447" stroke="white" stroke-width="0.1"/>
<path d="M412.906 382.108L404.811 375.553" stroke="white" stroke-width="0.1"/>
<path d="M415.168 122.737L406.96 129.15" stroke="white" stroke-width="0.1"/>
<path d="M415.168 379.263L406.96 372.85" stroke="white" stroke-width="0.1"/>
<path d="M417.383 125.621L409.064 131.89" stroke="white" stroke-width="0.1"/>
<path d="M417.383 376.379L409.064 370.11" stroke="white" stroke-width="0.1"/>
<path d="M419.545 128.545L411.118 134.668" stroke="white" stroke-width="0.25"/>
<path d="M419.545 373.455L411.118 367.332" stroke="white" stroke-width="0.25"/>
<path d="M421.656 131.506L413.123 137.481" stroke="white" stroke-width="0.1"/>
<path d="M421.656 370.494L413.123 364.519" stroke="white" stroke-width="0.1"/>
<path d="M423.715 134.501L415.079 140.326" stroke="white" stroke-width="0.1"/>
<path d="M423.715 367.499L415.079 361.674" stroke="white" stroke-width="0.1"/>
<path d="M425.723 137.533L416.987 143.207" stroke="white" stroke-width="0.1"/>
<path d="M425.723 364.467L416.987 358.793" stroke="white" stroke-width="0.1"/>
<path d="M427.676 140.601L418.842 146.121" stroke="white" stroke-width="0.1"/>
<path d="M427.676 361.399L418.842 355.879" stroke="white" stroke-width="0.1"/>
<path d="M429.576 143.7L420.647 149.065" stroke="white" stroke-width="0.1"/>
<path d="M429.576 358.3L420.647 352.935" stroke="white" stroke-width="0.1"/>
<path d="M467.506 126L318.658 211.937" stroke="white" stroke-width="0.25"/>
<path d="M467.506 376L318.658 290.063" stroke="white" stroke-width="0.25"/>
<path d="M433.213 149.998L424.102 155.048" stroke="white" stroke-width="0.1"/>
<path d="M433.213 352.002L424.102 346.952" stroke="white" stroke-width="0.1"/>
<path d="M434.947 153.193L425.75 158.084" stroke="white" stroke-width="0.1"/>
<path d="M434.947 348.807L425.75 343.916" stroke="white" stroke-width="0.1"/>
<path d="M436.627 156.419L427.346 161.148" stroke="white" stroke-width="0.1"/>
<path d="M436.627 345.581L427.346 340.852" stroke="white" stroke-width="0.1"/>
<path d="M438.248 159.673L428.886 164.239" stroke="white" stroke-width="0.1"/>
<path d="M438.248 342.327L428.886 337.761" stroke="white" stroke-width="0.1"/>
<path d="M439.814 162.955L430.374 167.357" stroke="white" stroke-width="0.1"/>
<path d="M439.814 339.045L430.374 334.643" stroke="white" stroke-width="0.1"/>
<path d="M441.322 166.263L431.806 170.5" stroke="white" stroke-width="0.25"/>
<path d="M441.322 335.737L431.806 331.5" stroke="white" stroke-width="0.25"/>
<path d="M442.773 169.598L433.185 173.668" stroke="white" stroke-width="0.1"/>
<path d="M442.773 332.402L433.185 328.332" stroke="white" stroke-width="0.1"/>
<path d="M444.164 172.957L434.506 176.859" stroke="white" stroke-width="0.1"/>
<path d="M444.164 329.043L434.506 325.141" stroke="white" stroke-width="0.1"/>
<path d="M445.496 176.34L435.771 180.073" stroke="white" stroke-width="0.1"/>
<path d="M445.496 325.66L435.771 321.927" stroke="white" stroke-width="0.1"/>
<path d="M446.77 179.745L436.981 183.308" stroke="white" stroke-width="0.1"/>
<path d="M446.77 322.255L436.981 318.692" stroke="white" stroke-width="0.1"/>
<path d="M447.982 183.174L438.133 186.565" stroke="white" stroke-width="0.1"/>
<path d="M447.982 318.826L438.133 315.435" stroke="white" stroke-width="0.1"/>
<path d="M449.137 186.621L439.23 189.84" stroke="white" stroke-width="0.25"/>
<path d="M449.137 315.379L439.23 312.16" stroke="white" stroke-width="0.25"/>
<path d="M450.23 190.089L440.269 193.134" stroke="white" stroke-width="0.1"/>
<path d="M450.23 311.911L440.269 308.866" stroke="white" stroke-width="0.1"/>
<path d="M451.262 193.575L441.249 196.446" stroke="white" stroke-width="0.1"/>
<path d="M451.262 308.425L441.249 305.554" stroke="white" stroke-width="0.1"/>
<path d="M452.234 197.079L442.173 199.775" stroke="white" stroke-width="0.1"/>
<path d="M452.234 304.921L442.173 302.225" stroke="white" stroke-width="0.1"/>
<path d="M453.145 200.6L443.037 203.12" stroke="white" stroke-width="0.1"/>
<path d="M453.145 301.4L443.037 298.88" stroke="white" stroke-width="0.1"/>
<path d="M453.992 204.135L443.842 206.478" stroke="white" stroke-width="0.1"/>
<path d="M453.992 297.865L443.842 295.522" stroke="white" stroke-width="0.1"/>
<path d="M454.779 207.686L444.59 209.851" stroke="white" stroke-width="0.25"/>
<path d="M454.779 294.314L444.59 292.149" stroke="white" stroke-width="0.25"/>
<path d="M455.506 211.248L445.281 213.236" stroke="white" stroke-width="0.1"/>
<path d="M455.506 290.752L445.281 288.764" stroke="white" stroke-width="0.1"/>
<path d="M456.168 214.823L445.91 216.632" stroke="white" stroke-width="0.1"/>
<path d="M456.168 287.177L445.91 285.368" stroke="white" stroke-width="0.1"/>
<path d="M456.768 218.409L446.479 220.039" stroke="white" stroke-width="0.1"/>
<path d="M456.768 283.591L446.479 281.961" stroke="white" stroke-width="0.1"/>
<path d="M457.305 222.005L446.989 223.455" stroke="white" stroke-width="0.1"/>
<path d="M457.305 279.995L446.989 278.545" stroke="white" stroke-width="0.1"/>
<path d="M457.781 225.61L447.442 226.88" stroke="white" stroke-width="0.1"/>
<path d="M457.781 276.39L447.442 275.12" stroke="white" stroke-width="0.1"/>
<path d="M458.191 229.224L447.832 230.312" stroke="white" stroke-width="0.25"/>
<path d="M458.191 272.776L447.832 271.688" stroke="white" stroke-width="0.25"/>
<path d="M458.539 232.842L448.162 233.75" stroke="white" stroke-width="0.1"/>
<path d="M458.539 269.158L448.162 268.25" stroke="white" stroke-width="0.1"/>
<path d="M458.826 236.468L448.435 237.194" stroke="white" stroke-width="0.1"/>
<path d="M458.826 265.532L448.435 264.806" stroke="white" stroke-width="0.1"/>
<path d="M459.049 240.097L448.646 240.642" stroke="white" stroke-width="0.1"/>
<path d="M459.049 261.903L448.646 261.358" stroke="white" stroke-width="0.1"/>
<path d="M459.207 243.729L448.797 244.093" stroke="white" stroke-width="0.1"/>
<path d="M459.207 258.271L448.797 257.907" stroke="white" stroke-width="0.1"/>
<path d="M459.301 247.364L448.886 247.546" stroke="white" stroke-width="0.1"/>
<path d="M459.301 255.678L448.886 255.496" stroke="white" stroke-width="0.1"/>
</svg>
