<svg width="804" height="804" viewBox="0 0 804 804" fill="none" xmlns="http://www.w3.org/2000/svg">
<g filter="url(#filter0_f_116_4235)">
<path d="M142.841 671.974C143.826 674.165 144.366 676.324 144.463 678.452C144.559 680.58 144.164 682.501 143.277 684.217L140.422 682.885C141.467 680.756 141.576 678.263 140.75 675.405C139.955 672.516 138.399 669.913 136.082 667.596C133.765 665.279 131.147 663.708 128.229 662.884C125.374 662.06 122.9 662.189 120.807 663.27L119.425 660.365C121.169 659.506 123.104 659.124 125.229 659.218C127.354 659.312 129.496 659.835 131.653 660.786L144.158 648.249C143.174 646.122 142.633 643.994 142.537 641.866C142.472 639.707 142.867 637.753 143.722 636.006L146.578 637.433C145.533 639.498 145.407 641.976 146.202 644.865C147.06 647.755 148.648 650.358 150.965 652.675C153.282 654.992 155.868 656.563 158.723 657.386C161.578 658.21 164.068 658.098 166.193 657.048L167.574 659.858C165.862 660.748 163.912 661.147 161.723 661.053C159.598 660.959 157.472 660.42 155.346 659.437L142.841 671.974ZM134.556 662.356C135.984 663.276 137.238 664.276 138.317 665.355C139.428 666.466 140.412 667.704 141.269 669.069L152.443 657.867C151.079 657.01 149.841 656.026 148.73 654.916C147.651 653.836 146.651 652.583 145.73 651.154L134.556 662.356Z" fill="white"/>
<path d="M26.0462 484.799C29.0045 484.736 31.7788 485.373 34.369 486.711C36.9043 488.018 38.9968 489.842 40.6464 492.181C41.2427 490.763 42.1036 489.551 43.2292 488.547C44.3114 487.554 45.6106 486.85 47.1269 486.436C48.8598 485.963 50.5788 485.959 52.2839 486.423C53.9341 486.856 55.3897 487.691 56.6509 488.927C57.857 490.132 58.6923 491.601 59.1566 493.334C59.6094 495.023 59.6215 496.717 59.1931 498.415C58.7213 500.124 57.8867 501.607 56.6892 502.864C55.4369 504.089 53.9442 504.939 52.2113 505.412C50.7384 505.814 49.265 505.867 47.7912 505.572C46.3058 505.234 44.9515 504.604 43.7284 503.683C43.4834 506.586 42.5924 509.247 41.0554 511.665C39.4751 514.096 37.3915 516.036 34.8047 517.486L33.2889 514.692C36.1674 513.116 38.2506 510.827 39.5384 507.826C40.8146 504.781 41.029 501.677 40.1816 498.514C39.3342 495.352 37.6049 492.802 34.9937 490.865C32.371 488.884 29.4172 487.924 26.1324 487.984L26.0462 484.799ZM51.3929 502.357C53.1692 501.872 54.5171 500.83 55.4368 499.231C56.3565 497.632 56.5784 495.944 56.1024 494.168C55.6265 492.391 54.592 491.047 52.9991 490.133C51.4061 489.22 49.7215 489.006 47.9453 489.491C46.1691 489.975 44.8211 491.018 43.9014 492.617C42.9817 494.216 42.7599 495.904 43.2358 497.68C43.7001 499.413 44.7346 500.758 46.3392 501.715C47.9322 502.628 49.6167 502.842 51.3929 502.357Z" fill="white"/>
<path d="M32.1568 292.287C32.5515 290.814 33.431 289.701 34.7953 288.948C36.1161 288.183 37.5147 287.996 38.9911 288.386C40.0767 288.673 40.9783 289.213 41.6958 290.006C42.3699 290.787 42.808 291.668 43.0101 292.65C43.2237 293.588 43.2318 294.425 43.0345 295.161L39.9731 294.352C40.066 294.006 39.9925 293.499 39.7526 292.833C39.4809 292.111 38.9542 291.647 38.1726 291.441C37.5647 291.28 36.9638 291.353 36.37 291.66C35.7879 291.924 35.4039 292.403 35.2182 293.096C34.9976 293.919 35.6541 295.113 37.1876 296.679C38.6894 298.189 41.2015 299.92 44.7239 301.872C47.3491 303.354 50.1611 304.747 53.1599 306.049C56.1153 307.341 58.4875 308.292 60.2764 308.904L59.4753 311.894C57.6167 311.542 55.082 311.197 51.8712 310.859C48.6169 310.509 45.4799 310.33 42.4599 310.321C38.4266 310.276 35.3747 310.56 33.3041 311.172C31.2016 311.73 30.0401 312.421 29.8195 313.244C29.6337 313.937 29.7216 314.564 30.0832 315.123C30.4564 315.639 30.9469 315.978 31.5549 316.139C32.3365 316.345 33.0199 316.224 33.6051 315.776C34.1584 315.272 34.4815 314.847 34.5744 314.501L37.6358 315.31C37.4384 316.046 37.0065 316.79 36.3401 317.542C35.6853 318.251 34.8698 318.778 33.8939 319.123C32.8745 319.457 31.822 319.48 30.7364 319.193C29.2599 318.803 28.14 317.95 27.3764 316.635C26.5695 315.308 26.3634 313.908 26.7581 312.435C27.2457 310.615 28.7884 309.283 31.3862 308.438C33.9521 307.539 37.6499 307.101 42.4794 307.124C43.5478 307.128 45.5688 307.222 48.5422 307.404C45.8706 306.095 44.0703 305.179 43.1412 304.655C38.9386 302.291 35.9432 300.108 34.1552 298.104C32.3353 296.046 31.6692 294.107 32.1568 292.287Z" fill="white"/>
<path d="M146.405 137.255C148.529 139.003 150.955 140.005 153.683 140.261C156.41 140.453 158.948 139.819 161.296 138.36L162.96 141.076C159.977 142.916 156.757 143.693 153.3 143.405C149.875 143.085 146.83 141.781 144.167 139.492L139.454 144.206C141.768 146.843 143.067 149.893 143.35 153.355C143.633 156.817 142.87 160.024 141.06 162.976L138.349 161.307C139.81 158.958 140.43 156.434 140.209 153.734C139.989 150.971 138.992 148.54 137.217 146.443L132.837 150.823L130.602 148.583L134.934 144.25C132.842 142.725 130.511 141.913 127.942 141.816C125.404 141.688 123.025 142.321 120.804 143.717L119.188 141.049C121.98 139.272 125.026 138.48 128.324 138.672C131.623 138.865 134.572 139.979 137.172 142.013L141.98 137.204C139.984 134.567 138.891 131.597 138.703 128.294C138.515 124.991 139.31 121.942 141.088 119.149L143.704 120.818C142.338 123.008 141.718 125.406 141.843 128.01C141.937 130.582 142.728 132.901 144.218 134.967L148.55 130.634L150.785 132.875L146.405 137.255Z" fill="white"/>
<path d="M288.865 46.106L294.426 37.0081L299.958 40.1597L303.247 34.7829L308.745 37.8053L312.064 32.282L321.363 37.3981L319.808 40.1661L313.186 36.5462L309.913 41.9876L304.351 38.9825L301.062 44.3593L295.483 41.2897L291.574 47.7314L288.865 46.106ZM298.52 52.5789L304.034 55.6659L307.341 50.3537L312.821 53.3115L316.158 47.8528L325.457 52.9689L323.902 55.7369L317.262 52.0523L314.007 57.5584L308.445 54.5533L305.156 59.9301L299.559 56.7958L295.668 63.3022L292.958 61.6768L298.52 52.5789Z" fill="white"/>
<path d="M673.389 154.9L671.16 152.672L678.215 145.599L653.768 145.614L653.726 153.821L650.599 153.823L650.641 145.616L642.208 145.621L642.253 142.443L650.592 142.438L650.634 134.231L653.761 134.229L653.766 142.484L662.152 142.431L678.213 142.469L671.102 135.357L673.328 133.126L684.232 144.03L673.389 154.9Z" fill="white"/>
<path d="M737.562 328.34L739.19 325.603L741.898 327.156L741.603 326.056C741.071 324.071 741.326 322.172 742.369 320.36C743.411 318.547 744.946 317.364 746.974 316.811L746.956 316.746L755.387 314.514L768.266 310.997C770.208 310.467 771.362 309.851 771.73 309.149C772.14 308.435 772.247 307.711 772.051 306.978C771.819 306.115 771.338 305.528 770.607 305.219C769.876 304.909 768.583 305.007 766.727 305.514L752.942 309.278L743.882 311.751L743.067 308.709L752.127 306.236L765.977 302.455C767.919 301.924 769.073 301.308 769.44 300.606C769.851 299.892 769.958 299.168 769.762 298.435C769.53 297.572 769.049 296.986 768.318 296.676C767.587 296.366 766.293 296.465 764.438 296.971L750.589 300.752L741.593 303.208L740.778 300.167L749.838 297.693L763.688 293.912C766.579 293.122 767.885 292.21 767.608 291.174L770.65 290.344C771.031 291.768 770.797 292.966 769.946 293.939C771.377 294.614 772.329 295.835 772.803 297.604C773.312 299.503 773.046 301.103 772.006 302.406C773.567 303.045 774.595 304.292 775.092 306.147C775.405 307.312 775.396 308.403 775.066 309.419C774.736 310.435 774.117 311.321 773.209 312.079C772.183 312.915 770.807 313.568 769.081 314.039L756.185 317.491L747.771 319.788L747.789 319.852C746.624 320.171 745.72 320.857 745.077 321.913C744.476 322.956 744.332 324.06 744.645 325.225L744.922 326.261L746.485 323.542L749.276 325.142L745.012 332.557L737.562 328.34Z" fill="white"/>
<path d="M751.096 511.953L754.218 500.303L756.116 501.775C757.199 502.569 758.412 503.398 759.755 504.261C761.142 505.136 762.332 505.704 763.327 505.967C765.099 506.436 766.84 506.249 768.547 505.406C770.243 504.607 771.362 503.193 771.906 501.166C772.449 499.138 772.191 497.337 771.131 495.763C770.071 494.189 768.654 493.168 766.882 492.7C765.887 492.437 764.57 492.343 762.929 492.418C761.332 492.504 759.864 492.624 758.526 492.779L756.143 493.119L759.264 481.47L762.313 482.275L760.405 489.394C763.796 489.182 766.226 489.269 767.697 489.658C769.729 490.195 771.359 491.111 772.586 492.405C773.845 493.754 774.667 495.265 775.053 496.938C775.426 498.654 775.394 500.332 774.954 501.971C774.527 503.567 773.727 504.996 772.556 506.258C771.373 507.562 769.903 508.467 768.147 508.974C766.422 509.534 764.544 509.546 762.512 509.009C761.041 508.621 758.888 507.497 756.053 505.639L754.145 512.758L751.096 511.953ZM751.529 479.495L743.378 509.913L740.33 509.107L748.48 478.689L751.529 479.495Z" fill="white"/>
<path d="M648.262 672.492C646.741 670.966 645.441 669.123 644.364 666.963C643.256 664.835 642.464 662.611 641.99 660.292L639.228 663.053L636.994 660.813L640.326 657.48C640.707 657.1 641.135 656.766 641.611 656.481C641.518 654.48 641.757 652.622 642.329 650.908C642.901 649.193 643.806 647.717 645.043 646.479L647.278 648.719C645.755 650.243 644.913 652.449 644.752 655.339C645.894 655.213 647.02 655.325 648.13 655.675C649.24 656.089 650.207 656.709 651.031 657.535L651.079 657.487L657.213 663.637C659.749 666.242 662.887 669.42 666.627 673.17C668.085 674.632 669.211 675.348 670.004 675.316C670.829 675.317 671.511 675.047 672.05 674.508C672.685 673.873 672.939 673.143 672.813 672.317C672.718 671.523 672.005 670.458 670.674 669.124L660.499 658.922L653.842 652.249L656.079 650.011L662.736 656.685L672.912 666.886C674.37 668.348 675.495 669.063 676.288 669.032C677.113 669.032 677.795 668.763 678.335 668.223C678.969 667.589 679.224 666.858 679.097 666.032C679.003 665.238 678.29 664.174 676.958 662.839L666.783 652.638L660.126 645.964L662.364 643.727L669.021 650.4L679.196 660.602C681.351 662.763 682.81 663.462 683.572 662.701L685.807 664.941C684.791 665.957 683.601 666.353 682.237 666.13C682.395 667.75 681.839 669.194 680.569 670.464C679.205 671.829 677.666 672.383 675.953 672.128C676.206 673.843 675.65 675.383 674.285 676.748C673.428 677.605 672.476 678.144 671.429 678.366C670.382 678.588 669.304 678.492 668.194 678.078C666.957 677.601 665.689 676.711 664.39 675.408L661.489 672.5C661.33 673.548 660.822 674.501 659.965 675.358C658.06 677.262 656.125 677.737 654.159 676.783C652.162 675.861 650.196 674.43 648.262 672.492ZM648.794 659.772C648.287 659.264 647.684 658.883 646.986 658.628C646.289 658.437 645.607 658.389 644.941 658.484C645.256 660.707 645.905 662.851 646.887 664.916C647.869 667.045 649.073 668.824 650.5 670.254C652.592 672.352 654.161 673.512 655.208 673.735C656.223 673.989 657.064 673.784 657.73 673.117C658.587 672.26 658.667 671.164 657.97 669.83C657.273 668.559 656.291 667.288 655.023 666.017L654.927 665.922C652.994 663.92 650.965 661.854 648.841 659.725L648.794 659.772Z" fill="white"/>
<path d="M484.771 743.859C484.213 743.823 483.651 743.938 483.083 744.203C482.799 744.335 482.595 744.479 482.47 744.636L479.67 743.207C480.054 742.436 480.773 741.805 481.827 741.314C482.759 740.879 483.724 740.676 484.721 740.703C485.9 740.696 486.987 741.027 487.985 741.695C488.941 742.383 489.7 743.335 490.261 744.552C491.045 746.256 491.576 748.103 491.852 750.094C492.088 752.103 492.287 754.672 492.447 757.8C492.543 760.467 492.713 762.654 492.958 764.363C493.163 766.091 493.565 767.604 494.163 768.903C494.947 770.607 496.292 771.655 498.197 772.049C499.088 772.274 499.955 772.338 500.796 772.241C501.598 772.163 502.282 771.992 502.849 771.727C503.619 771.368 504.388 770.739 505.156 769.839C505.882 768.958 506.394 767.93 506.691 766.757C506.947 765.603 506.804 764.437 506.262 763.261C505.945 762.571 505.546 761.919 505.066 761.305C504.605 760.731 503.96 759.972 503.131 759.028C501.745 757.408 500.603 755.944 499.706 754.637C498.768 753.35 497.851 751.732 496.954 749.785C496.263 748.283 496.192 746.739 496.741 745.152C497.309 743.606 498.343 742.483 499.843 741.784C501.343 741.085 502.863 741.017 504.402 741.58C505.961 742.184 507.086 743.237 507.777 744.738C508.468 746.239 508.53 747.763 507.962 749.309C507.394 750.855 506.36 751.978 504.86 752.678C504.211 752.98 503.437 753.169 502.536 753.244C503.473 754.532 504.483 755.761 505.564 756.933C505.757 757.138 506.123 757.559 506.662 758.195C507.22 758.871 507.709 759.506 508.13 760.098C508.51 760.709 508.84 761.319 509.12 761.928C509.905 763.632 510.13 765.351 509.795 767.084C509.461 768.817 508.764 770.349 507.703 771.682C506.602 773.033 505.423 774.002 504.167 774.588C503.234 775.022 502.168 775.273 500.968 775.34C499.746 775.466 498.58 775.394 497.47 775.123C496.043 774.803 494.813 774.218 493.782 773.368C492.71 772.537 491.884 771.493 491.305 770.235C490.595 768.694 490.12 766.968 489.881 765.059C489.642 763.15 489.458 760.771 489.328 757.924C489.183 754.936 488.989 752.537 488.747 750.728C488.524 748.96 488.075 747.345 487.403 745.885C486.805 744.586 485.928 743.911 484.771 743.859ZM504.919 746.07C504.583 745.34 504.05 744.825 503.321 744.524C502.57 744.283 501.849 744.323 501.16 744.644C500.471 744.966 499.996 745.483 499.733 746.197C499.449 746.97 499.475 747.722 499.812 748.452C500.129 749.142 500.664 749.607 501.415 749.848C502.144 750.149 502.854 750.139 503.543 749.817C504.232 749.496 504.718 748.949 505.002 748.176C505.265 747.462 505.237 746.76 504.919 746.07Z" fill="white"/>
<path d="M317.555 749.399C318.596 749.12 319.641 749.118 320.689 749.395C321.738 749.671 322.621 750.2 323.339 750.983C324.089 751.711 324.601 752.596 324.876 753.636C324.968 753.983 325.035 754.5 325.076 755.185L325.046 755.333C325.011 759.243 323.865 762.731 321.609 765.797C319.353 768.863 316.338 770.901 312.564 771.913C309.18 772.819 305.88 772.728 302.666 771.639C299.419 770.605 296.728 768.772 294.593 766.14L298.042 765.215C299.807 766.972 301.912 768.172 304.359 768.817C306.774 769.517 309.239 769.529 311.756 768.855C313.838 768.297 315.627 767.33 317.121 765.954C318.573 764.59 319.737 762.932 320.614 760.978C319.009 761.408 317.494 761.211 316.068 760.385C314.642 759.56 313.717 758.345 313.293 756.74C312.869 755.136 313.072 753.618 313.902 752.189C314.732 750.759 315.949 749.829 317.555 749.399ZM319.193 746.104C317.428 744.347 315.338 743.119 312.923 742.42C310.476 741.775 307.995 741.79 305.479 742.464C303.396 743.022 301.624 743.961 300.161 745.282C298.666 746.658 297.48 748.322 296.603 750.276C298.208 749.846 299.723 750.043 301.149 750.869C302.587 751.737 303.517 752.974 303.941 754.579C304.365 756.183 304.162 757.701 303.332 759.131C302.502 760.56 301.285 761.49 299.68 761.92C298.638 762.199 297.594 762.201 296.545 761.924C295.496 761.648 294.613 761.119 293.895 760.336C293.157 759.651 292.644 758.767 292.358 757.683C292.232 757.205 292.171 756.711 292.175 756.199L292.158 756.134L292.188 755.986C292.224 752.076 293.369 748.588 295.625 745.522C297.838 742.468 300.853 740.429 304.671 739.406C308.055 738.5 311.37 738.563 314.616 739.598C317.831 740.687 320.506 742.547 322.642 745.18L319.193 746.104ZM321.818 754.456C321.715 754.066 321.486 753.639 321.131 753.177C320.756 752.813 320.318 752.559 319.815 752.415C319.324 752.315 318.84 752.328 318.363 752.456C317.625 752.654 317.065 753.083 316.682 753.742C316.267 754.457 316.157 755.183 316.351 755.921C316.546 756.658 316.994 757.211 317.696 757.581C318.365 758.005 319.069 758.118 319.807 757.921C320.414 757.758 320.91 757.439 321.296 756.964C321.681 756.489 321.881 755.925 321.894 755.272L321.818 754.456ZM300.883 755.398C300.677 754.618 300.239 754.015 299.569 753.591C298.868 753.222 298.148 753.136 297.41 753.333C296.815 753.539 296.324 753.88 295.938 754.355C295.564 754.873 295.365 755.437 295.34 756.047L295.31 756.195C295.301 756.337 295.336 756.559 295.416 756.863C295.543 757.34 295.787 757.739 296.151 758.059C296.482 758.435 296.899 758.695 297.402 758.839C297.905 758.983 298.394 758.991 298.872 758.863C299.609 758.665 300.185 758.209 300.6 757.494C300.984 756.834 301.078 756.136 300.883 755.398Z" fill="white"/>
<path d="M509.272 51.7134C510.871 52.1417 512.079 53.0667 512.898 54.4884C513.717 55.9102 513.91 57.4185 513.476 59.0134C513.043 60.6083 512.112 61.8157 510.685 62.6355C509.312 63.4237 507.821 63.6253 506.21 63.2401L506.146 63.2227C504.979 62.9102 503.854 62.4468 502.769 61.8325C501.692 63.0698 500.217 63.8075 498.345 64.0458C496.484 64.2409 494.537 64.1585 492.503 63.7984C490.48 63.3953 487.935 62.7827 484.868 61.9609L485.694 58.9219C489.927 60.0563 493.15 60.7347 495.36 60.957C497.626 61.1479 499.244 60.8186 500.217 59.9693C498.97 58.7567 498.14 57.3781 497.725 55.8334C497.354 54.3004 497.408 52.6502 497.888 50.8828L498.731 47.7792C499.044 46.7993 499.534 45.0809 500.202 42.6238C500.74 40.6409 500.889 39.1548 500.648 38.1653C500.45 37.1874 499.811 36.5538 498.731 36.2644C497.522 35.9403 496.541 36.1398 495.788 36.8631C495.035 37.5863 494.384 38.9609 493.833 40.9869L490.83 52.0436L487.784 51.2275L491.28 38.3603C491.678 36.8947 491.623 35.8165 491.116 35.1255C490.663 34.4031 489.551 33.8046 487.78 33.33L488.605 30.291C489.815 30.6151 490.903 31.0454 491.87 31.5819C492.879 32.1299 493.65 32.9607 494.182 34.0743C495.692 32.9528 497.483 32.6698 499.557 33.2254C500.81 33.5611 501.802 34.1738 502.533 35.0635C503.265 35.9532 503.704 37.0652 503.852 38.3995C504.011 39.6907 503.809 41.3708 503.247 43.4399C502.58 45.8969 502.09 47.6154 501.777 48.5953L500.934 51.6989C500.407 53.6387 500.677 55.3757 501.743 56.91C501.813 56.6513 501.844 56.4516 501.836 56.3107L501.901 56.328L501.942 55.9227C502.375 54.3278 503.305 53.1204 504.733 52.3006C506.161 51.4809 507.674 51.2851 509.272 51.7134ZM504.987 56.7388C504.788 57.4716 504.872 58.1876 505.238 58.8869C505.659 59.5547 506.237 59.987 506.971 60.1837C507.749 60.3921 508.467 60.3071 509.126 59.9287C509.797 59.5073 510.232 58.9301 510.431 58.1973C510.63 57.4645 510.519 56.7642 510.098 56.0965C509.731 55.3972 509.181 54.9492 508.447 54.7524C507.712 54.5556 506.988 54.6622 506.274 55.072C505.615 55.4504 505.186 56.006 504.987 56.7388Z" fill="white"/>
<path d="M402 802C622.914 802 802 622.914 802 402C802 181.086 622.914 2 402 2C181.086 2 2 181.086 2 402C2 622.914 181.086 802 402 802Z" stroke="white"/>
<path d="M401.999 735.334C586.094 735.334 735.333 586.095 735.333 402C735.333 217.905 586.094 68.667 401.999 68.667C217.904 68.667 68.666 217.905 68.666 402C68.666 586.095 217.904 735.334 401.999 735.334Z" stroke="white"/>
<path d="M402.001 718.666C576.891 718.666 718.667 576.89 718.667 402C718.667 227.109 576.891 85.333 402.001 85.333C227.11 85.333 85.334 227.109 85.334 402C85.334 576.89 227.11 718.666 402.001 718.666Z" stroke="white"/>
<path d="M402 527C471.036 527 527 471.036 527 402C527 332.964 471.036 277 402 277C332.964 277 277 332.964 277 402C277 471.036 332.964 527 402 527Z" stroke="white"/>
<path d="M402.001 443.666C425.013 443.666 443.667 425.012 443.667 402C443.667 378.988 425.013 360.333 402.001 360.333C378.989 360.333 360.334 378.988 360.334 402C360.334 425.012 378.989 443.666 402.001 443.666Z" stroke="white"/>
<path d="M2 402H277" stroke="white"/>
<path d="M802 402H527" stroke="white"/>
<path d="M68.7188 396.183L85.3819 396.473" stroke="white" stroke-width="0.5"/>
<path d="M68.7188 407.817L85.3819 407.527" stroke="white" stroke-width="0.5"/>
<path d="M68.8691 390.367L85.5257 390.949" stroke="white" stroke-width="0.5"/>
<path d="M68.8691 413.633L85.5257 413.051" stroke="white" stroke-width="0.5"/>
<path d="M69.123 384.556L85.7669 385.428" stroke="white" stroke-width="0.5"/>
<path d="M69.123 419.444L85.7669 418.572" stroke="white" stroke-width="0.5"/>
<path d="M69.4766 378.748L86.1026 379.911" stroke="white" stroke-width="0.5"/>
<path d="M69.4766 425.252L86.1026 424.089" stroke="white" stroke-width="0.5"/>
<path d="M69.9355 372.949L86.5388 374.402" stroke="white" stroke-width="0.5"/>
<path d="M69.9355 431.051L86.5388 429.598" stroke="white" stroke-width="0.5"/>
<path d="M70.4922 367.158L87.0676 368.9" stroke="white"/>
<path d="M70.4922 436.842L87.0676 435.1" stroke="white"/>
<path d="M71.1504 361.377L87.6928 363.408" stroke="white" stroke-width="0.5"/>
<path d="M71.1504 442.623L87.6928 440.592" stroke="white" stroke-width="0.5"/>
<path d="M71.9121 355.608L88.4166 357.928" stroke="white" stroke-width="0.5"/>
<path d="M71.9121 448.392L88.4166 446.072" stroke="white" stroke-width="0.5"/>
<path d="M72.7715 349.854L89.233 352.462" stroke="white" stroke-width="0.5"/>
<path d="M72.7715 454.146L89.233 451.538" stroke="white" stroke-width="0.5"/>
<path d="M73.7324 344.117L90.1459 347.011" stroke="white" stroke-width="0.5"/>
<path d="M73.7324 459.883L90.1459 456.989" stroke="white" stroke-width="0.5"/>
<path d="M74.7891 338.396L91.1495 341.577" stroke="white" stroke-width="0.5"/>
<path d="M74.7891 465.604L91.1495 462.423" stroke="white" stroke-width="0.5"/>
<path d="M75.9512 332.696L92.2536 336.161" stroke="white"/>
<path d="M75.9512 471.304L92.2536 467.839" stroke="white"/>
<path d="M77.2109 327.017L93.4504 330.766" stroke="white" stroke-width="0.5"/>
<path d="M77.2109 476.983L93.4504 473.234" stroke="white" stroke-width="0.5"/>
<path d="M78.5684 321.358L94.74 325.39" stroke="white" stroke-width="0.5"/>
<path d="M78.5684 482.642L94.74 478.61" stroke="white" stroke-width="0.5"/>
<path d="M80.0234 315.728L96.1222 320.041" stroke="white" stroke-width="0.5"/>
<path d="M80.0234 488.272L96.1222 483.959" stroke="white" stroke-width="0.5"/>
<path d="M81.5801 310.12L97.6011 314.714" stroke="white" stroke-width="0.5"/>
<path d="M81.5801 493.88L97.6011 489.286" stroke="white" stroke-width="0.5"/>
<path d="M83.2305 304.542L99.1689 309.415" stroke="white" stroke-width="0.5"/>
<path d="M83.2305 499.458L99.1689 494.585" stroke="white" stroke-width="0.5"/>
<path d="M84.9824 298.994L100.833 304.144" stroke="white"/>
<path d="M84.9824 505.006L100.833 499.856" stroke="white"/>
<path d="M86.8281 293.478L102.587 298.904" stroke="white" stroke-width="0.5"/>
<path d="M86.8281 510.522L102.587 505.096" stroke="white" stroke-width="0.5"/>
<path d="M88.7676 287.993L104.429 293.693" stroke="white" stroke-width="0.5"/>
<path d="M88.7676 516.007L104.429 510.307" stroke="white" stroke-width="0.5"/>
<path d="M90.8047 282.544L106.364 288.517" stroke="white" stroke-width="0.5"/>
<path d="M90.8047 521.456L106.364 515.483" stroke="white" stroke-width="0.5"/>
<path d="M92.9375 277.132L108.391 283.375" stroke="white" stroke-width="0.5"/>
<path d="M92.9375 526.868L108.391 520.625" stroke="white" stroke-width="0.5"/>
<path d="M95.1641 271.756L110.506 278.268" stroke="white" stroke-width="0.5"/>
<path d="M95.1641 532.244L110.506 525.732" stroke="white" stroke-width="0.5"/>
<path d="M97.4844 266.421L112.71 273.2" stroke="white"/>
<path d="M97.4844 537.579L112.71 530.8" stroke="white"/>
<path d="M99.8965 261.128L115.002 268.172" stroke="white" stroke-width="0.5"/>
<path d="M99.8965 542.872L115.002 535.828" stroke="white" stroke-width="0.5"/>
<path d="M102.4 255.877L117.38 263.183" stroke="white" stroke-width="0.5"/>
<path d="M102.4 548.123L117.38 540.817" stroke="white" stroke-width="0.5"/>
<path d="M104.998 250.67L119.848 258.236" stroke="white" stroke-width="0.5"/>
<path d="M104.998 553.33L119.848 545.764" stroke="white" stroke-width="0.5"/>
<path d="M107.684 245.509L122.399 253.333" stroke="white" stroke-width="0.5"/>
<path d="M107.684 558.491L122.399 550.667" stroke="white" stroke-width="0.5"/>
<path d="M110.461 240.396L125.038 248.477" stroke="white" stroke-width="0.5"/>
<path d="M110.461 563.604L125.038 555.523" stroke="white" stroke-width="0.5"/>
<path d="M55.5898 202L293.747 339.5" stroke="white"/>
<path d="M55.5898 602L293.747 464.5" stroke="white"/>
<path d="M116.277 230.32L130.563 238.904" stroke="white" stroke-width="0.5"/>
<path d="M116.277 573.68L130.563 565.096" stroke="white" stroke-width="0.5"/>
<path d="M119.318 225.361L133.452 234.193" stroke="white" stroke-width="0.5"/>
<path d="M119.318 578.639L133.452 569.807" stroke="white" stroke-width="0.5"/>
<path d="M122.443 220.454L136.421 229.531" stroke="white" stroke-width="0.5"/>
<path d="M122.443 583.546L136.421 574.469" stroke="white" stroke-width="0.5"/>
<path d="M125.656 215.602L139.474 224.921" stroke="white" stroke-width="0.5"/>
<path d="M125.656 588.398L139.474 579.079" stroke="white" stroke-width="0.5"/>
<path d="M128.949 210.809L142.602 220.368" stroke="white" stroke-width="0.5"/>
<path d="M128.949 593.191L142.602 583.632" stroke="white" stroke-width="0.5"/>
<path d="M132.328 206.072L145.812 215.869" stroke="white"/>
<path d="M132.328 597.928L145.812 588.131" stroke="white"/>
<path d="M135.789 201.395L149.1 211.425" stroke="white" stroke-width="0.5"/>
<path d="M135.789 602.605L149.1 592.575" stroke="white" stroke-width="0.5"/>
<path d="M139.33 196.78L152.464 207.041" stroke="white" stroke-width="0.5"/>
<path d="M139.33 607.22L152.464 596.959" stroke="white" stroke-width="0.5"/>
<path d="M142.951 192.227L155.904 202.715" stroke="white" stroke-width="0.5"/>
<path d="M142.951 611.773L155.904 601.285" stroke="white" stroke-width="0.5"/>
<path d="M146.652 187.737L159.42 198.45" stroke="white" stroke-width="0.5"/>
<path d="M146.652 616.263L159.42 605.55" stroke="white" stroke-width="0.5"/>
<path d="M150.432 183.313L163.01 194.248" stroke="white" stroke-width="0.5"/>
<path d="M150.432 620.687L163.01 609.752" stroke="white" stroke-width="0.5"/>
<path d="M154.285 178.956L166.671 190.108" stroke="white"/>
<path d="M154.285 625.044L166.671 613.892" stroke="white"/>
<path d="M158.215 174.668L170.404 186.035" stroke="white" stroke-width="0.5"/>
<path d="M158.215 629.332L170.404 617.965" stroke="white" stroke-width="0.5"/>
<path d="M162.221 170.447L174.21 182.025" stroke="white" stroke-width="0.5"/>
<path d="M162.221 633.553L174.21 621.975" stroke="white" stroke-width="0.5"/>
<path d="M166.297 166.299L178.082 178.084" stroke="white" stroke-width="0.5"/>
<path d="M166.297 637.703L178.082 625.918" stroke="white" stroke-width="0.5"/>
<path d="M170.447 162.22L182.025 174.209" stroke="white" stroke-width="0.5"/>
<path d="M170.447 641.78L182.025 629.791" stroke="white" stroke-width="0.5"/>
<path d="M174.666 158.216L186.033 170.405" stroke="white" stroke-width="0.5"/>
<path d="M174.666 645.784L186.033 633.595" stroke="white" stroke-width="0.5"/>
<path d="M178.957 154.285L190.109 166.671" stroke="white"/>
<path d="M178.957 649.715L190.109 637.329" stroke="white"/>
<path d="M183.314 150.43L194.249 163.008" stroke="white" stroke-width="0.5"/>
<path d="M183.314 653.57L194.249 640.992" stroke="white" stroke-width="0.5"/>
<path d="M187.738 146.651L198.451 159.419" stroke="white" stroke-width="0.5"/>
<path d="M187.738 657.349L198.451 644.581" stroke="white" stroke-width="0.5"/>
<path d="M192.229 142.952L202.717 155.905" stroke="white" stroke-width="0.5"/>
<path d="M192.229 661.048L202.717 648.095" stroke="white" stroke-width="0.5"/>
<path d="M196.779 139.329L207.04 152.463" stroke="white" stroke-width="0.5"/>
<path d="M196.779 664.671L207.04 651.537" stroke="white" stroke-width="0.5"/>
<path d="M201.395 135.787L211.425 149.098" stroke="white" stroke-width="0.5"/>
<path d="M201.395 668.213L211.425 654.902" stroke="white" stroke-width="0.5"/>
<path d="M206.072 132.327L215.869 145.811" stroke="white"/>
<path d="M206.072 671.673L215.869 658.189" stroke="white"/>
<path d="M210.809 128.95L220.368 142.603" stroke="white" stroke-width="0.5"/>
<path d="M210.809 675.05L220.368 661.397" stroke="white" stroke-width="0.5"/>
<path d="M215.604 125.654L224.923 139.472" stroke="white" stroke-width="0.5"/>
<path d="M215.604 678.346L224.923 664.528" stroke="white" stroke-width="0.5"/>
<path d="M220.453 122.442L229.53 136.42" stroke="white" stroke-width="0.5"/>
<path d="M220.453 681.558L229.53 667.58" stroke="white" stroke-width="0.5"/>
<path d="M225.359 119.317L234.191 133.452" stroke="white" stroke-width="0.5"/>
<path d="M225.359 684.683L234.191 670.548" stroke="white" stroke-width="0.5"/>
<path d="M230.32 116.277L238.904 130.563" stroke="white" stroke-width="0.5"/>
<path d="M230.32 687.723L238.904 673.437" stroke="white" stroke-width="0.5"/>
<path d="M202 55.5908L339.5 293.748" stroke="white"/>
<path d="M202 748.409L339.5 510.252" stroke="white"/>
<path d="M240.395 110.46L248.475 125.037" stroke="white" stroke-width="0.5"/>
<path d="M240.395 693.54L248.475 678.963" stroke="white" stroke-width="0.5"/>
<path d="M245.51 107.684L253.334 122.399" stroke="white" stroke-width="0.5"/>
<path d="M245.51 696.316L253.334 681.601" stroke="white" stroke-width="0.5"/>
<path d="M250.668 104.998L258.234 119.848" stroke="white" stroke-width="0.5"/>
<path d="M250.668 699.002L258.234 684.152" stroke="white" stroke-width="0.5"/>
<path d="M255.877 102.402L263.183 117.382" stroke="white" stroke-width="0.5"/>
<path d="M255.877 701.598L263.183 686.618" stroke="white" stroke-width="0.5"/>
<path d="M261.127 99.8975L268.171 115.003" stroke="white" stroke-width="0.5"/>
<path d="M261.127 704.103L268.171 688.997" stroke="white" stroke-width="0.5"/>
<path d="M266.42 97.4854L273.199 112.711" stroke="white"/>
<path d="M266.42 706.515L273.199 691.289" stroke="white"/>
<path d="M271.756 95.166L278.268 110.508" stroke="white" stroke-width="0.5"/>
<path d="M271.756 708.834L278.268 693.492" stroke="white" stroke-width="0.5"/>
<path d="M277.131 92.9395L283.374 108.393" stroke="white" stroke-width="0.5"/>
<path d="M277.131 711.061L283.374 695.607" stroke="white" stroke-width="0.5"/>
<path d="M282.543 90.8066L288.516 106.366" stroke="white" stroke-width="0.5"/>
<path d="M282.543 713.193L288.516 697.634" stroke="white" stroke-width="0.5"/>
<path d="M287.992 88.7695L293.693 104.431" stroke="white" stroke-width="0.5"/>
<path d="M287.992 715.23L293.693 699.569" stroke="white" stroke-width="0.5"/>
<path d="M293.479 86.8271L298.905 102.586" stroke="white" stroke-width="0.5"/>
<path d="M293.479 717.173L298.905 701.414" stroke="white" stroke-width="0.5"/>
<path d="M298.996 84.9814L304.146 100.832" stroke="white"/>
<path d="M298.996 719.019L304.146 703.168" stroke="white"/>
<path d="M304.543 83.2324L309.416 99.1708" stroke="white" stroke-width="0.5"/>
<path d="M304.543 720.768L309.416 704.829" stroke="white" stroke-width="0.5"/>
<path d="M310.121 81.5801L314.715 97.6011" stroke="white" stroke-width="0.5"/>
<path d="M310.121 722.42L314.715 706.399" stroke="white" stroke-width="0.5"/>
<path d="M315.727 80.0244L320.04 96.1232" stroke="white" stroke-width="0.5"/>
<path d="M315.727 723.976L320.04 707.877" stroke="white" stroke-width="0.5"/>
<path d="M321.359 78.5674L325.391 94.739" stroke="white" stroke-width="0.5"/>
<path d="M321.359 725.433L325.391 709.261" stroke="white" stroke-width="0.5"/>
<path d="M327.016 77.21L330.765 93.4495" stroke="white" stroke-width="0.5"/>
<path d="M327.016 726.79L330.765 710.551" stroke="white" stroke-width="0.5"/>
<path d="M332.697 75.9502L336.162 92.2527" stroke="white"/>
<path d="M332.697 728.05L336.162 711.747" stroke="white"/>
<path d="M338.396 74.791L341.577 91.1515" stroke="white" stroke-width="0.5"/>
<path d="M338.396 729.209L341.577 712.849" stroke="white" stroke-width="0.5"/>
<path d="M344.115 73.7305L347.009 90.1439" stroke="white" stroke-width="0.5"/>
<path d="M344.115 730.27L347.009 713.856" stroke="white" stroke-width="0.5"/>
<path d="M349.855 72.7695L352.463 89.231" stroke="white" stroke-width="0.5"/>
<path d="M349.855 731.23L352.463 714.769" stroke="white" stroke-width="0.5"/>
<path d="M355.609 71.9102L357.929 88.4146" stroke="white" stroke-width="0.5"/>
<path d="M355.609 732.09L357.929 715.585" stroke="white" stroke-width="0.5"/>
<path d="M361.379 71.1523L363.41 87.6948" stroke="white" stroke-width="0.5"/>
<path d="M361.379 732.848L363.41 716.305" stroke="white" stroke-width="0.5"/>
<path d="M367.156 70.4932L368.898 87.0685" stroke="white"/>
<path d="M367.156 733.507L368.898 716.931" stroke="white"/>
<path d="M372.947 69.9346L374.4 86.5378" stroke="white" stroke-width="0.5"/>
<path d="M372.947 734.065L374.4 717.462" stroke="white" stroke-width="0.5"/>
<path d="M378.748 69.4785L379.911 86.1046" stroke="white" stroke-width="0.5"/>
<path d="M378.748 734.521L379.911 717.895" stroke="white" stroke-width="0.5"/>
<path d="M384.555 69.124L385.427 85.7678" stroke="white" stroke-width="0.5"/>
<path d="M384.555 734.876L385.427 718.232" stroke="white" stroke-width="0.5"/>
<path d="M390.365 68.8701L390.947 85.5266" stroke="white" stroke-width="0.5"/>
<path d="M390.365 735.13L390.947 718.473" stroke="white" stroke-width="0.5"/>
<path d="M396.184 68.7168L396.474 85.3792" stroke="white" stroke-width="0.5"/>
<path d="M396.184 735.283L396.474 718.621" stroke="white" stroke-width="0.5"/>
<path d="M402 2V277" stroke="white"/>
<path d="M402 802V527" stroke="white"/>
<path d="M407.816 68.7168L407.526 85.3792" stroke="white" stroke-width="0.5"/>
<path d="M407.816 735.283L407.526 718.621" stroke="white" stroke-width="0.5"/>
<path d="M413.635 68.8701L413.053 85.5266" stroke="white" stroke-width="0.5"/>
<path d="M413.635 735.13L413.053 718.473" stroke="white" stroke-width="0.5"/>
<path d="M419.445 69.124L418.573 85.7678" stroke="white" stroke-width="0.5"/>
<path d="M419.445 734.876L418.573 718.232" stroke="white" stroke-width="0.5"/>
<path d="M425.252 69.4785L424.089 86.1046" stroke="white" stroke-width="0.5"/>
<path d="M425.252 734.521L424.089 717.895" stroke="white" stroke-width="0.5"/>
<path d="M431.053 69.9346L429.6 86.5378" stroke="white" stroke-width="0.5"/>
<path d="M431.053 734.065L429.6 717.462" stroke="white" stroke-width="0.5"/>
<path d="M436.844 70.4932L435.102 87.0685" stroke="white"/>
<path d="M436.844 733.507L435.102 716.931" stroke="white"/>
<path d="M442.621 71.1523L440.59 87.6948" stroke="white" stroke-width="0.5"/>
<path d="M442.621 732.848L440.59 716.305" stroke="white" stroke-width="0.5"/>
<path d="M448.391 71.9102L446.071 88.4146" stroke="white" stroke-width="0.5"/>
<path d="M448.391 732.09L446.071 715.585" stroke="white" stroke-width="0.5"/>
<path d="M454.145 72.7695L451.537 89.231" stroke="white" stroke-width="0.5"/>
<path d="M454.145 731.23L451.537 714.769" stroke="white" stroke-width="0.5"/>
<path d="M459.885 73.7305L456.991 90.1439" stroke="white" stroke-width="0.5"/>
<path d="M459.885 730.27L456.991 713.856" stroke="white" stroke-width="0.5"/>
<path d="M465.604 74.791L462.423 91.1515" stroke="white" stroke-width="0.5"/>
<path d="M465.604 729.209L462.423 712.849" stroke="white" stroke-width="0.5"/>
<path d="M471.303 75.9502L467.838 92.2527" stroke="white"/>
<path d="M471.303 728.05L467.838 711.747" stroke="white"/>
<path d="M476.984 77.21L473.235 93.4495" stroke="white" stroke-width="0.5"/>
<path d="M476.984 726.79L473.235 710.551" stroke="white" stroke-width="0.5"/>
<path d="M482.641 78.5674L478.609 94.739" stroke="white" stroke-width="0.5"/>
<path d="M482.641 725.433L478.609 709.261" stroke="white" stroke-width="0.5"/>
<path d="M488.273 80.0244L483.96 96.1232" stroke="white" stroke-width="0.5"/>
<path d="M488.273 723.976L483.96 707.877" stroke="white" stroke-width="0.5"/>
<path d="M493.879 81.5801L489.285 97.6011" stroke="white" stroke-width="0.5"/>
<path d="M493.879 722.42L489.285 706.399" stroke="white" stroke-width="0.5"/>
<path d="M499.457 83.2324L494.584 99.1708" stroke="white" stroke-width="0.5"/>
<path d="M499.457 720.768L494.584 704.829" stroke="white" stroke-width="0.5"/>
<path d="M505.004 84.9814L499.854 100.832" stroke="white"/>
<path d="M505.004 719.019L499.854 703.168" stroke="white"/>
<path d="M510.521 86.8271L505.095 102.586" stroke="white" stroke-width="0.5"/>
<path d="M510.521 717.173L505.095 701.414" stroke="white" stroke-width="0.5"/>
<path d="M516.008 88.7695L510.307 104.431" stroke="white" stroke-width="0.5"/>
<path d="M516.008 715.23L510.307 699.569" stroke="white" stroke-width="0.5"/>
<path d="M521.457 90.8066L515.484 106.366" stroke="white" stroke-width="0.5"/>
<path d="M521.457 713.193L515.484 697.634" stroke="white" stroke-width="0.5"/>
<path d="M526.869 92.9395L520.626 108.393" stroke="white" stroke-width="0.5"/>
<path d="M526.869 711.061L520.626 695.607" stroke="white" stroke-width="0.5"/>
<path d="M532.244 95.166L525.732 110.508" stroke="white" stroke-width="0.5"/>
<path d="M532.244 708.834L525.732 693.492" stroke="white" stroke-width="0.5"/>
<path d="M537.58 97.4854L530.801 112.711" stroke="white"/>
<path d="M537.58 706.515L530.801 691.289" stroke="white"/>
<path d="M542.873 99.8975L535.829 115.003" stroke="white" stroke-width="0.5"/>
<path d="M542.873 704.103L535.829 688.997" stroke="white" stroke-width="0.5"/>
<path d="M548.123 102.402L540.817 117.382" stroke="white" stroke-width="0.5"/>
<path d="M548.123 701.598L540.817 686.618" stroke="white" stroke-width="0.5"/>
<path d="M553.332 104.998L545.766 119.848" stroke="white" stroke-width="0.5"/>
<path d="M553.332 699.002L545.766 684.152" stroke="white" stroke-width="0.5"/>
<path d="M558.49 107.684L550.666 122.399" stroke="white" stroke-width="0.5"/>
<path d="M558.49 696.316L550.666 681.601" stroke="white" stroke-width="0.5"/>
<path d="M563.605 110.46L555.525 125.037" stroke="white" stroke-width="0.5"/>
<path d="M563.605 693.54L555.525 678.963" stroke="white" stroke-width="0.5"/>
<path d="M602 55.5908L464.5 293.748" stroke="white"/>
<path d="M602 748.409L464.5 510.252" stroke="white"/>
<path d="M573.68 116.277L565.096 130.563" stroke="white" stroke-width="0.5"/>
<path d="M573.68 687.723L565.096 673.437" stroke="white" stroke-width="0.5"/>
<path d="M578.641 119.317L569.809 133.452" stroke="white" stroke-width="0.5"/>
<path d="M578.641 684.683L569.809 670.548" stroke="white" stroke-width="0.5"/>
<path d="M583.547 122.442L574.47 136.42" stroke="white" stroke-width="0.5"/>
<path d="M583.547 681.558L574.47 667.58" stroke="white" stroke-width="0.5"/>
<path d="M588.396 125.654L579.077 139.472" stroke="white" stroke-width="0.5"/>
<path d="M588.396 678.346L579.077 664.528" stroke="white" stroke-width="0.5"/>
<path d="M593.191 128.95L583.632 142.603" stroke="white" stroke-width="0.5"/>
<path d="M593.191 675.05L583.632 661.397" stroke="white" stroke-width="0.5"/>
<path d="M597.928 132.327L588.131 145.811" stroke="white"/>
<path d="M597.928 671.673L588.131 658.189" stroke="white"/>
<path d="M602.605 135.787L592.575 149.098" stroke="white" stroke-width="0.5"/>
<path d="M602.605 668.213L592.575 654.902" stroke="white" stroke-width="0.5"/>
<path d="M607.221 139.329L596.96 152.463" stroke="white" stroke-width="0.5"/>
<path d="M607.221 664.671L596.96 651.537" stroke="white" stroke-width="0.5"/>
<path d="M611.771 142.952L601.283 155.905" stroke="white" stroke-width="0.5"/>
<path d="M611.771 661.048L601.283 648.095" stroke="white" stroke-width="0.5"/>
<path d="M616.262 146.651L605.549 159.419" stroke="white" stroke-width="0.5"/>
<path d="M616.262 657.349L605.549 644.581" stroke="white" stroke-width="0.5"/>
<path d="M620.686 150.43L609.751 163.008" stroke="white" stroke-width="0.5"/>
<path d="M620.686 653.57L609.751 640.992" stroke="white" stroke-width="0.5"/>
<path d="M625.043 154.285L613.891 166.671" stroke="white"/>
<path d="M625.043 649.715L613.891 637.329" stroke="white"/>
<path d="M629.334 158.216L617.967 170.405" stroke="white" stroke-width="0.5"/>
<path d="M629.334 645.784L617.967 633.595" stroke="white" stroke-width="0.5"/>
<path d="M633.553 162.22L621.975 174.209" stroke="white" stroke-width="0.5"/>
<path d="M633.553 641.78L621.975 629.791" stroke="white" stroke-width="0.5"/>
<path d="M637.703 166.299L625.918 178.084" stroke="white" stroke-width="0.5"/>
<path d="M637.703 637.703L625.918 625.918" stroke="white" stroke-width="0.5"/>
<path d="M641.779 170.447L629.79 182.025" stroke="white" stroke-width="0.5"/>
<path d="M641.779 633.553L629.79 621.975" stroke="white" stroke-width="0.5"/>
<path d="M645.785 174.668L633.596 186.035" stroke="white" stroke-width="0.5"/>
<path d="M645.785 629.332L633.596 617.965" stroke="white" stroke-width="0.5"/>
<path d="M649.715 178.956L637.329 190.108" stroke="white"/>
<path d="M649.715 625.044L637.329 613.892" stroke="white"/>
<path d="M653.568 183.313L640.99 194.248" stroke="white" stroke-width="0.5"/>
<path d="M653.568 620.687L640.99 609.752" stroke="white" stroke-width="0.5"/>
<path d="M657.348 187.737L644.58 198.45" stroke="white" stroke-width="0.5"/>
<path d="M657.348 616.263L644.58 605.55" stroke="white" stroke-width="0.5"/>
<path d="M661.049 192.227L648.096 202.715" stroke="white" stroke-width="0.5"/>
<path d="M661.049 611.773L648.096 601.285" stroke="white" stroke-width="0.5"/>
<path d="M664.67 196.78L651.536 207.041" stroke="white" stroke-width="0.5"/>
<path d="M664.67 607.22L651.536 596.959" stroke="white" stroke-width="0.5"/>
<path d="M668.211 201.395L654.9 211.425" stroke="white" stroke-width="0.5"/>
<path d="M668.211 602.605L654.9 592.575" stroke="white" stroke-width="0.5"/>
<path d="M671.672 206.072L658.188 215.869" stroke="white"/>
<path d="M671.672 597.928L658.188 588.131" stroke="white"/>
<path d="M675.051 210.809L661.398 220.368" stroke="white" stroke-width="0.5"/>
<path d="M675.051 593.191L661.398 583.632" stroke="white" stroke-width="0.5"/>
<path d="M678.344 215.602L664.526 224.921" stroke="white" stroke-width="0.5"/>
<path d="M678.344 588.398L664.526 579.079" stroke="white" stroke-width="0.5"/>
<path d="M681.557 220.454L667.579 229.531" stroke="white" stroke-width="0.5"/>
<path d="M681.557 583.546L667.579 574.469" stroke="white" stroke-width="0.5"/>
<path d="M684.682 225.361L670.548 234.193" stroke="white" stroke-width="0.5"/>
<path d="M684.682 578.639L670.548 569.807" stroke="white" stroke-width="0.5"/>
<path d="M687.723 230.32L673.437 238.904" stroke="white" stroke-width="0.5"/>
<path d="M687.723 573.68L673.437 565.096" stroke="white" stroke-width="0.5"/>
<path d="M748.41 202L510.253 339.5" stroke="white"/>
<path d="M748.41 602L510.253 464.5" stroke="white"/>
<path d="M693.539 240.396L678.962 248.477" stroke="white" stroke-width="0.5"/>
<path d="M693.539 563.604L678.962 555.523" stroke="white" stroke-width="0.5"/>
<path d="M696.316 245.509L681.601 253.333" stroke="white" stroke-width="0.5"/>
<path d="M696.316 558.491L681.601 550.667" stroke="white" stroke-width="0.5"/>
<path d="M699.002 250.67L684.152 258.236" stroke="white" stroke-width="0.5"/>
<path d="M699.002 553.33L684.152 545.764" stroke="white" stroke-width="0.5"/>
<path d="M701.596 255.877L686.616 263.183" stroke="white" stroke-width="0.5"/>
<path d="M701.596 548.123L686.616 540.817" stroke="white" stroke-width="0.5"/>
<path d="M704.104 261.128L688.998 268.172" stroke="white" stroke-width="0.5"/>
<path d="M704.104 542.872L688.998 535.828" stroke="white" stroke-width="0.5"/>
<path d="M706.516 266.421L691.29 273.2" stroke="white"/>
<path d="M706.516 537.579L691.29 530.8" stroke="white"/>
<path d="M708.836 271.756L693.494 278.268" stroke="white" stroke-width="0.5"/>
<path d="M708.836 532.244L693.494 525.732" stroke="white" stroke-width="0.5"/>
<path d="M711.062 277.132L695.609 283.375" stroke="white" stroke-width="0.5"/>
<path d="M711.062 526.868L695.609 520.625" stroke="white" stroke-width="0.5"/>
<path d="M713.195 282.544L697.636 288.517" stroke="white" stroke-width="0.5"/>
<path d="M713.195 521.456L697.636 515.483" stroke="white" stroke-width="0.5"/>
<path d="M715.232 287.993L699.571 293.693" stroke="white" stroke-width="0.5"/>
<path d="M715.232 516.007L699.571 510.307" stroke="white" stroke-width="0.5"/>
<path d="M717.172 293.478L701.413 298.904" stroke="white" stroke-width="0.5"/>
<path d="M717.172 510.522L701.413 505.096" stroke="white" stroke-width="0.5"/>
<path d="M719.018 298.994L703.167 304.144" stroke="white"/>
<path d="M719.018 505.006L703.167 499.856" stroke="white"/>
<path d="M720.77 304.542L704.831 309.415" stroke="white" stroke-width="0.5"/>
<path d="M720.77 499.458L704.831 494.585" stroke="white" stroke-width="0.5"/>
<path d="M722.42 310.12L706.399 314.714" stroke="white" stroke-width="0.5"/>
<path d="M722.42 493.88L706.399 489.286" stroke="white" stroke-width="0.5"/>
<path d="M723.977 315.728L707.878 320.041" stroke="white" stroke-width="0.5"/>
<path d="M723.977 488.272L707.878 483.959" stroke="white" stroke-width="0.5"/>
<path d="M725.432 321.358L709.26 325.39" stroke="white" stroke-width="0.5"/>
<path d="M725.432 482.642L709.26 478.61" stroke="white" stroke-width="0.5"/>
<path d="M726.791 327.017L710.552 330.766" stroke="white" stroke-width="0.5"/>
<path d="M726.791 476.983L710.552 473.234" stroke="white" stroke-width="0.5"/>
<path d="M728.049 332.696L711.746 336.161" stroke="white"/>
<path d="M728.049 471.304L711.746 467.839" stroke="white"/>
<path d="M729.211 338.396L712.85 341.577" stroke="white" stroke-width="0.5"/>
<path d="M729.211 465.604L712.85 462.423" stroke="white" stroke-width="0.5"/>
<path d="M730.268 344.117L713.854 347.011" stroke="white" stroke-width="0.5"/>
<path d="M730.268 459.883L713.854 456.989" stroke="white" stroke-width="0.5"/>
<path d="M731.229 349.854L714.767 352.462" stroke="white" stroke-width="0.5"/>
<path d="M731.229 454.146L714.767 451.538" stroke="white" stroke-width="0.5"/>
<path d="M732.088 355.608L715.583 357.928" stroke="white" stroke-width="0.5"/>
<path d="M732.088 448.392L715.583 446.072" stroke="white" stroke-width="0.5"/>
<path d="M732.85 361.377L716.307 363.408" stroke="white" stroke-width="0.5"/>
<path d="M732.85 442.623L716.307 440.592" stroke="white" stroke-width="0.5"/>
<path d="M733.508 367.158L716.932 368.9" stroke="white"/>
<path d="M733.508 436.842L716.932 435.1" stroke="white"/>
<path d="M734.064 372.949L717.461 374.402" stroke="white" stroke-width="0.5"/>
<path d="M734.064 431.051L717.461 429.598" stroke="white" stroke-width="0.5"/>
<path d="M734.523 378.748L717.897 379.911" stroke="white" stroke-width="0.5"/>
<path d="M734.523 425.252L717.897 424.089" stroke="white" stroke-width="0.5"/>
<path d="M734.877 384.556L718.233 385.428" stroke="white" stroke-width="0.5"/>
<path d="M734.877 419.444L718.233 418.572" stroke="white" stroke-width="0.5"/>
<path d="M735.131 390.367L718.474 390.949" stroke="white" stroke-width="0.5"/>
<path d="M735.131 413.633L718.474 413.051" stroke="white" stroke-width="0.5"/>
<path d="M735.281 396.183L718.618 396.473" stroke="white" stroke-width="0.5"/>
<path d="M735.281 407.817L718.618 407.527" stroke="white" stroke-width="0.5"/>
</g>
<defs>
<filter id="filter0_f_116_4235" x="0.5" y="0.5" width="803" height="803" filterUnits="userSpaceOnUse" color-interpolation-filters="sRGB">
<feFlood flood-opacity="0" result="BackgroundImageFix"/>
<feBlend mode="normal" in="SourceGraphic" in2="BackgroundImageFix" result="shape"/>
<feGaussianBlur stdDeviation="0.5" result="effect1_foregroundBlur_116_4235"/>
</filter>
</defs>
</svg>
