<svg width="802" height="802" viewBox="0 0 802 802" fill="none" xmlns="http://www.w3.org/2000/svg">
<path d="M141.843 670.999C142.828 673.19 143.368 675.35 143.465 677.477C143.561 679.605 143.166 681.527 142.279 683.242L139.424 681.91C140.469 679.782 140.578 677.289 139.752 674.431C138.957 671.541 137.401 668.938 135.084 666.621C132.767 664.304 130.149 662.734 127.231 661.91C124.375 661.086 121.901 661.214 119.809 662.296L118.427 659.39C120.171 658.532 122.106 658.149 124.231 658.243C126.356 658.337 128.498 658.86 130.655 659.811L143.16 647.274C142.176 645.147 141.635 643.02 141.539 640.892C141.474 638.732 141.869 636.779 142.724 635.031L145.58 636.459C144.534 638.524 144.409 641.001 145.204 643.891C146.062 646.78 147.65 649.384 149.967 651.7C152.284 654.017 154.87 655.588 157.725 656.412C160.58 657.236 163.07 657.123 165.195 656.074L166.576 658.883C164.864 659.774 162.914 660.172 160.725 660.078C158.6 659.984 156.474 659.446 154.348 658.462L141.843 670.999ZM133.558 661.382C134.986 662.302 136.24 663.301 137.319 664.381C138.43 665.491 139.414 666.729 140.271 668.094L151.445 656.892C150.081 656.036 148.843 655.052 147.732 653.941C146.653 652.862 145.653 651.608 144.732 650.179L133.558 661.382Z" fill="white"/>
<path d="M25.0481 483.825C28.0065 483.761 30.7808 484.398 33.371 485.737C35.9063 487.044 37.9987 488.867 39.6483 491.206C40.2446 489.788 41.1056 488.577 42.2311 487.572C43.3133 486.579 44.6126 485.876 46.1289 485.462C47.8617 484.989 49.5807 484.984 51.2858 485.449C52.936 485.881 54.3917 486.716 55.6528 487.952C56.859 489.157 57.6943 490.626 58.1586 492.359C58.6113 494.049 58.6235 495.742 58.195 497.44C57.7233 499.15 56.8887 500.633 55.6912 501.89C54.4388 503.115 52.9462 503.964 51.2133 504.437C49.7403 504.839 48.267 504.893 46.7932 504.598C45.3078 504.259 43.9535 503.63 42.7303 502.708C42.4853 505.611 41.5944 508.272 40.0574 510.691C38.4771 513.121 36.3935 515.062 33.8066 516.512L32.2908 513.718C35.1693 512.142 37.2525 509.853 38.5403 506.851C39.8165 503.806 40.0309 500.702 39.1835 497.54C38.3361 494.377 36.6069 491.827 33.9957 489.89C31.3729 487.91 28.4191 486.949 25.1343 487.009L25.0481 483.825ZM50.3949 501.383C52.1711 500.898 53.5191 499.856 54.4388 498.256C55.3585 496.657 55.5803 494.969 55.1044 493.193C54.6285 491.417 53.594 490.072 52.001 489.159C50.408 488.245 48.7234 488.031 46.9472 488.516C45.171 489.001 43.8231 490.043 42.9034 491.642C41.9837 493.242 41.7618 494.93 42.2377 496.706C42.7021 498.439 43.7365 499.783 45.3411 500.74C46.9341 501.654 48.6187 501.868 50.3949 501.383Z" fill="white"/>
<path d="M31.1587 291.312C31.5535 289.839 32.433 288.726 33.7972 287.973C35.118 287.209 36.5166 287.021 37.9931 287.412C39.0787 287.698 39.9802 288.238 40.6978 289.031C41.3719 289.812 41.81 290.694 42.012 291.675C42.2257 292.613 42.2338 293.45 42.0364 294.187L38.975 293.378C39.0679 293.031 38.9944 292.525 38.7545 291.858C38.4828 291.137 37.9562 290.673 37.1745 290.466C36.5666 290.306 35.9658 290.379 35.372 290.686C34.7898 290.95 34.4059 291.428 34.2201 292.121C33.9995 292.945 34.656 294.139 36.1896 295.704C37.6913 297.214 40.2034 298.945 43.7259 300.897C46.351 302.379 49.163 303.772 52.1618 305.075C55.1172 306.366 57.4894 307.318 59.2784 307.93L58.4773 310.919C56.6187 310.567 54.0839 310.222 50.8731 309.884C47.6189 309.535 44.4818 309.355 41.4619 309.346C37.4286 309.301 34.3766 309.585 32.306 310.198C30.2036 310.756 29.042 311.446 28.8215 312.27C28.6357 312.963 28.7236 313.589 29.0852 314.149C29.4583 314.665 29.9489 315.003 30.5568 315.164C31.3384 315.37 32.0218 315.249 32.607 314.801C33.1604 314.298 33.4835 313.873 33.5764 313.526L36.6378 314.335C36.4404 315.072 36.0085 315.816 35.342 316.568C34.6872 317.276 33.8718 317.803 32.8958 318.148C31.8764 318.482 30.8239 318.506 29.7383 318.219C28.2619 317.829 27.1419 316.976 26.3784 315.66C25.5714 314.334 25.3653 312.934 25.7601 311.461C26.2477 309.641 27.7904 308.308 30.3881 307.464C32.9541 306.564 36.6518 306.126 41.4814 306.15C42.5498 306.154 44.5707 306.247 47.5442 306.43C44.8726 305.121 43.0722 304.204 42.1431 303.68C37.9405 301.317 34.9452 299.133 33.1571 297.13C31.3372 295.071 30.6711 293.132 31.1587 291.312Z" fill="white"/>
<path d="M145.407 136.28C147.531 138.028 149.957 139.03 152.685 139.286C155.412 139.478 157.95 138.845 160.298 137.385L161.962 140.102C158.979 141.942 155.759 142.718 152.302 142.43C148.877 142.11 145.832 140.806 143.169 138.518L138.456 143.231C140.77 145.868 142.069 148.918 142.352 152.38C142.635 155.842 141.872 159.049 140.062 162.002L137.351 160.333C138.812 157.983 139.432 155.459 139.211 152.759C138.991 149.996 137.993 147.566 136.219 145.469L131.839 149.849L129.604 147.608L133.936 143.276C131.844 141.75 129.513 140.939 126.944 140.842C124.406 140.713 122.027 141.347 119.806 142.743L118.19 140.074C120.982 138.297 124.028 137.505 127.326 137.698C130.625 137.89 133.574 139.004 136.174 141.038L140.982 136.23C138.986 133.592 137.893 130.622 137.705 127.319C137.517 124.016 138.312 120.968 140.09 118.174L142.706 119.843C141.34 122.033 140.72 124.431 140.845 127.035C140.939 129.608 141.73 131.927 143.22 133.992L147.552 129.66L149.787 131.9L145.407 136.28Z" fill="white"/>
<path d="M287.867 45.1314L293.428 36.0335L298.96 39.1851L302.249 33.8083L307.746 36.8307L311.066 31.3074L320.365 36.4235L318.81 39.1915L312.188 35.5716L308.915 41.013L303.353 38.0079L300.064 43.3847L294.485 40.315L290.576 46.7568L287.867 45.1314ZM297.522 51.6043L303.036 54.6913L306.343 49.3791L311.823 52.3369L315.16 46.8781L324.459 51.9943L322.904 54.7623L316.264 51.0777L313.009 56.5838L307.447 53.5787L304.158 58.9555L298.561 55.8212L294.67 62.3276L291.96 60.7022L297.522 51.6043Z" fill="white"/>
<path d="M672.391 153.925L670.162 151.697L677.217 144.625L652.77 144.64L652.728 152.846L649.601 152.848L649.643 144.642L641.21 144.647L641.255 141.468L649.594 141.463L649.636 133.257L652.763 133.255L652.768 141.509L661.154 141.456L677.215 141.494L670.104 134.383L672.33 132.152L683.233 143.056L672.391 153.925Z" fill="white"/>
<path d="M736.563 327.365L738.192 324.629L740.9 326.181L740.605 325.081C740.073 323.097 740.328 321.198 741.371 319.385C742.413 317.573 743.948 316.39 745.976 315.836L745.958 315.771L754.389 313.539L767.268 310.023C769.21 309.493 770.364 308.877 770.732 308.174C771.142 307.46 771.249 306.737 771.053 306.003C770.821 305.14 770.34 304.554 769.609 304.244C768.878 303.934 767.585 304.033 765.729 304.539L751.944 308.303L742.884 310.777L742.069 307.735L751.129 305.261L764.979 301.48C766.92 300.95 768.075 300.334 768.442 299.631C768.853 298.917 768.96 298.194 768.764 297.46C768.532 296.597 768.051 296.011 767.32 295.701C766.589 295.392 765.295 295.49 763.44 295.996L749.59 299.778L740.595 302.234L739.78 299.192L748.84 296.718L762.69 292.937C765.581 292.148 766.887 291.235 766.61 290.2L769.652 289.369C770.033 290.793 769.799 291.992 768.948 292.965C770.379 293.639 771.331 294.861 771.805 296.63C772.314 298.528 772.048 300.129 771.008 301.431C772.569 302.07 773.597 303.317 774.094 305.173C774.407 306.338 774.398 307.428 774.068 308.444C773.738 309.46 773.119 310.347 772.211 311.104C771.185 311.94 769.809 312.593 768.083 313.065L755.187 316.516L746.773 318.813L746.791 318.878C745.626 319.196 744.722 319.883 744.078 320.938C743.478 321.982 743.334 323.086 743.647 324.251L743.924 325.286L745.487 322.567L748.277 324.167L744.014 331.582L736.563 327.365Z" fill="white"/>
<path d="M750.098 510.978L753.22 499.328L755.118 500.8C756.201 501.595 757.414 502.424 758.757 503.287C760.144 504.161 761.334 504.73 762.329 504.993C764.101 505.461 765.842 505.274 767.549 504.432C769.245 503.632 770.364 502.219 770.908 500.191C771.451 498.163 771.193 496.362 770.133 494.788C769.073 493.215 767.656 492.194 765.884 491.725C764.889 491.462 763.571 491.368 761.931 491.443C760.334 491.529 758.866 491.649 757.528 491.804L755.145 492.145L758.266 480.495L761.315 481.301L759.407 488.42C762.798 488.207 765.228 488.295 766.699 488.683C768.731 489.22 770.361 490.136 771.588 491.431C772.847 492.78 773.669 494.291 774.055 495.963C774.428 497.679 774.396 499.357 773.956 500.996C773.528 502.593 772.729 504.022 771.557 505.283C770.375 506.587 768.905 507.493 767.149 507.999C765.424 508.56 763.546 508.572 761.513 508.034C760.043 507.646 757.89 506.523 755.054 504.664L753.147 511.784L750.098 510.978ZM750.531 478.52L742.38 508.938L739.332 508.133L747.482 477.715L750.531 478.52Z" fill="white"/>
<path d="M647.264 671.517C645.743 669.992 644.443 668.149 643.366 665.989C642.258 663.86 641.466 661.636 640.992 659.318L638.23 662.079L635.996 659.838L639.328 656.506C639.709 656.125 640.137 655.792 640.613 655.506C640.52 653.505 640.759 651.648 641.331 649.933C641.903 648.218 642.808 646.742 644.045 645.504L646.28 647.745C644.757 649.268 643.915 651.475 643.754 654.365C644.896 654.239 646.022 654.35 647.132 654.7C648.242 655.114 649.209 655.734 650.033 656.56L650.081 656.513L656.215 662.662C658.751 665.268 661.889 668.446 665.629 672.196C667.087 673.658 668.213 674.373 669.006 674.342C669.831 674.342 670.513 674.073 671.052 673.533C671.687 672.898 671.941 672.168 671.815 671.342C671.72 670.548 671.007 669.484 669.676 668.149L659.501 657.948L652.844 651.274L655.081 649.036L661.738 655.71L671.914 665.911C673.372 667.373 674.497 668.089 675.29 668.057C676.115 668.058 676.797 667.788 677.337 667.249C677.971 666.614 678.226 665.884 678.099 665.058C678.005 664.264 677.292 663.199 675.96 661.865L665.785 651.663L659.128 644.99L661.366 642.752L668.023 649.426L678.198 659.627C680.353 661.788 681.812 662.488 682.574 661.726L684.809 663.966C683.793 664.982 682.603 665.378 681.239 665.155C681.397 666.775 680.841 668.22 679.571 669.489C678.207 670.854 676.668 671.409 674.955 671.154C675.208 672.869 674.652 674.409 673.287 675.774C672.43 676.63 671.478 677.17 670.431 677.391C669.384 677.613 668.306 677.517 667.196 677.104C665.959 676.626 664.691 675.736 663.392 674.433L660.491 671.526C660.332 672.573 659.824 673.526 658.967 674.383C657.062 676.287 655.127 676.762 653.161 675.808C651.164 674.886 649.198 673.456 647.264 671.517ZM647.796 658.798C647.289 658.289 646.686 657.908 645.988 657.653C645.291 657.462 644.609 657.414 643.943 657.509C644.258 659.733 644.907 661.877 645.889 663.942C646.871 666.07 648.075 667.849 649.502 669.28C651.594 671.377 653.163 672.537 654.21 672.76C655.225 673.015 656.065 672.809 656.732 672.142C657.589 671.286 657.669 670.19 656.972 668.856C656.275 667.585 655.292 666.314 654.025 665.043L653.929 664.947C651.996 662.945 649.967 660.879 647.843 658.75L647.796 658.798Z" fill="white"/>
<path d="M483.773 742.884C483.215 742.849 482.652 742.963 482.085 743.228C481.801 743.36 481.597 743.505 481.472 743.662L478.672 742.232C479.056 741.462 479.775 740.831 480.829 740.339C481.761 739.905 482.726 739.701 483.723 739.729C484.902 739.721 485.989 740.052 486.987 740.721C487.943 741.408 488.702 742.36 489.263 743.577C490.047 745.281 490.578 747.129 490.854 749.119C491.09 751.128 491.289 753.697 491.449 756.826C491.545 759.492 491.715 761.68 491.96 763.389C492.165 765.117 492.567 766.63 493.165 767.928C493.949 769.632 495.294 770.681 497.198 771.074C498.09 771.299 498.957 771.363 499.798 771.266C500.599 771.189 501.284 771.017 501.851 770.753C502.621 770.394 503.39 769.764 504.157 768.864C504.884 767.983 505.396 766.956 505.693 765.783C505.949 764.628 505.806 763.463 505.264 762.286C504.947 761.596 504.548 760.944 504.068 760.33C503.607 759.757 502.962 758.998 502.133 758.054C500.747 756.433 499.605 754.969 498.708 753.663C497.77 752.375 496.853 750.757 495.956 748.81C495.265 747.309 495.194 745.765 495.743 744.178C496.311 742.632 497.345 741.509 498.845 740.809C500.345 740.11 501.865 740.042 503.404 740.605C504.963 741.209 506.087 742.262 506.779 743.763C507.47 745.264 507.532 746.788 506.964 748.334C506.396 749.881 505.362 751.004 503.862 751.703C503.213 752.005 502.439 752.194 501.538 752.269C502.475 753.557 503.485 754.787 504.566 755.958C504.759 756.164 505.125 756.585 505.664 757.22C506.222 757.897 506.711 758.531 507.131 759.124C507.511 759.735 507.842 760.345 508.122 760.953C508.907 762.657 509.132 764.376 508.797 766.109C508.463 767.842 507.766 769.375 506.705 770.707C505.604 772.058 504.425 773.027 503.169 773.613C502.236 774.048 501.17 774.299 499.97 774.365C498.748 774.492 497.582 774.419 496.472 774.148C495.045 773.828 493.815 773.243 492.784 772.394C491.712 771.563 490.886 770.518 490.307 769.261C489.597 767.719 489.122 765.993 488.883 764.084C488.644 762.175 488.46 759.797 488.33 756.949C488.185 753.961 487.991 751.563 487.749 749.754C487.526 747.985 487.077 746.371 486.405 744.91C485.807 743.612 484.93 742.936 483.773 742.884ZM503.921 745.096C503.585 744.365 503.052 743.85 502.323 743.549C501.572 743.308 500.851 743.348 500.162 743.67C499.473 743.991 498.998 744.509 498.735 745.222C498.451 745.995 498.477 746.747 498.814 747.477C499.131 748.167 499.666 748.633 500.417 748.874C501.146 749.174 501.855 749.164 502.545 748.843C503.234 748.521 503.72 747.974 504.004 747.201C504.266 746.487 504.239 745.786 503.921 745.096Z" fill="white"/>
<path d="M316.557 748.424C317.598 748.145 318.643 748.144 319.691 748.42C320.74 748.696 321.623 749.226 322.341 750.009C323.091 750.737 323.603 751.621 323.878 752.662C323.97 753.009 324.037 753.525 324.078 754.21L324.048 754.358C324.013 758.268 322.867 761.756 320.611 764.822C318.355 767.888 315.34 769.927 311.566 770.938C308.182 771.845 304.882 771.753 301.668 770.664C298.421 769.63 295.73 767.797 293.595 765.165L297.044 764.241C298.809 765.997 300.914 767.197 303.361 767.842C305.776 768.542 308.241 768.555 310.758 767.88C312.84 767.322 314.629 766.356 316.123 764.98C317.575 763.616 318.739 761.957 319.616 760.004C318.011 760.434 316.496 760.236 315.07 759.411C313.644 758.585 312.719 757.37 312.295 755.766C311.871 754.161 312.074 752.644 312.904 751.214C313.734 749.784 314.951 748.854 316.557 748.424ZM318.194 745.129C316.43 743.373 314.34 742.145 311.925 741.445C309.478 740.8 306.997 740.815 304.481 741.489C302.398 742.047 300.626 742.987 299.163 744.307C297.668 745.683 296.482 747.348 295.604 749.301C297.21 748.871 298.725 749.069 300.151 749.894C301.589 750.763 302.519 751.999 302.943 753.604C303.367 755.209 303.164 756.726 302.334 758.156C301.504 759.586 300.287 760.516 298.682 760.946C297.64 761.225 296.595 761.226 295.547 760.95C294.498 760.674 293.615 760.144 292.897 759.361C292.159 758.677 291.646 757.792 291.36 756.708C291.234 756.231 291.173 755.736 291.177 755.224L291.16 755.159L291.19 755.012C291.226 751.101 292.371 747.613 294.627 744.548C296.84 741.493 299.855 739.455 303.673 738.432C307.057 737.525 310.372 737.589 313.618 738.623C316.833 739.712 319.508 741.573 321.643 744.205L318.194 745.129ZM320.82 753.481C320.717 753.091 320.488 752.665 320.133 752.202C319.758 751.839 319.32 751.585 318.817 751.441C318.326 751.34 317.842 751.354 317.364 751.482C316.627 751.679 316.067 752.108 315.684 752.768C315.269 753.483 315.158 754.209 315.353 754.946C315.548 755.683 315.996 756.237 316.698 756.606C317.367 757.03 318.071 757.144 318.808 756.946C319.416 756.783 319.912 756.465 320.298 755.99C320.683 755.515 320.883 754.951 320.896 754.297L320.82 753.481ZM299.885 754.424C299.679 753.643 299.241 753.041 298.571 752.616C297.869 752.247 297.15 752.161 296.412 752.359C295.817 752.565 295.326 752.905 294.94 753.38C294.566 753.898 294.367 754.463 294.342 755.073L294.312 755.22C294.303 755.362 294.338 755.585 294.418 755.888C294.544 756.365 294.789 756.764 295.153 757.085C295.484 757.46 295.901 757.72 296.404 757.864C296.906 758.008 297.396 758.016 297.874 757.888C298.611 757.691 299.187 757.234 299.602 756.519C299.986 755.86 300.08 755.161 299.885 754.424Z" fill="white"/>
<path d="M508.274 50.7388C509.873 51.1671 511.081 52.0921 511.9 53.5138C512.719 54.9356 512.911 56.4439 512.478 58.0388C512.045 59.6337 511.114 60.8411 509.687 61.6609C508.314 62.4491 506.822 62.6507 505.212 62.2655L505.148 62.2481C503.981 61.9356 502.856 61.4722 501.771 60.8579C500.694 62.0952 499.219 62.8329 497.346 63.0712C495.486 63.2663 493.539 63.1839 491.505 62.8238C489.482 62.4206 486.937 61.8081 483.87 60.9863L484.696 57.9473C488.929 59.0817 492.152 59.7601 494.362 59.9824C496.627 60.1733 498.246 59.844 499.219 58.9947C497.972 57.7821 497.142 56.4035 496.727 54.8588C496.356 53.3258 496.41 51.6755 496.89 49.9082L497.733 46.8046C498.046 45.8247 498.536 44.1062 499.203 41.6492C499.742 39.6663 499.891 38.1802 499.65 37.1907C499.452 36.2128 498.813 35.5792 497.733 35.2898C496.524 34.9657 495.543 35.1652 494.79 35.8884C494.037 36.6117 493.386 37.9863 492.835 40.0122L489.832 51.0689L486.786 50.2529L490.282 37.3857C490.68 35.9201 490.625 34.8418 490.118 34.1509C489.665 33.4285 488.553 32.83 486.782 32.3554L487.607 29.3164C488.817 29.6405 489.905 30.0708 490.872 30.6073C491.881 31.1553 492.652 31.9861 493.184 33.0997C494.694 31.9782 496.485 31.6952 498.559 32.2508C499.812 32.5865 500.804 33.1992 501.535 34.0889C502.267 34.9786 502.706 36.0906 502.854 37.4249C503.013 38.716 502.811 40.3962 502.249 42.4653C501.582 44.9223 501.092 46.6408 500.779 47.6206L499.936 50.7243C499.409 52.664 499.679 54.4011 500.745 55.9354C500.815 55.6767 500.846 55.477 500.838 55.3361L500.903 55.3534L500.944 54.9481C501.377 53.3532 502.307 52.1458 503.735 51.326C505.163 50.5062 506.676 50.3105 508.274 50.7388ZM503.989 55.7642C503.79 56.497 503.874 57.213 504.24 57.9123C504.661 58.5801 505.239 59.0124 505.973 59.2091C506.751 59.4175 507.469 59.3325 508.128 58.9541C508.799 58.5327 509.233 57.9555 509.433 57.2227C509.632 56.4899 509.521 55.7896 509.1 55.1219C508.733 54.4226 508.183 53.9746 507.449 53.7778C506.714 53.581 505.99 53.6875 505.276 54.0974C504.617 54.4758 504.188 55.0314 503.989 55.7642Z" fill="white"/>
<path d="M401.002 801.025C621.916 801.025 801.002 621.939 801.002 401.025C801.002 180.111 621.916 1.02539 401.002 1.02539C180.088 1.02539 1.00195 180.111 1.00195 401.025C1.00195 621.939 180.088 801.025 401.002 801.025Z" stroke="white"/>
<path d="M401.001 734.359C585.096 734.359 734.335 585.121 734.335 401.026C734.335 216.931 585.096 67.6924 401.001 67.6924C216.906 67.6924 67.668 216.931 67.668 401.026C67.668 585.121 216.906 734.359 401.001 734.359Z" stroke="white"/>
<path d="M401.003 717.692C575.893 717.692 717.669 575.915 717.669 401.025C717.669 226.135 575.893 84.3584 401.003 84.3584C226.112 84.3584 84.3359 226.135 84.3359 401.025C84.3359 575.915 226.112 717.692 401.003 717.692Z" stroke="white"/>
<path d="M401.002 526.025C470.038 526.025 526.002 470.061 526.002 401.025C526.002 331.99 470.038 276.025 401.002 276.025C331.966 276.025 276.002 331.99 276.002 401.025C276.002 470.061 331.966 526.025 401.002 526.025Z" stroke="white"/>
<path d="M401.003 442.692C424.014 442.692 442.669 424.037 442.669 401.025C442.669 378.013 424.014 359.358 401.003 359.358C377.991 359.358 359.336 378.013 359.336 401.025C359.336 424.037 377.991 442.692 401.003 442.692Z" stroke="white"/>
<path d="M1.00195 401.025H276.002" stroke="white"/>
<path d="M801.002 401.025H526.002" stroke="white"/>
<path d="M67.7207 395.208L84.3838 395.499" stroke="white" stroke-width="0.5"/>
<path d="M67.7207 406.843L84.3838 406.552" stroke="white" stroke-width="0.5"/>
<path d="M67.8711 389.393L84.5276 389.974" stroke="white" stroke-width="0.5"/>
<path d="M67.8711 412.658L84.5276 412.077" stroke="white" stroke-width="0.5"/>
<path d="M68.125 383.581L84.7688 384.453" stroke="white" stroke-width="0.5"/>
<path d="M68.125 418.47L84.7688 417.597" stroke="white" stroke-width="0.5"/>
<path d="M68.4785 377.773L85.1046 378.936" stroke="white" stroke-width="0.5"/>
<path d="M68.4785 424.277L85.1046 423.115" stroke="white" stroke-width="0.5"/>
<path d="M68.9375 371.975L85.5407 373.427" stroke="white" stroke-width="0.5"/>
<path d="M68.9375 430.076L85.5407 428.624" stroke="white" stroke-width="0.5"/>
<path d="M69.4941 366.184L86.0695 367.926" stroke="white"/>
<path d="M69.4941 435.867L86.0695 434.125" stroke="white"/>
<path d="M70.1523 360.402L86.6948 362.433" stroke="white" stroke-width="0.5"/>
<path d="M70.1523 441.648L86.6948 439.617" stroke="white" stroke-width="0.5"/>
<path d="M70.9141 354.634L87.4185 356.953" stroke="white" stroke-width="0.5"/>
<path d="M70.9141 447.417L87.4185 445.097" stroke="white" stroke-width="0.5"/>
<path d="M71.7734 348.88L88.2349 351.487" stroke="white" stroke-width="0.5"/>
<path d="M71.7734 453.171L88.2349 450.564" stroke="white" stroke-width="0.5"/>
<path d="M72.7344 343.143L89.1478 346.037" stroke="white" stroke-width="0.5"/>
<path d="M72.7344 458.908L89.1478 456.014" stroke="white" stroke-width="0.5"/>
<path d="M73.791 337.422L90.1515 340.602" stroke="white" stroke-width="0.5"/>
<path d="M73.791 464.629L90.1515 461.449" stroke="white" stroke-width="0.5"/>
<path d="M74.9531 331.722L91.2556 335.187" stroke="white"/>
<path d="M74.9531 470.329L91.2556 466.864" stroke="white"/>
<path d="M76.2129 326.042L92.4524 329.791" stroke="white" stroke-width="0.5"/>
<path d="M76.2129 476.009L92.4524 472.26" stroke="white" stroke-width="0.5"/>
<path d="M77.5703 320.384L93.7419 324.416" stroke="white" stroke-width="0.5"/>
<path d="M77.5703 481.667L93.7419 477.635" stroke="white" stroke-width="0.5"/>
<path d="M79.0254 314.753L95.1242 319.067" stroke="white" stroke-width="0.5"/>
<path d="M79.0254 487.298L95.1242 482.984" stroke="white" stroke-width="0.5"/>
<path d="M80.582 309.146L96.6031 313.739" stroke="white" stroke-width="0.5"/>
<path d="M80.582 492.905L96.6031 488.311" stroke="white" stroke-width="0.5"/>
<path d="M82.2324 303.567L98.1708 308.44" stroke="white" stroke-width="0.5"/>
<path d="M82.2324 498.483L98.1708 493.611" stroke="white" stroke-width="0.5"/>
<path d="M83.9844 298.02L99.8353 303.17" stroke="white"/>
<path d="M83.9844 504.031L99.8353 498.881" stroke="white"/>
<path d="M85.8301 292.503L101.589 297.929" stroke="white" stroke-width="0.5"/>
<path d="M85.8301 509.548L101.589 504.122" stroke="white" stroke-width="0.5"/>
<path d="M87.7695 287.019L103.431 292.719" stroke="white" stroke-width="0.5"/>
<path d="M87.7695 515.032L103.431 509.332" stroke="white" stroke-width="0.5"/>
<path d="M89.8066 281.569L105.366 287.542" stroke="white" stroke-width="0.5"/>
<path d="M89.8066 520.481L105.366 514.509" stroke="white" stroke-width="0.5"/>
<path d="M91.9395 276.157L107.393 282.401" stroke="white" stroke-width="0.5"/>
<path d="M91.9395 525.894L107.393 519.65" stroke="white" stroke-width="0.5"/>
<path d="M94.166 270.781L109.508 277.293" stroke="white" stroke-width="0.5"/>
<path d="M94.166 531.27L109.508 524.757" stroke="white" stroke-width="0.5"/>
<path d="M96.4863 265.446L111.712 272.225" stroke="white"/>
<path d="M96.4863 536.604L111.712 529.826" stroke="white"/>
<path d="M98.8984 260.153L114.004 267.197" stroke="white" stroke-width="0.5"/>
<path d="M98.8984 541.897L114.004 534.854" stroke="white" stroke-width="0.5"/>
<path d="M101.402 254.902L116.382 262.209" stroke="white" stroke-width="0.5"/>
<path d="M101.402 547.148L116.382 539.842" stroke="white" stroke-width="0.5"/>
<path d="M104 249.695L118.85 257.262" stroke="white" stroke-width="0.5"/>
<path d="M104 552.355L118.85 544.789" stroke="white" stroke-width="0.5"/>
<path d="M106.686 244.534L121.401 252.359" stroke="white" stroke-width="0.5"/>
<path d="M106.686 557.517L121.401 549.692" stroke="white" stroke-width="0.5"/>
<path d="M109.463 239.422L124.04 247.502" stroke="white" stroke-width="0.5"/>
<path d="M109.463 562.629L124.04 554.549" stroke="white" stroke-width="0.5"/>
<path d="M54.5918 201.025L292.749 338.525" stroke="white"/>
<path d="M54.5918 601.025L292.749 463.525" stroke="white"/>
<path d="M115.279 229.346L129.565 237.93" stroke="white" stroke-width="0.5"/>
<path d="M115.279 572.705L129.565 564.121" stroke="white" stroke-width="0.5"/>
<path d="M118.32 224.387L132.454 233.219" stroke="white" stroke-width="0.5"/>
<path d="M118.32 577.664L132.454 568.832" stroke="white" stroke-width="0.5"/>
<path d="M121.445 219.479L135.423 228.557" stroke="white" stroke-width="0.5"/>
<path d="M121.445 582.571L135.423 573.494" stroke="white" stroke-width="0.5"/>
<path d="M124.658 214.627L138.475 223.947" stroke="white" stroke-width="0.5"/>
<path d="M124.658 587.424L138.475 578.104" stroke="white" stroke-width="0.5"/>
<path d="M127.951 209.834L141.604 219.394" stroke="white" stroke-width="0.5"/>
<path d="M127.951 592.217L141.604 582.657" stroke="white" stroke-width="0.5"/>
<path d="M131.33 205.098L144.814 214.894" stroke="white"/>
<path d="M131.33 596.953L144.814 587.157" stroke="white"/>
<path d="M134.791 200.42L148.102 210.45" stroke="white" stroke-width="0.5"/>
<path d="M134.791 601.631L148.102 591.601" stroke="white" stroke-width="0.5"/>
<path d="M138.332 195.806L151.466 206.067" stroke="white" stroke-width="0.5"/>
<path d="M138.332 606.245L151.466 595.984" stroke="white" stroke-width="0.5"/>
<path d="M141.953 191.252L154.906 201.741" stroke="white" stroke-width="0.5"/>
<path d="M141.953 610.799L154.906 600.31" stroke="white" stroke-width="0.5"/>
<path d="M145.654 186.763L158.422 197.476" stroke="white" stroke-width="0.5"/>
<path d="M145.654 615.288L158.422 604.575" stroke="white" stroke-width="0.5"/>
<path d="M149.434 182.339L162.012 193.273" stroke="white" stroke-width="0.5"/>
<path d="M149.434 619.712L162.012 608.778" stroke="white" stroke-width="0.5"/>
<path d="M153.287 177.981L165.673 189.134" stroke="white"/>
<path d="M153.287 624.069L165.673 612.917" stroke="white"/>
<path d="M157.217 173.693L169.406 185.06" stroke="white" stroke-width="0.5"/>
<path d="M157.217 628.357L169.406 616.991" stroke="white" stroke-width="0.5"/>
<path d="M161.223 169.473L173.212 181.05" stroke="white" stroke-width="0.5"/>
<path d="M161.223 632.578L173.212 621" stroke="white" stroke-width="0.5"/>
<path d="M165.299 165.324L177.084 177.109" stroke="white" stroke-width="0.5"/>
<path d="M165.299 636.729L177.084 624.943" stroke="white" stroke-width="0.5"/>
<path d="M169.449 161.245L181.027 173.234" stroke="white" stroke-width="0.5"/>
<path d="M169.449 640.806L181.027 628.817" stroke="white" stroke-width="0.5"/>
<path d="M173.668 157.241L185.035 169.43" stroke="white" stroke-width="0.5"/>
<path d="M173.668 644.81L185.035 632.62" stroke="white" stroke-width="0.5"/>
<path d="M177.959 153.311L189.111 165.696" stroke="white"/>
<path d="M177.959 648.74L189.111 636.354" stroke="white"/>
<path d="M182.316 149.455L193.251 162.034" stroke="white" stroke-width="0.5"/>
<path d="M182.316 652.596L193.251 640.017" stroke="white" stroke-width="0.5"/>
<path d="M186.74 145.677L197.453 158.444" stroke="white" stroke-width="0.5"/>
<path d="M186.74 656.374L197.453 643.607" stroke="white" stroke-width="0.5"/>
<path d="M191.23 141.978L201.719 154.93" stroke="white" stroke-width="0.5"/>
<path d="M191.23 660.073L201.719 647.121" stroke="white" stroke-width="0.5"/>
<path d="M195.781 138.354L206.042 151.488" stroke="white" stroke-width="0.5"/>
<path d="M195.781 663.696L206.042 650.563" stroke="white" stroke-width="0.5"/>
<path d="M200.396 134.812L210.427 148.123" stroke="white" stroke-width="0.5"/>
<path d="M200.396 667.238L210.427 653.928" stroke="white" stroke-width="0.5"/>
<path d="M205.074 131.353L214.871 144.836" stroke="white"/>
<path d="M205.074 670.698L214.871 657.215" stroke="white"/>
<path d="M209.811 127.976L219.37 141.628" stroke="white" stroke-width="0.5"/>
<path d="M209.811 674.075L219.37 660.423" stroke="white" stroke-width="0.5"/>
<path d="M214.605 124.68L223.925 138.497" stroke="white" stroke-width="0.5"/>
<path d="M214.605 677.371L223.925 663.554" stroke="white" stroke-width="0.5"/>
<path d="M219.455 121.468L228.532 135.446" stroke="white" stroke-width="0.5"/>
<path d="M219.455 680.583L228.532 666.605" stroke="white" stroke-width="0.5"/>
<path d="M224.361 118.343L233.193 132.477" stroke="white" stroke-width="0.5"/>
<path d="M224.361 683.708L233.193 669.574" stroke="white" stroke-width="0.5"/>
<path d="M229.322 115.303L237.906 129.589" stroke="white" stroke-width="0.5"/>
<path d="M229.322 686.748L237.906 672.462" stroke="white" stroke-width="0.5"/>
<path d="M201.002 54.6162L338.502 292.773" stroke="white"/>
<path d="M201.002 747.435L338.502 509.278" stroke="white"/>
<path d="M239.396 109.485L247.477 124.062" stroke="white" stroke-width="0.5"/>
<path d="M239.396 692.565L247.477 677.988" stroke="white" stroke-width="0.5"/>
<path d="M244.512 106.709L252.336 121.425" stroke="white" stroke-width="0.5"/>
<path d="M244.512 695.342L252.336 680.626" stroke="white" stroke-width="0.5"/>
<path d="M249.67 104.023L257.236 118.874" stroke="white" stroke-width="0.5"/>
<path d="M249.67 698.027L257.236 683.177" stroke="white" stroke-width="0.5"/>
<path d="M254.879 101.428L262.185 116.408" stroke="white" stroke-width="0.5"/>
<path d="M254.879 700.623L262.185 685.643" stroke="white" stroke-width="0.5"/>
<path d="M260.129 98.9229L267.173 114.028" stroke="white" stroke-width="0.5"/>
<path d="M260.129 703.128L267.173 688.023" stroke="white" stroke-width="0.5"/>
<path d="M265.422 96.5107L272.201 111.736" stroke="white"/>
<path d="M265.422 705.54L272.201 690.314" stroke="white"/>
<path d="M270.758 94.1914L277.27 109.533" stroke="white" stroke-width="0.5"/>
<path d="M270.758 707.859L277.27 692.518" stroke="white" stroke-width="0.5"/>
<path d="M276.133 91.9648L282.376 107.418" stroke="white" stroke-width="0.5"/>
<path d="M276.133 710.086L282.376 694.633" stroke="white" stroke-width="0.5"/>
<path d="M281.545 89.832L287.518 105.392" stroke="white" stroke-width="0.5"/>
<path d="M281.545 712.219L287.518 696.659" stroke="white" stroke-width="0.5"/>
<path d="M286.994 87.7949L292.694 103.456" stroke="white" stroke-width="0.5"/>
<path d="M286.994 714.256L292.694 698.594" stroke="white" stroke-width="0.5"/>
<path d="M292.48 85.8525L297.907 101.611" stroke="white" stroke-width="0.5"/>
<path d="M292.48 716.198L297.907 700.44" stroke="white" stroke-width="0.5"/>
<path d="M297.998 84.0068L303.148 99.8578" stroke="white"/>
<path d="M297.998 718.044L303.148 702.193" stroke="white"/>
<path d="M303.545 82.2578L308.418 98.1962" stroke="white" stroke-width="0.5"/>
<path d="M303.545 719.793L308.418 703.855" stroke="white" stroke-width="0.5"/>
<path d="M309.123 80.6055L313.717 96.6265" stroke="white" stroke-width="0.5"/>
<path d="M309.123 721.445L313.717 705.424" stroke="white" stroke-width="0.5"/>
<path d="M314.729 79.0498L319.042 95.1486" stroke="white" stroke-width="0.5"/>
<path d="M314.729 723.001L319.042 706.902" stroke="white" stroke-width="0.5"/>
<path d="M320.361 77.5928L324.393 93.7644" stroke="white" stroke-width="0.5"/>
<path d="M320.361 724.458L324.393 708.286" stroke="white" stroke-width="0.5"/>
<path d="M326.018 76.2354L329.767 92.4749" stroke="white" stroke-width="0.5"/>
<path d="M326.018 725.815L329.767 709.576" stroke="white" stroke-width="0.5"/>
<path d="M331.699 74.9756L335.164 91.278" stroke="white"/>
<path d="M331.699 727.075L335.164 710.773" stroke="white"/>
<path d="M337.398 73.8164L340.579 90.1769" stroke="white" stroke-width="0.5"/>
<path d="M337.398 728.234L340.579 711.874" stroke="white" stroke-width="0.5"/>
<path d="M343.117 72.7559L346.011 89.1693" stroke="white" stroke-width="0.5"/>
<path d="M343.117 729.295L346.011 712.881" stroke="white" stroke-width="0.5"/>
<path d="M348.857 71.7949L351.465 88.2564" stroke="white" stroke-width="0.5"/>
<path d="M348.857 730.256L351.465 713.794" stroke="white" stroke-width="0.5"/>
<path d="M354.611 70.9355L356.931 87.44" stroke="white" stroke-width="0.5"/>
<path d="M354.611 731.115L356.931 714.611" stroke="white" stroke-width="0.5"/>
<path d="M360.381 70.1777L362.412 86.7202" stroke="white" stroke-width="0.5"/>
<path d="M360.381 731.873L362.412 715.331" stroke="white" stroke-width="0.5"/>
<path d="M366.158 69.5186L367.9 86.0939" stroke="white"/>
<path d="M366.158 732.532L367.9 715.957" stroke="white"/>
<path d="M371.949 68.96L373.402 85.5632" stroke="white" stroke-width="0.5"/>
<path d="M371.949 733.091L373.402 716.488" stroke="white" stroke-width="0.5"/>
<path d="M377.75 68.5039L378.913 85.13" stroke="white" stroke-width="0.5"/>
<path d="M377.75 733.547L378.913 716.921" stroke="white" stroke-width="0.5"/>
<path d="M383.557 68.1494L384.429 84.7932" stroke="white" stroke-width="0.5"/>
<path d="M383.557 733.901L384.429 717.258" stroke="white" stroke-width="0.5"/>
<path d="M389.367 67.8955L389.949 84.552" stroke="white" stroke-width="0.5"/>
<path d="M389.367 734.155L389.949 717.499" stroke="white" stroke-width="0.5"/>
<path d="M395.186 67.7422L395.476 84.4046" stroke="white" stroke-width="0.5"/>
<path d="M395.186 734.309L395.476 717.646" stroke="white" stroke-width="0.5"/>
<path d="M401.002 1.02539V276.025" stroke="white"/>
<path d="M401.002 801.025V526.025" stroke="white"/>
<path d="M406.818 67.7422L406.528 84.4046" stroke="white" stroke-width="0.5"/>
<path d="M406.818 734.309L406.528 717.646" stroke="white" stroke-width="0.5"/>
<path d="M412.637 67.8955L412.055 84.552" stroke="white" stroke-width="0.5"/>
<path d="M412.637 734.155L412.055 717.499" stroke="white" stroke-width="0.5"/>
<path d="M418.447 68.1494L417.575 84.7932" stroke="white" stroke-width="0.5"/>
<path d="M418.447 733.901L417.575 717.258" stroke="white" stroke-width="0.5"/>
<path d="M424.254 68.5039L423.091 85.13" stroke="white" stroke-width="0.5"/>
<path d="M424.254 733.547L423.091 716.921" stroke="white" stroke-width="0.5"/>
<path d="M430.055 68.96L428.602 85.5632" stroke="white" stroke-width="0.5"/>
<path d="M430.055 733.091L428.602 716.488" stroke="white" stroke-width="0.5"/>
<path d="M435.846 69.5186L434.104 86.0939" stroke="white"/>
<path d="M435.846 732.532L434.104 715.957" stroke="white"/>
<path d="M441.623 70.1777L439.592 86.7202" stroke="white" stroke-width="0.5"/>
<path d="M441.623 731.873L439.592 715.331" stroke="white" stroke-width="0.5"/>
<path d="M447.393 70.9355L445.073 87.44" stroke="white" stroke-width="0.5"/>
<path d="M447.393 731.115L445.073 714.611" stroke="white" stroke-width="0.5"/>
<path d="M453.146 71.7949L450.539 88.2564" stroke="white" stroke-width="0.5"/>
<path d="M453.146 730.256L450.539 713.794" stroke="white" stroke-width="0.5"/>
<path d="M458.887 72.7559L455.993 89.1693" stroke="white" stroke-width="0.5"/>
<path d="M458.887 729.295L455.993 712.881" stroke="white" stroke-width="0.5"/>
<path d="M464.605 73.8164L461.425 90.1769" stroke="white" stroke-width="0.5"/>
<path d="M464.605 728.234L461.425 711.874" stroke="white" stroke-width="0.5"/>
<path d="M470.305 74.9756L466.839 91.278" stroke="white"/>
<path d="M470.305 727.075L466.839 710.773" stroke="white"/>
<path d="M475.986 76.2354L472.237 92.4749" stroke="white" stroke-width="0.5"/>
<path d="M475.986 725.815L472.237 709.576" stroke="white" stroke-width="0.5"/>
<path d="M481.643 77.5928L477.611 93.7644" stroke="white" stroke-width="0.5"/>
<path d="M481.643 724.458L477.611 708.286" stroke="white" stroke-width="0.5"/>
<path d="M487.275 79.0498L482.962 95.1486" stroke="white" stroke-width="0.5"/>
<path d="M487.275 723.001L482.962 706.902" stroke="white" stroke-width="0.5"/>
<path d="M492.881 80.6055L488.287 96.6265" stroke="white" stroke-width="0.5"/>
<path d="M492.881 721.445L488.287 705.424" stroke="white" stroke-width="0.5"/>
<path d="M498.459 82.2578L493.586 98.1962" stroke="white" stroke-width="0.5"/>
<path d="M498.459 719.793L493.586 703.855" stroke="white" stroke-width="0.5"/>
<path d="M504.006 84.0068L498.856 99.8578" stroke="white"/>
<path d="M504.006 718.044L498.856 702.193" stroke="white"/>
<path d="M509.523 85.8525L504.097 101.611" stroke="white" stroke-width="0.5"/>
<path d="M509.523 716.198L504.097 700.44" stroke="white" stroke-width="0.5"/>
<path d="M515.01 87.7949L509.309 103.456" stroke="white" stroke-width="0.5"/>
<path d="M515.01 714.256L509.309 698.594" stroke="white" stroke-width="0.5"/>
<path d="M520.459 89.832L514.486 105.392" stroke="white" stroke-width="0.5"/>
<path d="M520.459 712.219L514.486 696.659" stroke="white" stroke-width="0.5"/>
<path d="M525.871 91.9648L519.628 107.418" stroke="white" stroke-width="0.5"/>
<path d="M525.871 710.086L519.628 694.633" stroke="white" stroke-width="0.5"/>
<path d="M531.246 94.1914L524.734 109.533" stroke="white" stroke-width="0.5"/>
<path d="M531.246 707.859L524.734 692.518" stroke="white" stroke-width="0.5"/>
<path d="M536.582 96.5107L529.803 111.736" stroke="white"/>
<path d="M536.582 705.54L529.803 690.314" stroke="white"/>
<path d="M541.875 98.9229L534.831 114.028" stroke="white" stroke-width="0.5"/>
<path d="M541.875 703.128L534.831 688.023" stroke="white" stroke-width="0.5"/>
<path d="M547.125 101.428L539.819 116.408" stroke="white" stroke-width="0.5"/>
<path d="M547.125 700.623L539.819 685.643" stroke="white" stroke-width="0.5"/>
<path d="M552.334 104.023L544.767 118.874" stroke="white" stroke-width="0.5"/>
<path d="M552.334 698.027L544.767 683.177" stroke="white" stroke-width="0.5"/>
<path d="M557.492 106.709L549.668 121.425" stroke="white" stroke-width="0.5"/>
<path d="M557.492 695.342L549.668 680.626" stroke="white" stroke-width="0.5"/>
<path d="M562.607 109.485L554.527 124.062" stroke="white" stroke-width="0.5"/>
<path d="M562.607 692.565L554.527 677.988" stroke="white" stroke-width="0.5"/>
<path d="M601.002 54.6162L463.502 292.773" stroke="white"/>
<path d="M601.002 747.435L463.502 509.278" stroke="white"/>
<path d="M572.682 115.303L564.098 129.589" stroke="white" stroke-width="0.5"/>
<path d="M572.682 686.748L564.098 672.462" stroke="white" stroke-width="0.5"/>
<path d="M577.643 118.343L568.811 132.477" stroke="white" stroke-width="0.5"/>
<path d="M577.643 683.708L568.811 669.574" stroke="white" stroke-width="0.5"/>
<path d="M582.549 121.468L573.472 135.446" stroke="white" stroke-width="0.5"/>
<path d="M582.549 680.583L573.472 666.605" stroke="white" stroke-width="0.5"/>
<path d="M587.398 124.68L578.079 138.497" stroke="white" stroke-width="0.5"/>
<path d="M587.398 677.371L578.079 663.554" stroke="white" stroke-width="0.5"/>
<path d="M592.193 127.976L582.634 141.628" stroke="white" stroke-width="0.5"/>
<path d="M592.193 674.075L582.634 660.423" stroke="white" stroke-width="0.5"/>
<path d="M596.93 131.353L587.133 144.836" stroke="white"/>
<path d="M596.93 670.698L587.133 657.215" stroke="white"/>
<path d="M601.607 134.812L591.577 148.123" stroke="white" stroke-width="0.5"/>
<path d="M601.607 667.238L591.577 653.928" stroke="white" stroke-width="0.5"/>
<path d="M606.223 138.354L595.962 151.488" stroke="white" stroke-width="0.5"/>
<path d="M606.223 663.696L595.962 650.563" stroke="white" stroke-width="0.5"/>
<path d="M610.773 141.978L600.285 154.93" stroke="white" stroke-width="0.5"/>
<path d="M610.773 660.073L600.285 647.121" stroke="white" stroke-width="0.5"/>
<path d="M615.264 145.677L604.551 158.444" stroke="white" stroke-width="0.5"/>
<path d="M615.264 656.374L604.551 643.607" stroke="white" stroke-width="0.5"/>
<path d="M619.688 149.455L608.753 162.034" stroke="white" stroke-width="0.5"/>
<path d="M619.688 652.596L608.753 640.017" stroke="white" stroke-width="0.5"/>
<path d="M624.045 153.311L612.893 165.696" stroke="white"/>
<path d="M624.045 648.74L612.893 636.354" stroke="white"/>
<path d="M628.336 157.241L616.969 169.43" stroke="white" stroke-width="0.5"/>
<path d="M628.336 644.81L616.969 632.62" stroke="white" stroke-width="0.5"/>
<path d="M632.555 161.245L620.977 173.234" stroke="white" stroke-width="0.5"/>
<path d="M632.555 640.806L620.977 628.817" stroke="white" stroke-width="0.5"/>
<path d="M636.705 165.324L624.92 177.109" stroke="white" stroke-width="0.5"/>
<path d="M636.705 636.729L624.92 624.943" stroke="white" stroke-width="0.5"/>
<path d="M640.781 169.473L628.792 181.05" stroke="white" stroke-width="0.5"/>
<path d="M640.781 632.578L628.792 621" stroke="white" stroke-width="0.5"/>
<path d="M644.787 173.693L632.598 185.06" stroke="white" stroke-width="0.5"/>
<path d="M644.787 628.357L632.598 616.991" stroke="white" stroke-width="0.5"/>
<path d="M648.717 177.981L636.331 189.134" stroke="white"/>
<path d="M648.717 624.069L636.331 612.917" stroke="white"/>
<path d="M652.57 182.339L639.992 193.273" stroke="white" stroke-width="0.5"/>
<path d="M652.57 619.712L639.992 608.778" stroke="white" stroke-width="0.5"/>
<path d="M656.35 186.763L643.582 197.476" stroke="white" stroke-width="0.5"/>
<path d="M656.35 615.288L643.582 604.575" stroke="white" stroke-width="0.5"/>
<path d="M660.051 191.252L647.098 201.741" stroke="white" stroke-width="0.5"/>
<path d="M660.051 610.799L647.098 600.31" stroke="white" stroke-width="0.5"/>
<path d="M663.672 195.806L650.538 206.067" stroke="white" stroke-width="0.5"/>
<path d="M663.672 606.245L650.538 595.984" stroke="white" stroke-width="0.5"/>
<path d="M667.213 200.42L653.902 210.45" stroke="white" stroke-width="0.5"/>
<path d="M667.213 601.631L653.902 591.601" stroke="white" stroke-width="0.5"/>
<path d="M670.674 205.098L657.19 214.894" stroke="white"/>
<path d="M670.674 596.953L657.19 587.157" stroke="white"/>
<path d="M674.053 209.834L660.4 219.394" stroke="white" stroke-width="0.5"/>
<path d="M674.053 592.217L660.4 582.657" stroke="white" stroke-width="0.5"/>
<path d="M677.346 214.627L663.528 223.947" stroke="white" stroke-width="0.5"/>
<path d="M677.346 587.424L663.528 578.104" stroke="white" stroke-width="0.5"/>
<path d="M680.559 219.479L666.581 228.557" stroke="white" stroke-width="0.5"/>
<path d="M680.559 582.571L666.581 573.494" stroke="white" stroke-width="0.5"/>
<path d="M683.684 224.387L669.549 233.219" stroke="white" stroke-width="0.5"/>
<path d="M683.684 577.664L669.549 568.832" stroke="white" stroke-width="0.5"/>
<path d="M686.725 229.346L672.438 237.93" stroke="white" stroke-width="0.5"/>
<path d="M686.725 572.705L672.438 564.121" stroke="white" stroke-width="0.5"/>
<path d="M747.412 201.025L509.255 338.525" stroke="white"/>
<path d="M747.412 601.025L509.255 463.525" stroke="white"/>
<path d="M692.541 239.422L677.964 247.502" stroke="white" stroke-width="0.5"/>
<path d="M692.541 562.629L677.964 554.549" stroke="white" stroke-width="0.5"/>
<path d="M695.318 244.534L680.603 252.359" stroke="white" stroke-width="0.5"/>
<path d="M695.318 557.517L680.603 549.692" stroke="white" stroke-width="0.5"/>
<path d="M698.004 249.695L683.154 257.262" stroke="white" stroke-width="0.5"/>
<path d="M698.004 552.355L683.154 544.789" stroke="white" stroke-width="0.5"/>
<path d="M700.598 254.902L685.618 262.209" stroke="white" stroke-width="0.5"/>
<path d="M700.598 547.148L685.618 539.842" stroke="white" stroke-width="0.5"/>
<path d="M703.105 260.153L688 267.197" stroke="white" stroke-width="0.5"/>
<path d="M703.105 541.897L688 534.854" stroke="white" stroke-width="0.5"/>
<path d="M705.518 265.446L690.292 272.225" stroke="white"/>
<path d="M705.518 536.604L690.292 529.826" stroke="white"/>
<path d="M707.838 270.781L692.496 277.293" stroke="white" stroke-width="0.5"/>
<path d="M707.838 531.27L692.496 524.757" stroke="white" stroke-width="0.5"/>
<path d="M710.064 276.157L694.611 282.401" stroke="white" stroke-width="0.5"/>
<path d="M710.064 525.894L694.611 519.65" stroke="white" stroke-width="0.5"/>
<path d="M712.197 281.569L696.638 287.542" stroke="white" stroke-width="0.5"/>
<path d="M712.197 520.481L696.638 514.509" stroke="white" stroke-width="0.5"/>
<path d="M714.234 287.019L698.573 292.719" stroke="white" stroke-width="0.5"/>
<path d="M714.234 515.032L698.573 509.332" stroke="white" stroke-width="0.5"/>
<path d="M716.174 292.503L700.415 297.929" stroke="white" stroke-width="0.5"/>
<path d="M716.174 509.548L700.415 504.122" stroke="white" stroke-width="0.5"/>
<path d="M718.02 298.02L702.169 303.17" stroke="white"/>
<path d="M718.02 504.031L702.169 498.881" stroke="white"/>
<path d="M719.771 303.567L703.833 308.44" stroke="white" stroke-width="0.5"/>
<path d="M719.771 498.483L703.833 493.611" stroke="white" stroke-width="0.5"/>
<path d="M721.422 309.146L705.401 313.739" stroke="white" stroke-width="0.5"/>
<path d="M721.422 492.905L705.401 488.311" stroke="white" stroke-width="0.5"/>
<path d="M722.979 314.753L706.88 319.067" stroke="white" stroke-width="0.5"/>
<path d="M722.979 487.298L706.88 482.984" stroke="white" stroke-width="0.5"/>
<path d="M724.434 320.384L708.262 324.416" stroke="white" stroke-width="0.5"/>
<path d="M724.434 481.667L708.262 477.635" stroke="white" stroke-width="0.5"/>
<path d="M725.793 326.042L709.553 329.791" stroke="white" stroke-width="0.5"/>
<path d="M725.793 476.009L709.553 472.26" stroke="white" stroke-width="0.5"/>
<path d="M727.051 331.722L710.748 335.187" stroke="white"/>
<path d="M727.051 470.329L710.748 466.864" stroke="white"/>
<path d="M728.213 337.422L711.852 340.602" stroke="white" stroke-width="0.5"/>
<path d="M728.213 464.629L711.852 461.449" stroke="white" stroke-width="0.5"/>
<path d="M729.27 343.143L712.856 346.037" stroke="white" stroke-width="0.5"/>
<path d="M729.27 458.908L712.856 456.014" stroke="white" stroke-width="0.5"/>
<path d="M730.23 348.88L713.769 351.487" stroke="white" stroke-width="0.5"/>
<path d="M730.23 453.171L713.769 450.564" stroke="white" stroke-width="0.5"/>
<path d="M731.09 354.634L714.585 356.953" stroke="white" stroke-width="0.5"/>
<path d="M731.09 447.417L714.585 445.097" stroke="white" stroke-width="0.5"/>
<path d="M731.852 360.402L715.309 362.433" stroke="white" stroke-width="0.5"/>
<path d="M731.852 441.648L715.309 439.617" stroke="white" stroke-width="0.5"/>
<path d="M732.51 366.184L715.934 367.926" stroke="white"/>
<path d="M732.51 435.867L715.934 434.125" stroke="white"/>
<path d="M733.066 371.975L716.463 373.427" stroke="white" stroke-width="0.5"/>
<path d="M733.066 430.076L716.463 428.624" stroke="white" stroke-width="0.5"/>
<path d="M733.525 377.773L716.899 378.936" stroke="white" stroke-width="0.5"/>
<path d="M733.525 424.277L716.899 423.115" stroke="white" stroke-width="0.5"/>
<path d="M733.879 383.581L717.235 384.453" stroke="white" stroke-width="0.5"/>
<path d="M733.879 418.47L717.235 417.597" stroke="white" stroke-width="0.5"/>
<path d="M734.133 389.393L717.476 389.974" stroke="white" stroke-width="0.5"/>
<path d="M734.133 412.658L717.476 412.077" stroke="white" stroke-width="0.5"/>
<path d="M734.283 395.208L717.62 395.499" stroke="white" stroke-width="0.5"/>
<path d="M734.283 406.843L717.62 406.552" stroke="white" stroke-width="0.5"/>
</svg>
