<svg xmlns="http://www.w3.org/2000/svg" width="494" height="494" fill="none"><g fill="#fff" opacity=".75"><path d="M129.899 360.068q-.669-1.489-.733-2.936t.539-2.611l1.293.604q-.71 1.446-.151 3.389.539 1.965 2.113 3.54 1.573 1.577 3.557 2.138 1.94.562 3.363-.173l.625 1.317q-1.186.583-2.63.518t-2.911-.713l-5.67 5.677q.668 1.446.733 2.893.043 1.467-.54 2.655l-1.293-.648q.711-1.403.173-3.367-.582-1.965-2.156-3.541-1.573-1.575-3.514-2.137-1.94-.561-3.384.151l-.625-1.274q1.164-.605 2.651-.539 1.444.065 2.889.734zm3.75 4.361a10.3 10.3 0 0 1-1.703-1.36 9.6 9.6 0 0 1-1.336-1.684l-5.067 5.072a9.6 9.6 0 0 1 1.682 1.339q.732.734 1.358 1.705zM78.352 285.504a7.7 7.7 0 0 1 3.769.875 7.8 7.8 0 0 1 2.838 2.485 4.5 4.5 0 0 1 1.174-1.644 4.2 4.2 0 0 1 1.769-.952 4.37 4.37 0 0 1 2.336 0 4.37 4.37 0 0 1 1.977 1.139 4.36 4.36 0 0 1 1.13 2q.305 1.149.011 2.302a4.7 4.7 0 0 1-1.139 2.013 4.6 4.6 0 0 1-2.032 1.15 4.3 4.3 0 0 1-2.003.068 4.8 4.8 0 0 1-1.839-.861 7.9 7.9 0 0 1-1.22 3.615 8 8 0 0 1-2.838 2.63l-.684-1.267a6.28 6.28 0 0 0 2.84-3.105q.87-2.067.3-4.218t-2.342-3.472a6.3 6.3 0 0 0-4.012-1.315zm11.466 7.983a2.93 2.93 0 0 0 1.835-1.412q.628-1.086.307-2.294a2.9 2.9 0 0 0-1.401-1.831 2.9 2.9 0 0 0-2.29-.297 2.93 2.93 0 0 0-1.835 1.412 2.92 2.92 0 0 0-.308 2.294q.314 1.179 1.402 1.831 1.081.624 2.29.297M81.208 197.763q.27-1 1.198-1.511a2.42 2.42 0 0 1 1.902-.251q.737.196 1.224.736.457.531.594 1.199.144.637.009 1.138l-1.387-.369q.064-.235-.099-.689-.183-.49-.715-.631a1.1 1.1 0 0 0-.816.098q-.396.178-.523.649-.152.56.89 1.625 1.019 1.029 3.41 2.359a41 41 0 0 0 3.82 1.899q2.007.88 3.222 1.299l-.365 1.354q-1.263-.241-3.445-.475a42 42 0 0 0-4.264-.251q-2.741-.035-4.15.38-1.429.376-1.58.936-.126.471.118.851.254.352.666.462.532.14.93-.163.376-.342.44-.577l1.386.368q-.135.501-.588 1.011a2.7 2.7 0 0 1-1.11.715q-.693.225-1.43.029a2.4 2.4 0 0 1-1.521-1.162 2.35 2.35 0 0 1-.277-1.903q.333-1.236 2.1-1.808 1.745-.608 5.027-.587.726.005 2.747.132-1.814-.893-2.445-1.25-2.854-1.611-4.067-2.975-1.234-1.4-.901-2.638M132.206 128.523a5.95 5.95 0 0 0 3.298 1.36 5.63 5.63 0 0 0 3.449-.863l.755 1.231q-2.026 1.252-4.377 1.057-2.328-.216-4.139-1.77l-2.134 2.136q1.574 1.792 1.767 4.145a7.04 7.04 0 0 1-1.035 4.36l-1.229-.755q.992-1.597.841-3.432a5.7 5.7 0 0 0-1.358-3.303l-1.983 1.986-1.013-1.015 1.962-1.964a5.62 5.62 0 0 0-3.169-1.101q-1.725-.087-3.234.863l-.733-1.209a6.8 6.8 0 0 1 4.139-1.079 7.02 7.02 0 0 1 4.01 1.511l2.178-2.18a7.23 7.23 0 0 1-1.488-4.036 6.8 6.8 0 0 1 1.079-4.145l1.185.756a5.52 5.52 0 0 0-.841 3.259 5.63 5.63 0 0 0 1.078 3.152l1.962-1.964 1.013 1.014zM195.326 87.242l2.481-4.146 2.52 1.405 1.467-2.45 2.504 1.345 1.481-2.516 4.235 2.278-.693 1.26-3.016-1.611-1.459 2.48-2.533-1.338-1.468 2.45-2.541-1.367-1.743 2.935zm4.403 2.892 2.512 1.375 1.475-2.421 2.496 1.317 1.488-2.488 4.235 2.278-.692 1.261-3.024-1.64-1.452 2.508-2.533-1.338-1.467 2.45-2.549-1.396-1.736 2.965-1.234-.725zM294.116 87.973a2.6 2.6 0 0 1 1.646 1.253 2.6 2.6 0 0 1 .268 2.05 2.6 2.6 0 0 1-1.26 1.644q-.931.54-2.026.28l-.03-.008a6.5 6.5 0 0 1-1.531-.625q-.73.843-2.002 1.009a9.5 9.5 0 0 1-2.648-.105 57 57 0 0 1-3.461-.822l.37-1.378q2.88.762 4.382.91 1.54.124 2.2-.455-.85-.822-1.135-1.87-.255-1.042.067-2.244l.378-1.407q.21-.667.66-2.338.361-1.35.196-2.021-.136-.665-.871-.859-.823-.217-1.333.275-.51.494-.88 1.871l-1.346 5.014-1.382-.365 1.567-5.835q.268-.997-.078-1.466-.31-.49-1.514-.809l.37-1.378a6.5 6.5 0 0 1 1.48.58 2.43 2.43 0 0 1 1.051 1.127q1.024-.765 2.435-.392.852.226 1.351.829t.602 1.51q.111.877-.267 2.284a65 65 0 0 1-.66 2.338l-.377 1.408q-.355 1.32.373 2.36a1 1 0 0 0 .042-.272l.029.008.018-.184a2.6 2.6 0 0 1 1.26-1.645 2.62 2.62 0 0 1 2.056-.272m-1.935 2.283q-.134.498.116.973.288.453.787.585.53.14.976-.118.456-.288.589-.787a1.15 1.15 0 0 0-.153-.951 1.15 1.15 0 0 0-.75-.607q-.5-.132-.984.148a1.2 1.2 0 0 0-.581.757M368.851 134.169l-1.013-1.007 3.185-3.215-11.077.044-.007 3.719-1.416.006.006-3.719-3.821.015.016-1.44 3.778-.015.006-3.719 1.417-.005.015 3.74 3.8-.037 7.278-.008-3.233-3.211 1.004-1.014 4.958 4.924zM399.386 212.478l.742-1.238 1.224.707-.132-.499q-.357-1.35.355-2.58a3.33 3.33 0 0 1 2.092-1.601l-.008-.03 3.823-1 5.841-1.575q1.32-.356 1.572-.833.28-.485.148-.983-.155-.587-.651-.799t-1.759.128l-6.251 1.686-4.109 1.109-.365-1.38 4.109-1.108 6.28-1.694q1.322-.356 1.572-.833.28-.485.149-.983-.156-.588-.652-.799-.496-.213-1.758.128l-6.281 1.694-4.079 1.101-.366-1.38 4.109-1.108 6.281-1.694q1.966-.53 1.78-1.235l1.379-.372q.256.968-.323 1.628.97.461 1.289 1.665.343 1.291-.368 2.174 1.06.438 1.394 1.7.209.792-.017 1.482t-.845 1.203q-.699.565-1.873.882l-5.848 1.546-3.816 1.03.008.029a2.02 2.02 0 0 0-1.232.93 1.9 1.9 0 0 0-.2 1.5l.124.47.712-1.23 1.262.729-1.942 3.354zM402.606 296.691l1.425-5.276.858.669q.736.541 1.648 1.129.94.597 1.616.776 1.205.321 2.366-.249 1.154-.541 1.526-1.919.372-1.377-.347-2.448t-1.922-1.392q-.677-.18-1.791-.131-1.086.056-1.996.159l-1.08.153 1.425-5.276 1.38.367-.87 3.225q2.305-.14 3.303.125 1.382.368 2.214 1.249.854.92 1.113 2.056a4.76 4.76 0 0 1-.049 2.281 4.55 4.55 0 0 1-1.09 1.94 4.2 4.2 0 0 1-2 1.227q-1.173.378-2.554.011-.998-.266-2.923-1.532l-.871 3.224zm.224-14.707-3.719 13.776-1.381-.367 3.72-13.776zM358.515 369.163q-1.035-1.037-1.767-2.504a11.5 11.5 0 0 1-1.078-3.022l-1.251 1.251-1.013-1.014 1.509-1.511q.26-.26.583-.453-.066-1.36.323-2.526a5.1 5.1 0 0 1 1.229-2.007l1.013 1.014q-1.035 1.036-1.143 3.001a3.7 3.7 0 0 1 1.531.151q.754.28 1.315.842l.022-.022 2.78 2.785q1.725 1.77 4.269 4.318.991.993 1.53.971.561 0 .927-.367.432-.43.345-.993-.064-.538-.97-1.446l-4.613-4.62-3.018-3.022 1.014-1.015 3.018 3.023 4.613 4.62q.991.993 1.53.971.561 0 .927-.367.432-.432.345-.993-.064-.54-.97-1.446l-4.613-4.62-3.018-3.022 1.014-1.015 3.018 3.023 4.613 4.62q1.466 1.467 1.983.949l1.013 1.015q-.69.69-1.617.54.108 1.1-.755 1.964-.927.928-2.091.755.173 1.166-.754 2.094-.583.583-1.294.734-.711.15-1.466-.13-.84-.324-1.725-1.209l-1.315-1.317q-.108.713-.69 1.295-1.293 1.296-2.63.648-1.357-.627-2.673-1.943m.238-5.764a2.2 2.2 0 0 0-.819-.518 2.3 2.3 0 0 0-.927-.065q.215 1.511.883 2.915.669 1.446 1.638 2.417 1.423 1.425 2.135 1.576.69.173 1.142-.28.582-.583.108-1.49-.474-.863-1.336-1.727l-.043-.043a242 242 0 0 0-2.76-2.806zM282.204 401.293a1.57 1.57 0 0 0-.78.01.8.8 0 0 0-.31.141l-1.125-.873q.354-.465 1.12-.66a2.9 2.9 0 0 1 1.34-.027q.788.145 1.369.718.552.58.771 1.464.308 1.237.24 2.602a56 56 0 0 1-.387 3.481q-.276 1.793-.328 2.964-.083 1.18.152 2.123.308 1.238 1.529 1.742a3.3 3.3 0 0 0 1.141.305q.545.05.958-.055.56-.141 1.186-.645.597-.497.944-1.242.318-.738.105-1.593a4.5 4.5 0 0 0-.367-.971 32 32 0 0 0-.668-1.178 24 24 0 0 1-1.154-2.244q-.462-.979-.814-2.393a2.72 2.72 0 0 1 .297-2.08 2.62 2.62 0 0 1 1.666-1.237 2.6 2.6 0 0 1 2.047.295 2.7 2.7 0 0 1 1.235 1.691q.271 1.09-.305 2.051a2.62 2.62 0 0 1-1.665 1.237 3.1 3.1 0 0 1-1.083.055q.462.979 1.036 1.898.103.162.382.655.287.523.492.972.176.456.286.898.308 1.238-.135 2.352a4.74 4.74 0 0 1-1.321 1.87q-.907.762-1.82.994a3.9 3.9 0 0 1-1.488.064 4.6 4.6 0 0 1-1.538-.392 3.95 3.95 0 0 1-1.494-1.093 3.75 3.75 0 0 1-.837-1.605 8 8 0 0 1-.196-2.424q.082-1.306.358-3.223.282-2.015.35-3.252a7.5 7.5 0 0 0-.188-2.27q-.235-.944-1.001-1.125m8.782 2.69a1.33 1.33 0 0 0-.581-.824 1.3 1.3 0 0 0-.971-.129q-.501.127-.767.57a1.3 1.3 0 0 0-.156 1.011q.125.5.596.757.448.293.949.166t.789-.607q.265-.443.141-.944M208.141 407.207q.708.188 1.233.707.524.517.682 1.222.196.683.004 1.39a4 4 0 0 1-.271.653l-.045.051q-1.346 2.292-3.713 3.335-2.368 1.041-4.935.359-2.3-.612-3.826-2.343a7.56 7.56 0 0 1-1.929-3.983l1.563.415a6.25 6.25 0 0 0 1.668 2.842 6.13 6.13 0 0 0 2.897 1.685 5.7 5.7 0 0 0 2.763.073 7 7 0 0 0 2.496-1.166 2.61 2.61 0 0 1-1.652-1.26 2.6 2.6 0 0 1-.267-2.058 2.62 2.62 0 0 1 1.267-1.651 2.63 2.63 0 0 1 2.065-.271m1.388-.924a6.54 6.54 0 0 0-1.631-2.863 6.45 6.45 0 0 0-2.934-1.664q-1.416-.377-2.725-.094a6.9 6.9 0 0 0-2.526 1.158 2.6 2.6 0 0 1 1.652 1.26q.553.999.259 2.088a2.62 2.62 0 0 1-1.267 1.65 2.63 2.63 0 0 1-2.065.271 2.7 2.7 0 0 1-1.233-.706 2.45 2.45 0 0 1-.682-1.223 2.45 2.45 0 0 1-.004-1.389q.087-.324.263-.624l.008-.03.045-.051q1.345-2.292 3.714-3.334 2.337-1.05 4.934-.36 2.301.612 3.864 2.322a7.83 7.83 0 0 1 1.892 4.005zm-.855 3.874q.072-.265.019-.658a1.4 1.4 0 0 0-.345-.596 1.4 1.4 0 0 0-.58-.312 1.21 1.21 0 0 0-.95.125q-.487.281-.622.782-.135.5.153.955.25.477.752.61.414.111.801-.039.389-.149.618-.53zm-8.437-4.358q.144-.53-.107-1.007a1.31 1.31 0 0 0-.79-.589 1.46 1.46 0 0 0-.809.069 1.4 1.4 0 0 0-.617.53l-.046.051a1 1 0 0 0-.109.287q-.087.323.019.635.067.334.315.589t.572.342q.501.132.988-.148.45-.259.584-.759"/><path fill-rule="evenodd" d="m172.569 379.856 3.913-7.048.448.248-3.913 7.048zM174.909 381.102l3.787-7.112.453.24-3.788 7.113zM177.235 382.313l3.642-7.141.457.232-3.642 7.142zM179.588 383.483l3.539-7.229.46.225-3.538 7.228zM184.358 385.721l3.268-7.321.468.208-3.268 7.321zM186.774 386.773l3.154-7.405.472.2-3.154 7.406zM189.205 387.781l3.023-7.444.475.192-3.023 7.444zM191.669 388.752l2.877-7.474.478.184-2.877 7.474zM196.654 390.553l2.575-7.576.486.165-2.576 7.575zM199.103 391.404l2.495-7.622.487.159-2.494 7.622zM201.61 392.203l2.372-7.693.49.151-2.373 7.692zM204.15 392.93l2.218-7.691.492.141-2.217 7.691zM209.21 394.296l1.952-7.762.497.124-1.952 7.763zM211.82 394.92l1.796-7.789.5.115-1.797 7.789zM214.377 395.477l1.675-7.813.501.107-1.675 7.813zM216.96 396.001l1.541-7.846.503.099-1.541 7.846zM222.146 396.918l1.267-7.886.506.081-1.267 7.886zM224.761 397.304l1.124-7.905.507.072-1.123 7.905zM227.4 397.662l.958-7.9.509.061-.958 7.901zM229.981 397.94l.849-7.946.509.054-.849 7.946zM235.248 398.406l.572-7.933.511.036-.571 7.934zM237.883 398.559l.437-7.966.511.028-.436 7.966zM240.503 398.694l.307-7.977.512.02-.307 7.977zM243.16 398.745l.152-7.958.512.01-.152 7.958zM248.417 398.751l-.115-7.949.513-.007.114 7.948zM251.069 398.664l-.259-7.95.512-.016.259 7.95zM253.706 398.55l-.396-7.947.512-.026.395 7.948zM256.367 398.399l-.531-7.899.511-.035.532 7.899zM261.624 397.931l-.835-7.919.509-.054.836 7.92zM264.221 397.622l-.951-7.86.509-.061.951 7.86zM266.835 397.276l-1.08-7.871.508-.069 1.08 7.871zM269.445 396.883l-1.219-7.834.506-.078 1.22 7.833zM274.647 395.955l-1.492-7.782.503-.097 1.492 7.783zM277.231 395.435l-1.629-7.734.502-.105 1.628 7.734zM279.81 394.873l-1.76-7.71.5-.114 1.76 7.71zM282.368 394.234l-1.881-7.672.498-.121 1.881 7.671zM287.487 392.868l-2.163-7.59.493-.14 2.163 7.589zM290.001 392.148l-2.285-7.55.49-.148 2.285 7.55zM292.537 391.321l-2.413-7.471.488-.157 2.413 7.471zM295.039 390.484l-2.55-7.45.485-.166 2.55 7.451zM300.004 388.669l-2.791-7.317.479-.182 2.791 7.317zM302.462 387.706l-2.925-7.286.475-.191 2.926 7.286zM304.925 386.685l-3.057-7.198.471-.2 3.058 7.198zM307.327 385.636l-3.169-7.145.469-.207 3.169 7.145zM312.123 383.403l-3.396-7.004.462-.223 3.395 7.004zM314.49 382.225l-3.525-6.952.457-.231 3.525 6.952zM316.863 381.011l-3.648-6.878.452-.239 3.649 6.878zM319.156 379.738l-3.743-6.779.449-.247 3.743 6.779zM323.731 377.091l-3.978-6.651.44-.263 3.978 6.652zM325.988 375.715l-4.079-6.556.435-.27 4.079 6.556zM328.223 374.293l-4.201-6.499.431-.278 4.201 6.499zM330.429 372.831l-4.3-6.393.426-.285 4.299 6.392zM334.762 369.786l-4.519-6.23.415-.3 4.519 6.23zM336.867 368.211l-4.583-6.121.411-.307 4.582 6.122zM338.992 366.614l-4.72-6.055.405-.314 4.72 6.055zM341.057 364.967l-4.823-5.97.398-.321 4.824 5.97zM345.131 361.579l-5.014-5.78.388-.335 5.014 5.78zM347.111 359.805l-5.122-5.671.38-.343 5.123 5.671zM349.042 358.029l-5.181-5.569.375-.349 5.181 5.57zM350.966 356.216l-5.294-5.498.369-.355 5.295 5.499zM354.721 352.472l-5.452-5.273.357-.367 5.452 5.272zM356.545 350.551l-5.562-5.191.35-.373 5.562 5.191zM358.311 348.577l-5.644-5.066.343-.381 5.644 5.066zM360.084 346.628l-5.716-4.971.336-.386 5.717 4.971zM363.495 342.576l-5.877-4.756.323-.398 5.877 4.756zM365.153 340.514l-5.954-4.655.316-.403 5.954 4.655zM366.764 338.41l-6.048-4.555.309-.409 6.047 4.556zM368.336 336.287l-6.105-4.425.302-.414 6.104 4.425zM371.386 331.962l-6.257-4.223.287-.424 6.257 4.223zM372.855 329.757l-6.308-4.09.279-.429 6.308 4.089zM374.269 327.521l-6.388-3.981.271-.435 6.388 3.982zM375.668 325.271l-6.461-3.87.263-.439 6.462 3.87zM378.317 320.695l-6.564-3.63.249-.448 6.564 3.631zM379.582 318.374l-6.624-3.511.24-.452 6.625 3.511zM380.843 316.042l-6.647-3.379.233-.456 6.646 3.379zM382.008 313.667l-6.72-3.267.224-.46 6.72 3.267zM384.253 308.867l-6.776-3 .208-.468 6.775 3zM385.312 306.45l-6.845-2.895.2-.471 6.845 2.895zM386.337 304.013l-6.887-2.774.192-.475 6.887 2.775zM387.307 301.556l-6.879-2.634.184-.478 6.879 2.634zM389.129 296.592l-6.981-2.394.166-.484 6.982 2.394zM389.998 294.053l-7.006-2.227.156-.487 7.006 2.226zM390.787 291.562l-7.046-2.142.149-.489 7.046 2.141zM391.545 289.025l-7.061-2.005.14-.492 7.061 2.005zM392.918 283.918l-7.109-1.752.123-.497 7.109 1.752zM393.556 281.358l-7.116-1.629.114-.499 7.117 1.629zM394.147 278.777l-7.146-1.501.106-.501 7.145 1.501zM394.662 276.22l-7.155-1.407.099-.502 7.155 1.407zM395.614 270.984l-7.183-1.124.079-.505 7.183 1.124zM396.015 268.372l-7.212-.996.07-.506 7.212.995zM396.375 265.753l-7.185-.871.062-.508 7.184.871zM396.674 263.13l-7.214-.743.053-.509 7.214.743zM397.144 257.893l-7.176-.512.037-.511 7.175.513zM397.335 255.232l-7.234-.365.026-.511 7.234.365zM397.454 252.589l-7.217-.238.017-.511 7.217.237zM397.508 249.931l-7.167-.091.006-.511 7.167.09zM397.552 244.665l-7.191.14-.01-.512 7.191-.139zM397.501 242.022l-7.192.265-.019-.511 7.192-.266zM397.397 239.392l-7.189.386-.028-.511 7.189-.386zM397.248 236.749l-7.148.518-.037-.511 7.148-.517zM396.788 231.514l-7.14.768-.055-.509 7.14-.767zM396.516 228.863l-7.08.883-.064-.508 7.081-.883zM396.187 226.243l-7.096 1.019-.073-.507 7.096-1.019zM395.801 223.624l-7.065 1.137-.081-.505 7.064-1.137zM394.917 218.421l-7.02 1.389-.1-.502 7.021-1.389zM394.397 215.838l-6.975 1.497-.108-.5 6.975-1.497zM393.833 213.263l-6.944 1.614-.116-.498 6.944-1.614zM393.232 210.693l-6.92 1.745-.125-.496 6.92-1.746zM391.888 205.587l-6.84 1.982-.143-.491 6.84-1.982zM391.153 203.057l-6.798 2.096-.151-.489 6.798-2.096zM390.331 200.525l-6.693 2.212-.161-.486 6.693-2.212zM389.53 198.03l-6.707 2.331-.169-.484 6.708-2.33zM387.747 193.078l-6.588 2.545-.185-.478 6.588-2.544zM386.819 190.63l-6.556 2.662-.193-.474 6.556-2.662zM385.803 188.164l-6.483 2.768-.202-.47 6.483-2.768zM384.753 185.753l-6.437 2.876-.209-.467 6.436-2.876zM382.538 180.961l-6.3 3.091-.226-.459 6.3-3.091zM381.377 178.598l-6.258 3.206-.234-.456 6.258-3.206zM380.165 176.259l-6.2 3.311-.242-.452 6.201-3.311zM378.916 173.937l-6.101 3.404-.25-.446 6.101-3.405zM376.281 169.395l-5.995 3.611-.265-.438 5.995-3.611zM374.925 167.112l-5.906 3.707-.273-.433 5.906-3.707zM373.493 164.868l-5.83 3.841-.283-.427 5.831-3.841zM372.081 162.674l-5.782 3.914-.288-.423 5.783-3.915zM369.066 158.362l-5.64 4.105-.302-.413 5.64-4.105zM367.498 156.237l-5.533 4.186-.31-.408 5.533-4.185zM360.443 158.425l-.016.013-.315-.404 5.507-4.281.001-.001.315.404-5.476 4.29zM364.268 152.073l-5.399 4.39-.323-.397 5.398-4.39zM360.898 148.031l-5.248 4.567-.337-.386 5.248-4.567zM359.16 146.051l-5.152 4.65-.343-.38 5.151-4.649zM357.379 144.104l-5.052 4.725-.35-.373 5.051-4.726zM355.576 142.189l-4.995 4.83-.356-.367 4.995-4.831zM351.86 138.459l-4.801 4.979-.369-.355 4.8-4.978zM349.957 136.644l-4.74 5.077-.375-.349 4.74-5.077zM348.014 134.859l-4.625 5.143-.381-.342 4.625-5.143zM346.044 133.112l-4.546 5.225-.387-.335 4.546-5.225zM342.022 129.704l-4.352 5.373-.399-.321 4.352-5.374zM339.957 128.073l-4.266 5.459-.404-.315 4.266-5.459zM337.865 126.466l-4.181 5.545-.409-.308 4.181-5.544zM335.756 124.9l-4.06 5.587-.415-.301 4.06-5.587zM331.442 121.867l-3.883 5.763-.425-.286 3.882-5.762zM329.245 120.424l-3.761 5.787-.43-.279 3.761-5.787zM327.014 118.985l-3.683 5.886-.435-.271 3.684-5.886zM324.792 117.616l-3.58 5.955-.439-.263 3.579-5.955zM320.231 114.979l-3.371 6.066-.448-.248 3.371-6.066zM317.918 113.722l-3.259 6.121-.452-.24 3.259-6.122zM315.601 112.539l-3.134 6.139-.456-.233 3.134-6.139zM313.214 111.32l-3.045 6.235-.461-.224 3.046-6.236zM308.453 109.097l-2.811 6.298-.468-.208 2.811-6.298zM306.036 108.044l-2.717 6.37-.472-.2 2.718-6.371zM303.604 107.035l-2.605 6.408-.474-.193 2.604-6.408zM301.145 106.075l-2.472 6.43-.478-.184 2.472-6.429zM296.203 104.264l-2.253 6.52-.485-.167 2.254-6.52zM293.704 103.427l-2.143 6.547-.487-.159 2.143-6.547zM291.178 102.624l-2.021 6.618-.49-.15 2.021-6.617zM288.669 101.89l-1.913 6.617-.492-.142 1.913-6.617zM283.569 100.521l-1.689 6.699-.497-.125 1.69-6.699zM281.005 99.902l-1.557 6.704-.5-.116 1.557-6.704zM278.436 99.333l-1.452 6.756-.501-.107 1.452-6.756zM275.848 98.808l-1.335 6.787-.503-.099 1.335-6.787zM270.661 97.898l-1.095 6.826-.506-.081 1.095-6.826zM268.054 97.514l-.976 6.839-.507-.072.976-6.84zM265.43 97.167l-.85 6.84-.509-.063.851-6.84zM262.816 96.867l-.734 6.888-.51-.054.734-6.888zM257.563 96.41l-.496 6.899-.511-.037.496-6.899zM254.949 96.258l-.393 6.922-.511-.029.392-6.922zM252.295 96.137l-.256 6.92-.512-.019.255-6.92zM249.66 96.07l-.137 6.934-.513-.01.138-6.933zM244.375 96.074l.108 6.93-.512.008-.108-6.93zM241.781 96.164l.226 6.961-.513.016-.225-6.96zM239.111 96.261l.341 6.965-.512.024-.341-6.964zM236.442 96.404l.492 6.953-.511.036-.492-6.953zM231.231 96.862l.714 6.944-.51.052-.714-6.944zM228.574 97.225l.834 6.923-.509.061-.834-6.923zM225.973 97.54l.96 6.94-.508.07-.959-6.94zM222.829 98.001l.506-.08v.002l1.108 6.916-.506.081-.002-.014-.029.004-1.077-6.908M218.166 98.847l1.326 6.898-.503.097-1.327-6.899zM215.561 99.373l1.452 6.853-.502.106-1.452-6.853zM213.001 99.951l1.568 6.856-.5.114-1.568-6.856zM210.434 100.571l1.681 6.832-.498.122-1.681-6.832zM205.333 101.941l1.926 6.782-.493.14-1.926-6.782zM202.798 102.698l2.047 6.744-.49.148-2.048-6.743zM200.27 103.508l2.17 6.688-.487.157-2.171-6.687zM197.775 104.332l2.285 6.691-.485.165-2.285-6.69zM192.822 106.148l2.502 6.598-.479.181-2.502-6.598zM190.356 107.111l2.634 6.574-.476.19-2.633-6.574zM187.904 108.123l2.751 6.496-.472.2-2.751-6.497zM185.482 109.178l2.871 6.475-.469.207-2.87-6.475zM180.718 111.43l3.088 6.365-.461.223-3.088-6.365zM178.35 112.561l3.193 6.371-.459.229-3.192-6.371zM175.982 113.814l3.318 6.28-.453.238-3.318-6.279zM173.659 115.079l3.431 6.209-.449.248-3.431-6.209zM169.045 117.705l3.686 6.111-.439.264-3.686-6.111zM166.851 119.122l3.733 6.03-.436.269-3.733-6.03zM164.585 120.524l3.879 5.996-.431.278-3.878-5.996zM162.389 121.983l3.965 5.91-.426.285-3.965-5.91zM158.046 125.021l4.197 5.79-.415.3-4.197-5.789zM155.92 126.587l4.287 5.696-.41.308-4.287-5.697zM153.816 128.192l4.408 5.658-.405.314-4.408-5.658zM151.756 129.846l4.507 5.58-.399.321-4.507-5.58zM147.694 133.246l4.716 5.437-.387.335-4.716-5.437zM145.714 134.993l4.809 5.354-.381.342-4.809-5.355zM143.765 136.782l4.906 5.266-.375.348-4.906-5.265zM141.84 138.6l5.021 5.206-.369.355-5.021-5.206zM138.098 142.335l5.211 5.033-.356.368-5.211-5.034zM136.272 144.253l5.304 4.952-.35.373-5.304-4.951zM134.484 146.203l5.373 4.847-.343.379-5.374-4.846zM132.733 148.177l5.491 4.769-.337.386-5.49-4.769zM129.312 152.234l5.65 4.572-.323.397-5.65-4.571zM127.669 154.304l5.77 4.505-.315.403-5.77-4.505zM126.055 156.397l5.849 4.414-.309.408-5.849-4.414zM124.479 158.507l5.909 4.312-.303.413-5.908-4.312zM121.43 162.855l6.102 4.116-.286.424-6.103-4.116zM119.967 165.055l6.166 4.007-.28.429-6.166-4.007zM118.519 167.275l6.28 3.919-.271.434-6.28-3.919zM117.154 169.539l6.343 3.81-.264.439-6.343-3.811zM114.513 174.124l6.493 3.598-.249.448-6.492-3.598zM113.218 176.433l6.559 3.483-.24.452-6.56-3.483zM111.997 178.781l6.609 3.366-.233.456-6.609-3.366zM110.809 181.15l6.7 3.255-.225.46-6.699-3.255zM108.574 185.951l6.809 3.019-.208.468-6.809-3.019zM107.505 188.359l6.879 2.914-.2.471-6.879-2.914zM106.477 190.805l6.919 2.784-.192.474-6.918-2.783zM105.501 193.258l6.974 2.67-.184.478-6.974-2.671zM103.671 198.254l7.082 2.389-.011.031.003.001-.166.484-7.073-2.42h-.001l.165-.485zM102.8 200.72l7.134 2.301-.157.487-7.134-2.301zM102.028 203.246l7.191 2.188-.15.49-7.19-2.188zM101.264 205.781l7.213 2.056-.141.492-7.212-2.056zM99.88 210.892l7.32 1.809-.123.497-7.32-1.81zM99.253 213.457l7.318 1.673-.115.499-7.317-1.673zM98.665 216.046l7.399 1.548-.105.501-7.399-1.548zM98.16 218.647l7.406 1.408-.003.017.027.005-.097.503-7.43-1.43.096-.503M97.2 223.832l7.492 1.166-.079.506-7.493-1.167zM96.797 226.439l7.517 1.045-.071.507-7.517-1.045zM96.44 229.061l7.534.909-.062.508-7.533-.909zM96.09 231.7l7.596.755-.051.509-7.595-.754zM95.654 236.95l7.607.517-.035.51-7.606-.516zM95.48 239.586l7.646.386-.025.511-7.647-.386zM95.353 242.228l7.637.245-.016.511-7.638-.244zM95.28 244.867l7.667.117-.008.511-7.666-.116zM95.272 250.124l7.643-.124.008.512-7.643.124zM95.312 252.789l7.703-.289.019.512-7.702.289zM95.416 255.429l7.707-.422.028.511-7.707.422zM95.566 258.067l7.687-.56.038.511-7.688.56zM96.008 263.328l7.697-.827.055.509-7.697.827zM96.276 265.977l7.71-.991.066.507-7.711.991zM96.625 268.577l7.697-1.108.073.507-7.697 1.107zM97.003 271.181l7.67-1.232.082.505-7.67 1.232zM97.905 276.387l7.659-1.509.099.502-7.659 1.509zM98.419 278.973l7.603-1.633.108.501-7.604 1.632zM98.99 281.536l7.617-1.78.116.499-7.616 1.779zM99.592 284.116l7.593-1.91.125.496-7.593 1.91zM100.906 289.205l7.57-2.168.141.492-7.57 2.168zM101.669 291.754l7.498-2.309.151.489-7.498 2.309zM102.452 294.275l7.458-2.441.159.486-7.457 2.442zM103.278 296.774l7.438-2.58.168.484-7.438 2.579zM105.062 301.744l7.346-2.841.185.477-7.346 2.841zM106.015 304.201l7.305-2.973.194.474-7.305 2.973zM107.046 306.645l7.204-3.095.203.47-7.204 3.095zM108.073 309.065l7.205-3.221.21.467-7.205 3.221zM110.268 313.846l7.077-3.468.225.46-7.076 3.467zM111.44 316.211l7.039-3.607.234.455-7.039 3.607zM112.651 318.551l6.973-3.726.242.451-6.974 3.726zM113.906 320.849l6.907-3.846.25.447-6.907 3.846zM116.517 325.451l6.775-4.085.265.438-6.775 4.085zM117.88 327.7l6.72-4.208.272.434-6.72 4.207zM119.3 329.919l6.643-4.324.279.428-6.642 4.325zM120.737 332.131l6.555-4.439.288.424-6.555 4.439zM123.752 336.455l6.427-4.684.302.413-6.426 4.685zM125.307 338.574l6.313-4.768.309.408-6.313 4.769zM126.879 340.656l6.265-4.905.316.403-6.265 4.905zM128.525 342.76l6.178-5.018.323.396-6.177 5.019zM131.902 346.77l6.012-5.231.337.385-6.012 5.232zM133.632 348.742l5.91-5.336.344.379-5.91 5.336zM135.41 350.696l5.841-5.421.349.375-5.841 5.421zM137.243 352.619l5.738-5.553.357.368-5.738 5.553zM140.956 356.355l5.543-5.747.369.355-5.543 5.747zM142.87 358.169l5.451-5.854.376.349-5.452 5.854zM144.808 359.953l5.333-5.931.381.341-5.333 5.932zM146.733 361.676l5.283-6.015.385.338-5.283 6.014zM150.815 365.108l5.029-6.215.398.321-5.028 6.216zM152.858 366.744l4.941-6.33.404.315-4.941 6.329zM154.944 368.349l4.838-6.416.409.308-4.838 6.416zM157.057 369.919l4.701-6.477.415.3-4.701 6.477zM161.362 372.936l4.502-6.664.425.286-4.503 6.664zM163.551 374.395l4.362-6.717.43.278-4.362 6.717zM165.785 375.822l4.275-6.831.435.271-4.275 6.832zM168.016 377.22l4.157-6.909.439.264-4.157 6.908zM181.734 384.515l3.409-7.285.929.433-3.409 7.285zM193.894 389.582l2.756-7.544.963.351-2.756 7.544zM206.472 393.582l2.079-7.717.99.266-2.079 7.717zM219.295 396.437l1.404-7.844 1.009.18-1.404 7.844zM232.344 398.206l.712-7.942 1.021.091-.713 7.943zM258.723 398.184l-.674-7.918 1.021-.086.674 7.917zM271.801 396.488l-1.358-7.796 1.01-.175 1.358 7.795zM284.699 393.648l-2.021-7.617.99-.262 2.022 7.616zM297.287 389.69l-2.667-7.39.964-.347 2.667 7.39zM309.506 384.651l-3.288-7.096.93-.43 3.288 7.096zM332.394 371.48l-4.399-6.314.842-.584 4.398 6.314zM342.909 363.453l-4.894-5.847.786-.657 4.894 5.848zM352.68 354.541l-5.382-5.394.726-.723 5.382 5.395zM361.633 344.849l-5.813-4.883.659-.783 5.813 4.883zM369.738 334.351l-6.188-4.328.588-.839 6.188 4.329zM383.043 311.517l-6.769-3.15.433-.928 6.769 3.151zM388.158 299.32l-6.959-2.526.35-.962 6.959 2.526zM392.166 286.717l-7.042-1.868.263-.989 7.042 1.868zM395.123 273.844l-7.158-1.245.176-1.008 7.158 1.245zM396.919 260.75l-7.215-.616.088-1.02 7.215.617zM397.074 234.371l-7.157.64-.091-1.02 7.156-.64zM395.443 221.283l-7.04 1.251-.18-1.008 7.04-1.251zM392.643 208.386l-6.853 1.847-.267-.988 6.852-1.847zM388.785 195.801l-6.651 2.435-.353-.961 6.651-2.435zM383.776 183.577l-6.388 2.994-.436-.926 6.388-2.995zM370.712 160.752l-5.681 3.973-.588-.839 5.681-3.973zM362.756 150.228l-5.283 4.456-.662-.782 5.284-4.456zM353.914 140.487l-4.895 4.907-.726-.723 4.895-4.906zM344.238 131.561l-4.454 5.315-.786-.657 4.454-5.314zM333.816 123.51l-3.979 5.679-.839-.586 3.978-5.68zM311.076 110.298l-2.933 6.273-.928-.433 2.932-6.273zM298.923 105.234l-2.375 6.495-.962-.351 2.374-6.495zM286.371 101.236l-1.792 6.658-.99-.265 1.792-6.659zM273.51 98.378l-1.207 6.769-1.009-.179 1.207-6.77zM260.462 96.612l-.619 6.891-1.021-.091.619-6.892zM234.102 96.613l.586 6.961-1.021.085-.586-6.96zM221.016 98.33l1.196 6.906-1.01.174-1.196-6.905zM208.12 101.169l1.8 6.782-.991.263-1.8-6.782zM195.524 105.125l2.391 6.634-.964.346-2.391-6.633zM183.31 110.167l2.985 6.432-.93.43-2.985-6.432zM160.413 123.333l4.095 5.858-.841.586-4.094-5.858zM149.908 131.365l4.598 5.486-.786.657-4.598-5.486zM140.127 140.274l5.098 5.104-.725.723-5.098-5.105zM131.166 149.994l5.591 4.691-.66.784-5.59-4.691zM123.08 160.465l6.033 4.221-.588.838-6.034-4.221zM109.77 183.301l6.755 3.143-.432.928-6.756-3.143zM104.641 195.508l7.045 2.548-.349.963-7.045-2.549zM100.617 208.084l7.266 1.932-.264.989-7.265-1.932zM97.69 220.972l7.428 1.293-.176 1.008-7.428-1.293zM95.89 234.06l7.587.642-.086 1.02-7.588-.642zM95.731 260.448l7.714-.7.093 1.02-7.714.699zM97.382 273.542l7.672-1.375.181 1.007-7.672 1.376zM100.197 286.449l7.507-2.059.272.986-7.508 2.06zM104.063 299.026l7.372-2.699.353.961-7.372 2.699zM109.04 311.233l7.153-3.351.436.927-7.154 3.351zM122.075 334.093l6.499-4.561.59.838-6.5 4.561zM130.051 344.583l6.078-5.112.66.783-6.078 5.112zM138.898 354.317l5.634-5.639.726.722-5.635 5.64zM148.573 363.254l5.15-6.145.786.656-5.15 6.146zM158.981 371.3l4.62-6.587.84.588-4.621 6.586z" clip-rule="evenodd"/><path fill-rule="evenodd" d="M336.834 91.278c-85.758-49.44-195.64-19.722-245.426 66.384-49.786 86.107-20.62 195.988 65.139 245.428 85.759 49.441 195.641 19.723 245.427-66.383 49.786-86.107 20.619-195.988-65.14-245.429M90.722 157.267C140.725 70.786 251.09 40.932 337.23 90.593s115.432 160.028 65.43 246.509c-50.003 86.481-160.368 116.335-246.509 66.673S40.719 243.748 90.722 157.267" clip-rule="evenodd"/><path fill-rule="evenodd" d="M245.92 251.529v-8.387h1.236v8.387z" clip-rule="evenodd"/><path fill-rule="evenodd" d="M250.718 247.956h-8.347v-1.234h8.347z" clip-rule="evenodd"/><path fill-rule="evenodd" d="M246.687 228.64c-10.196 0-18.467 8.3-18.467 18.544s8.271 18.544 18.467 18.544 18.466-8.299 18.466-18.544c0-10.244-8.27-18.544-18.466-18.544m-19.703 18.544c0-10.92 8.818-19.778 19.703-19.778s19.702 8.858 19.702 19.778-8.818 19.778-19.702 19.778-19.703-8.858-19.703-19.778" clip-rule="evenodd"/><path fill-rule="evenodd" d="M322.261 116.123c-72.28-41.67-164.81-16.762-206.67 55.637S98.392 336.63 170.672 378.3c72.281 41.67 164.81 16.762 206.671-55.637s17.198-164.87-55.082-206.54m-207.114 55.381c42.001-72.642 134.843-97.636 207.37-55.824s97.271 134.596 55.269 207.239c-42.001 72.642-134.843 97.636-207.37 55.824-72.526-41.812-97.27-134.597-55.269-207.239" clip-rule="evenodd"/><path fill-rule="evenodd" d="M275.231 197.825c-27.15-15.652-61.938-6.244-77.701 21.018s-6.528 62.05 20.622 77.702 61.938 6.244 77.701-21.018 6.528-62.05-20.622-77.702m-78.23 20.713c15.93-27.552 51.091-37.064 78.535-21.241 27.445 15.822 36.776 50.984 20.846 78.535s-51.091 37.063-78.535 21.241c-27.445-15.822-36.776-50.984-20.846-78.535" clip-rule="evenodd"/><path fill-rule="evenodd" d="M371.424 175.272 296.5 219l-.379-.651 74.924-43.727zM197.379 276.65l-75.219 43.365-.379-.651L197 276zM319.353 123.029l-43.701 74.349L275 197l43.701-74.349zM218.152 296.878 174.5 371.989l-.652-.378L217.5 296.5zM371.143 319.833 296 276l.378-.651 75.143 43.833zM197 219l-75.332-43.546.378-.651 75.332 43.546zM318.021 372.378l-43.175-75.504.654-.374 43.174 75.504zM217.846 197.874l-43.315-75.241.654-.375L218.5 197.5z" clip-rule="evenodd"/><path fill-rule="evenodd" d="m337.502 91-18.126 31.663a142.5 142.5 0 0 1 51.938 51.912l31.128-18.056.56.981-31.126 18.054a144.5 144.5 0 0 1 18.866 71.104l36.26-.092.003 1.129-36.231.092a144.14 144.14 0 0 1-19.279 71.178L402.502 337l-.565.978-31.008-18.036a144.5 144.5 0 0 1-52.157 52.115l17.71 31.38-.98.563-17.711-31.382a145.1 145.1 0 0 1-71.02 19.099l-.094 35.783-1.131-.003.095-35.778a142.7 142.7 0 0 1-70.823-18.962L156.5 404l-.979-.564 18.319-31.244a142.45 142.45 0 0 1-51.74-51.845l-31.55 17.639L90 337l31.539-17.633a144.53 144.53 0 0 1-18.813-70.888l-36.224.085-.002-1.129 36.199-.085a144.1 144.1 0 0 1 19.196-71.169l-31.46-17.704.566-.977 31.459 17.704a144.43 144.43 0 0 1 51.873-52.042L156.002 92l.98-.562 18.329 31.157a145.1 145.1 0 0 1 70.977-19.309l.094-36.289 1.13.003-.094 36.28a142.7 142.7 0 0 1 70.978 18.819l18.127-31.663zm-90.648 13.41a144 144 0 0 0-71.467 19.445 143.3 143.3 0 0 0-52.23 52.401l-.083.143a143 143 0 0 0-19.244 70.949h.026l-.001.566a143.4 143.4 0 0 0 18.948 71.389 141.3 141.3 0 0 0 52.091 52.194l.129.075a141.6 141.6 0 0 0 71.183 19.019 144 144 0 0 0 71.517-19.236l.002.003a143.35 143.35 0 0 0 52.508-52.469l.083-.143a143 143 0 0 0 19.328-70.957h-.033l.001-.566a143.4 143.4 0 0 0-18.997-71.599 141.4 141.4 0 0 0-52.165-52.192l-.129-.074a141.56 141.56 0 0 0-71.467-18.948" clip-rule="evenodd"/><path fill-rule="evenodd" d="M247.417 103.355 247.2 189.5l-.753-.002.217-86.145zm-.661 201.145-.217 86.782-.754-.003.217-86.781zM390.769 247.394l-86.767.149-.002-.753 86.767-.148zm-201.267.454-87.08.149-.001-.753 87.079-.149z" clip-rule="evenodd"/></g></svg>