<svg xmlns="http://www.w3.org/2000/svg" width="494" height="494" fill="none"><g fill="#fff" opacity=".75"><path d="M129.728 359.392q-.669-1.49-.733-2.935t.539-2.612l1.294.604q-.712 1.447-.152 3.389.54 1.965 2.113 3.541 1.574 1.575 3.557 2.137 1.94.561 3.363-.172l.625 1.316q-1.185.584-2.63.518t-2.911-.712l-5.67 5.676q.669 1.446.733 2.893.042 1.467-.539 2.655l-1.294-.648q.711-1.403.173-3.367-.582-1.965-2.156-3.54-1.573-1.577-3.514-2.138t-3.384.151l-.625-1.274q1.164-.604 2.651-.539 1.445.065 2.889.734zm3.75 4.361a10.3 10.3 0 0 1-1.703-1.36 9.6 9.6 0 0 1-1.336-1.684l-5.067 5.073a9.5 9.5 0 0 1 1.682 1.338q.732.734 1.358 1.705zM78.18 284.828a7.7 7.7 0 0 1 3.769.876 7.8 7.8 0 0 1 2.838 2.484 4.5 4.5 0 0 1 1.174-1.643 4.2 4.2 0 0 1 1.769-.952 4.36 4.36 0 0 1 2.337-.001 4.4 4.4 0 0 1 1.976 1.139 4.36 4.36 0 0 1 1.13 2 4.5 4.5 0 0 1 .011 2.302 4.7 4.7 0 0 1-1.139 2.013 4.57 4.57 0 0 1-2.032 1.15 4.3 4.3 0 0 1-2.003.068 4.8 4.8 0 0 1-1.839-.86 7.9 7.9 0 0 1-1.22 3.614 8 8 0 0 1-2.838 2.631l-.684-1.268a6.28 6.28 0 0 0 2.84-3.105q.872-2.067.3-4.218a6.2 6.2 0 0 0-2.342-3.472 6.3 6.3 0 0 0-4.012-1.315zm11.466 7.983a2.93 2.93 0 0 0 1.835-1.412 2.92 2.92 0 0 0 .308-2.294 2.9 2.9 0 0 0-1.402-1.831 2.9 2.9 0 0 0-2.29-.297 2.93 2.93 0 0 0-1.835 1.413 2.92 2.92 0 0 0-.307 2.293q.312 1.178 1.401 1.832 1.081.623 2.29.296M81.036 197.088q.27-1 1.198-1.511a2.42 2.42 0 0 1 1.902-.251q.737.195 1.224.736.457.531.594 1.199.144.637.009 1.138l-1.387-.369q.065-.236-.099-.689-.183-.49-.715-.632a1.11 1.11 0 0 0-.816.098q-.396.179-.523.65-.15.559.89 1.625 1.019 1.028 3.41 2.358a41 41 0 0 0 3.82 1.9q2.007.88 3.222 1.299l-.365 1.354q-1.263-.241-3.445-.475a41 41 0 0 0-4.264-.251q-2.74-.035-4.15.379-1.428.378-1.58.936-.126.471.118.852.254.351.667.461.53.141.929-.163.376-.341.44-.577l1.387.369q-.135.501-.59 1.011a2.7 2.7 0 0 1-1.109.714q-.693.227-1.43.03a2.4 2.4 0 0 1-1.521-1.162q-.547-.903-.277-1.903.333-1.237 2.1-1.808 1.745-.609 5.027-.587.726.004 2.747.131-1.814-.893-2.445-1.25-2.853-1.61-4.067-2.974-1.234-1.401-.9-2.638M132.035 127.848a5.96 5.96 0 0 0 3.298 1.36 5.64 5.64 0 0 0 3.45-.863l.754 1.23a7.03 7.03 0 0 1-4.377 1.058q-2.328-.216-4.139-1.771l-2.134 2.137q1.574 1.792 1.767 4.145a7.05 7.05 0 0 1-1.035 4.36l-1.229-.756q.993-1.596.841-3.432a5.7 5.7 0 0 0-1.358-3.302l-1.983 1.985-1.013-1.014 1.962-1.964a5.63 5.63 0 0 0-3.169-1.102q-1.725-.086-3.234.863l-.733-1.208a6.8 6.8 0 0 1 4.139-1.079 7.02 7.02 0 0 1 4.01 1.511l2.178-2.18a7.22 7.22 0 0 1-1.487-4.037 6.8 6.8 0 0 1 1.078-4.144l1.186.756a5.5 5.5 0 0 0-.842 3.259 5.63 5.63 0 0 0 1.078 3.152l1.962-1.965 1.013 1.015zM195.153 86.567l2.481-4.146 2.52 1.404 1.468-2.45 2.503 1.346 1.481-2.517 4.235 2.279-.692 1.26-3.017-1.611-1.459 2.48-2.533-1.339-1.468 2.45-2.541-1.366-1.743 2.935zm4.403 2.892 2.512 1.375 1.475-2.421 2.496 1.316 1.489-2.487 4.235 2.278-.693 1.261-3.024-1.641-1.452 2.509-2.533-1.338-1.467 2.45-2.549-1.396-1.735 2.965-1.235-.725zM293.944 87.297q1.088.288 1.646 1.253.56.964.269 2.05a2.62 2.62 0 0 1-1.26 1.644q-.932.54-2.027.28l-.029-.008a6.5 6.5 0 0 1-1.532-.625q-.73.843-2.002 1.009a9.5 9.5 0 0 1-2.647-.104 57 57 0 0 1-3.462-.823l.37-1.378q2.88.762 4.382.91 1.54.124 2.2-.455-.85-.821-1.135-1.87-.256-1.042.068-2.244l.377-1.407a65 65 0 0 0 .66-2.338q.362-1.35.196-2.021-.136-.665-.871-.859-.823-.217-1.333.275-.51.494-.88 1.872l-1.346 5.014-1.381-.366 1.566-5.835q.269-.997-.078-1.466-.31-.49-1.514-.809l.37-1.378a6.5 6.5 0 0 1 1.481.58 2.44 2.44 0 0 1 1.051 1.127q1.024-.764 2.434-.392.852.226 1.351.829t.602 1.51q.111.877-.267 2.284a66 66 0 0 1-.659 2.338l-.378 1.408q-.354 1.32.373 2.36a.9.9 0 0 0 .042-.272l.029.008.018-.184a2.6 2.6 0 0 1 1.26-1.644 2.62 2.62 0 0 1 2.056-.273m-1.935 2.283q-.133.498.116.973.288.453.788.585.529.14.976-.118.455-.288.588-.786a1.15 1.15 0 0 0-.153-.952 1.15 1.15 0 0 0-.75-.607q-.5-.131-.984.148a1.2 1.2 0 0 0-.581.757M368.679 133.493l-1.013-1.006 3.186-3.216-11.078.045-.006 3.718-1.417.006.006-3.719-3.821.016.016-1.441 3.778-.015.007-3.718 1.416-.006.015 3.74 3.8-.037 7.278-.007-3.233-3.212 1.005-1.014 4.957 4.924zM399.215 211.801l.742-1.237 1.225.707-.133-.499q-.356-1.35.355-2.58a3.33 3.33 0 0 1 2.092-1.602l-.008-.029 3.823-1 5.841-1.575q1.32-.357 1.572-.833.28-.485.148-.983-.155-.588-.651-.799-.496-.213-1.759.128l-6.251 1.686-4.109 1.108-.365-1.379 4.109-1.108 6.281-1.694q1.32-.356 1.571-.833.282-.484.149-.984-.156-.586-.652-.799-.497-.212-1.758.129l-6.281 1.694-4.079 1.1-.365-1.379 4.108-1.108 6.281-1.694q1.966-.531 1.78-1.235l1.38-.372q.256.968-.324 1.628.97.46 1.289 1.664.342 1.291-.367 2.175 1.059.438 1.393 1.7.21.792-.017 1.482-.225.69-.845 1.203-.699.565-1.873.882l-5.848 1.546-3.816 1.029.008.03a2.02 2.02 0 0 0-1.232.929q-.41.709-.2 1.501l.124.469.712-1.229 1.262.728-1.942 3.354zM402.436 296.015l1.424-5.276.859.669q.735.541 1.647 1.13.94.596 1.616.776 1.205.32 2.366-.25 1.154-.541 1.526-1.919.372-1.377-.347-2.448-.718-1.071-1.922-1.392-.677-.18-1.791-.131-1.086.056-1.995.16l-1.081.152 1.425-5.276 1.38.368-.87 3.224q2.305-.14 3.304.125 1.38.368 2.213 1.25.853.918 1.113 2.056a4.76 4.76 0 0 1-.049 2.28 4.55 4.55 0 0 1-1.09 1.94 4.2 4.2 0 0 1-2 1.227q-1.173.379-2.554.011-.998-.266-2.923-1.532l-.871 3.224zm.223-14.707-3.719 13.776-1.381-.367 3.72-13.776zM358.344 368.487q-1.035-1.035-1.767-2.504a11.5 11.5 0 0 1-1.078-3.022l-1.251 1.252-1.013-1.015 1.51-1.51a3 3 0 0 1 .582-.454q-.065-1.36.323-2.525a5.1 5.1 0 0 1 1.229-2.008l1.013 1.015q-1.035 1.036-1.142 3a3.7 3.7 0 0 1 1.53.152 3.6 3.6 0 0 1 1.315.842l.022-.022 2.781 2.785a491 491 0 0 0 4.268 4.317q.992.993 1.53.972.561 0 .927-.367.432-.432.345-.993-.064-.54-.97-1.446l-4.613-4.62-3.018-3.022 1.014-1.015 3.018 3.023 4.613 4.619q.992.993 1.53.972.561 0 .927-.367.432-.432.345-.993-.064-.54-.97-1.446l-4.613-4.62-3.018-3.022 1.014-1.015 3.018 3.022 4.613 4.62q1.465 1.469 1.983.95l1.013 1.015q-.69.69-1.617.539.108 1.101-.754 1.965-.927.927-2.092.755.173 1.166-.754 2.094-.582.582-1.294.734-.711.15-1.466-.13-.84-.324-1.725-1.209l-1.315-1.317q-.107.713-.689 1.295-1.294 1.295-2.631.647-1.358-.626-2.673-1.943m.238-5.763a2.2 2.2 0 0 0-.819-.518 2.3 2.3 0 0 0-.927-.065 10 10 0 0 0 .883 2.914q.669 1.446 1.639 2.418 1.422 1.425 2.134 1.576.69.173 1.142-.281.582-.583.108-1.489-.474-.864-1.336-1.727l-.043-.043a250 250 0 0 0-2.76-2.807zM282.032 400.617a1.56 1.56 0 0 0-.781.011.74.74 0 0 0-.309.141l-1.126-.874q.354-.465 1.12-.66a2.9 2.9 0 0 1 1.34-.027q.789.145 1.369.718.552.58.772 1.464a8.9 8.9 0 0 1 .239 2.602 56 56 0 0 1-.387 3.481q-.275 1.792-.328 2.965-.082 1.18.152 2.122.308 1.238 1.529 1.742a3.3 3.3 0 0 0 1.141.306q.546.049.958-.055.56-.142 1.186-.646a3.5 3.5 0 0 0 .944-1.242q.318-.738.105-1.592a4.5 4.5 0 0 0-.367-.972 31 31 0 0 0-.668-1.177 24 24 0 0 1-1.153-2.245q-.463-.978-.815-2.393a2.72 2.72 0 0 1 .298-2.08 2.62 2.62 0 0 1 1.665-1.237 2.6 2.6 0 0 1 2.047.295 2.7 2.7 0 0 1 1.235 1.691 2.62 2.62 0 0 1-.304 2.051 2.62 2.62 0 0 1-1.666 1.237q-.472.12-1.083.055.463.98 1.036 1.899.103.162.382.654.287.524.492.972.177.457.286.898.308 1.237-.135 2.352a4.7 4.7 0 0 1-1.321 1.87q-.906.763-1.82.994a3.9 3.9 0 0 1-1.488.065 4.6 4.6 0 0 1-1.538-.393 3.94 3.94 0 0 1-1.494-1.093 3.77 3.77 0 0 1-.837-1.604 8 8 0 0 1-.196-2.425q.083-1.305.358-3.223.282-2.013.35-3.252a7.5 7.5 0 0 0-.188-2.27q-.235-.944-1-1.125m8.781 2.69a1.33 1.33 0 0 0-.58-.824 1.3 1.3 0 0 0-.972-.129 1.2 1.2 0 0 0-.767.57 1.3 1.3 0 0 0-.156 1.011q.125.5.596.757.448.294.949.166t.789-.607q.265-.444.141-.944M207.971 406.531q.708.188 1.232.707t.682 1.222q.195.684.005 1.39a4 4 0 0 1-.272.653l-.045.051q-1.346 2.292-3.713 3.335-2.368 1.042-4.935.359-2.3-.612-3.826-2.343a7.56 7.56 0 0 1-1.929-3.983l1.563.416a6.24 6.24 0 0 0 1.669 2.841q1.185 1.23 2.896 1.686a5.7 5.7 0 0 0 2.763.072 7 7 0 0 0 2.496-1.166 2.6 2.6 0 0 1-1.652-1.26 2.6 2.6 0 0 1-.267-2.058 2.63 2.63 0 0 1 1.268-1.651 2.63 2.63 0 0 1 2.065-.271m1.387-.924a6.55 6.55 0 0 0-1.631-2.863 6.46 6.46 0 0 0-2.934-1.664q-1.416-.376-2.725-.094a6.9 6.9 0 0 0-2.526 1.158 2.61 2.61 0 0 1 1.652 1.26q.553.999.259 2.088a2.62 2.62 0 0 1-1.267 1.65 2.63 2.63 0 0 1-2.065.271 2.7 2.7 0 0 1-1.232-.706 2.43 2.43 0 0 1-.682-1.223q-.203-.653-.005-1.389.087-.324.263-.624l.008-.03.045-.051q1.345-2.292 3.714-3.334 2.338-1.05 4.934-.359 2.301.611 3.864 2.321a7.83 7.83 0 0 1 1.892 4.005zm-.855 3.874q.072-.266.019-.657a1.4 1.4 0 0 0-.345-.597 1.4 1.4 0 0 0-.58-.312 1.2 1.2 0 0 0-.95.126q-.487.28-.622.781-.135.5.153.955.25.477.753.611.413.11.801-.04a1.22 1.22 0 0 0 .617-.53zm-8.436-4.358a1.34 1.34 0 0 0-.108-1.007 1.3 1.3 0 0 0-.79-.588 1.45 1.45 0 0 0-.809.068 1.4 1.4 0 0 0-.617.53l-.046.051a1 1 0 0 0-.109.287q-.087.324.019.636.067.333.315.588t.572.342q.501.134.988-.147.45-.26.585-.76"/><path fill-rule="evenodd" d="m172.397 379.181 3.913-7.049.448.248-3.913 7.049zM174.736 380.427l3.787-7.112.453.24-3.788 7.112zM177.061 381.637l3.642-7.142.457.233-3.642 7.141zM179.414 382.806l3.539-7.228.46.225-3.538 7.228zM184.186 385.045l3.268-7.321.468.208-3.268 7.322zM186.601 386.098l3.154-7.406.472.201-3.154 7.405zM189.034 387.105l3.022-7.444.475.192-3.023 7.444zM191.495 388.076l2.877-7.474.478.184-2.877 7.474zM196.482 389.877l2.575-7.576.486.165-2.576 7.575zM198.931 390.728l2.494-7.622.487.159-2.494 7.622zM201.438 391.527l2.372-7.693.49.151-2.372 7.692zM203.976 392.254l2.218-7.691.493.141-2.218 7.691zM209.037 393.62l1.952-7.762.497.124-1.952 7.763zM211.648 394.245l1.796-7.79.5.115-1.796 7.789zM214.205 394.802l1.675-7.814.501.108-1.675 7.813zM216.787 395.325l1.54-7.846.503.099-1.54 7.845zM221.973 396.243l1.266-7.886.506.081-1.266 7.886zM224.588 396.628l1.124-7.905.507.072-1.123 7.905zM227.227 396.987l.959-7.901.508.061-.958 7.901zM229.808 397.264l.849-7.945.509.054-.849 7.946zM235.075 397.731l.571-7.934.511.037-.571 7.934zM237.709 397.883l.437-7.966.512.028-.437 7.966zM240.33 398.019l.307-7.977.512.02-.307 7.977zM242.988 398.07l.152-7.958.512.01-.152 7.958zM248.244 398.075l-.115-7.948.513-.008.115 7.949zM250.896 397.989l-.259-7.95.512-.017.259 7.95zM253.533 397.874l-.396-7.948.512-.025.396 7.947zM256.195 397.722l-.532-7.899.511-.034.532 7.899zM261.452 397.256l-.835-7.92.51-.054.835 7.92zM264.047 396.946l-.951-7.86.509-.061.951 7.86zM266.662 396.601l-1.08-7.871.508-.07 1.08 7.871zM269.272 396.207l-1.219-7.833.507-.079 1.219 7.834zM274.473 395.28l-1.492-7.783.503-.096 1.492 7.782zM277.058 394.759l-1.628-7.734.501-.105 1.629 7.734zM279.638 394.197l-1.759-7.71.499-.113 1.76 7.71zM282.195 393.558l-1.881-7.672.498-.122 1.881 7.672zM287.314 392.192l-2.163-7.59.493-.14 2.163 7.59zM289.829 391.473l-2.285-7.551.49-.148 2.285 7.55zM292.365 390.645l-2.412-7.471.487-.157 2.413 7.471zM294.866 389.808l-2.55-7.45.485-.166 2.55 7.45zM299.83 387.993l-2.79-7.316.478-.182 2.791 7.316zM302.289 387.03l-2.925-7.286.476-.19 2.925 7.285zM304.753 386.009l-3.057-7.198.472-.2 3.057 7.199zM307.153 384.96l-3.169-7.145.469-.208 3.169 7.146zM311.949 382.728l-3.395-7.004.461-.223 3.395 7.004zM314.317 381.549l-3.525-6.951.458-.232 3.524 6.952zM316.69 380.336l-3.648-6.878.453-.24 3.648 6.879zM318.983 379.062l-3.742-6.778.448-.247 3.743 6.778zM323.559 376.415l-3.978-6.652.44-.262 3.978 6.652zM325.816 375.039l-4.079-6.555.435-.271 4.079 6.556zM328.05 373.617l-4.202-6.499.431-.278 4.201 6.5zM330.256 372.154l-4.3-6.392.426-.286 4.299 6.393zM334.589 369.11l-4.519-6.229.415-.301 4.519 6.23zM336.694 367.536l-4.583-6.121.411-.307 4.582 6.121zM338.82 365.938l-4.72-6.055.405-.314 4.72 6.055zM340.884 364.292l-4.823-5.97.399-.321 4.823 5.97zM344.957 360.903l-5.014-5.781.388-.335 5.014 5.781zM346.938 359.128l-5.122-5.671.38-.342 5.123 5.671zM348.868 357.354l-5.181-5.57.375-.348 5.182 5.569zM350.794 355.541l-5.294-5.499.369-.355 5.295 5.499zM354.547 351.797l-5.452-5.273.357-.368 5.452 5.273zM356.373 349.875l-5.563-5.191.35-.374 5.562 5.191zM358.137 347.901l-5.644-5.066.343-.381 5.644 5.066zM359.91 345.953l-5.716-4.972.336-.386 5.717 4.972zM363.322 341.9l-5.877-4.756.323-.398 5.877 4.756zM364.98 339.838l-5.953-4.656.316-.402 5.953 4.655zM366.591 337.735l-6.047-4.556.308-.408 6.047 4.555zM368.163 335.611l-6.104-4.425.301-.414 6.104 4.425zM371.214 331.287l-6.258-4.223.287-.424 6.258 4.223zM372.681 329.081l-6.308-4.09.279-.429 6.308 4.09zM374.096 326.846l-6.388-3.982.271-.434 6.388 3.981zM375.494 324.596l-6.461-3.87.263-.439 6.462 3.87zM378.145 320.019l-6.565-3.63.249-.448 6.564 3.63zM379.409 317.698l-6.624-3.511.241-.452 6.624 3.511zM380.669 315.366l-6.647-3.378.233-.456 6.646 3.378zM381.835 312.992l-6.72-3.268.224-.46 6.72 3.267zM384.081 308.191l-6.775-3 .207-.468 6.776 3zM385.139 305.775l-6.844-2.895.199-.472 6.845 2.895zM386.163 303.337l-6.887-2.775.192-.474 6.887 2.775zM387.134 300.88l-6.878-2.634.183-.478 6.879 2.634zM388.956 295.916l-6.981-2.394.166-.484 6.982 2.394zM389.824 293.377l-7.005-2.227.155-.488 7.006 2.227zM390.614 290.886l-7.046-2.141.149-.489 7.046 2.141zM391.372 288.35l-7.061-2.006.14-.492 7.061 2.005zM392.745 283.242l-7.109-1.751.123-.497 7.109 1.752zM393.383 280.682l-7.116-1.629.115-.499 7.116 1.629zM393.974 278.101l-7.146-1.501.106-.501 7.145 1.501zM394.489 275.544l-7.155-1.407.099-.502 7.155 1.407zM395.441 270.308l-7.183-1.124.079-.505 7.183 1.124zM395.842 267.696l-7.212-.995.07-.507 7.212.996zM396.201 265.078l-7.185-.872.062-.508 7.185.872zM396.501 262.455l-7.213-.744.052-.509 7.214.744zM396.971 257.218l-7.176-.513.037-.51 7.175.512zM397.163 254.556l-7.234-.365.026-.511 7.234.365zM397.281 251.913l-7.217-.238.017-.511 7.217.238zM397.335 249.255l-7.167-.091.006-.512 7.167.091zM397.38 243.989l-7.191.14-.01-.512 7.191-.139zM397.328 241.346l-7.192.266-.019-.512 7.192-.266zM397.225 238.716l-7.189.385-.028-.511 7.19-.385zM397.075 236.073l-7.148.518-.037-.51 7.148-.518zM396.615 230.839l-7.14.767-.055-.508 7.14-.768zM396.343 228.187l-7.08.883-.064-.507 7.081-.884zM396.014 225.567l-7.095 1.019-.073-.506 7.095-1.02zM395.629 222.949l-7.064 1.137-.082-.505 7.065-1.137zM394.744 217.745l-7.02 1.388-.1-.502 7.021-1.388zM394.225 215.162l-6.975 1.497-.108-.5 6.975-1.497zM393.661 212.587l-6.944 1.614-.116-.498 6.944-1.615zM393.06 210.017l-6.921 1.745-.125-.496 6.92-1.745zM391.715 204.912l-6.84 1.982-.143-.492 6.84-1.982zM390.98 202.38l-6.798 2.097-.151-.489 6.798-2.097zM390.158 199.85l-6.693 2.212-.161-.486 6.693-2.212zM389.359 197.355l-6.708 2.33-.168-.483 6.707-2.331zM387.574 192.403l-6.588 2.544-.184-.477 6.587-2.545zM386.647 189.954l-6.557 2.662-.193-.474 6.557-2.662zM385.63 187.489l-6.483 2.768-.201-.471 6.482-2.768zM384.579 185.077l-6.437 2.876-.209-.467 6.436-2.876zM382.365 180.285l-6.299 3.091-.226-.459 6.299-3.091zM381.203 177.922l-6.258 3.206-.234-.456 6.258-3.205zM379.993 175.583l-6.201 3.311-.242-.451 6.201-3.311zM378.743 173.261l-6.101 3.405-.25-.447 6.101-3.405zM376.108 168.719l-5.995 3.611-.264-.438 5.995-3.611zM374.753 166.436l-5.906 3.707-.273-.433 5.907-3.707zM373.321 164.192l-5.83 3.842-.282-.427 5.83-3.842zM371.909 161.998l-5.783 3.914-.288-.423 5.783-3.915zM368.894 157.686l-5.641 4.106-.302-.414 5.641-4.105zM367.324 155.562l-5.533 4.185-.309-.408 5.533-4.185zM360.27 157.75l-.016.012-.315-.403 5.507-4.281.001-.001.315.403v.001l-5.476 4.29zM364.095 151.398l-5.399 4.389-.323-.396 5.398-4.39zM360.724 147.355l-5.248 4.567-.337-.386 5.249-4.567zM358.986 145.375l-5.152 4.65-.343-.38 5.152-4.65zM357.207 143.427l-5.052 4.726-.35-.373 5.052-4.726zM355.402 141.513l-4.994 4.831-.357-.367 4.995-4.831zM351.687 137.784l-4.801 4.979-.369-.355 4.801-4.979zM349.784 135.968l-4.74 5.077-.375-.349 4.74-5.077zM347.842 134.183l-4.626 5.143-.381-.342 4.625-5.143zM345.871 132.437l-4.546 5.225-.387-.335 4.547-5.226zM341.85 129.028l-4.352 5.374-.399-.322 4.353-5.374zM339.783 127.398l-4.266 5.459-.404-.315 4.266-5.459zM337.692 125.79l-4.18 5.545-.41-.308 4.181-5.545zM335.583 124.224l-4.06 5.587-.415-.301 4.061-5.587zM331.269 121.192l-3.882 5.762-.426-.286 3.883-5.762zM329.072 119.749l-3.761 5.786-.43-.278 3.761-5.787zM326.841 118.31l-3.683 5.885-.435-.271 3.684-5.886zM324.618 116.94l-3.58 5.955-.439-.263 3.579-5.955zM320.059 114.304l-3.371 6.066-.448-.248 3.371-6.066zM317.744 113.046l-3.258 6.121-.453-.24 3.259-6.121zM315.428 111.863l-3.135 6.139-.456-.233 3.134-6.138zM313.042 110.644l-3.045 6.235-.461-.224 3.046-6.235zM308.279 108.421l-2.811 6.298-.468-.208 2.811-6.298zM305.864 107.368l-2.717 6.37-.472-.2 2.718-6.37zM303.431 106.359l-2.604 6.408-.475-.192 2.604-6.409zM300.974 105.399l-2.473 6.43-.478-.183 2.472-6.43zM296.029 103.588l-2.253 6.519-.485-.167 2.254-6.519zM293.531 102.751l-2.143 6.548-.487-.159 2.143-6.548zM291.006 101.948l-2.022 6.617-.49-.149 2.021-6.617zM288.496 101.215l-1.912 6.616-.493-.142 1.913-6.616zM283.398 99.845l-1.69 6.7-.497-.125 1.69-6.7zM280.833 99.226l-1.557 6.704-.499-.116 1.557-6.703zM278.264 98.658l-1.451 6.755-.501-.107 1.451-6.756zM275.675 98.132l-1.334 6.787-.503-.098 1.334-6.787zM270.489 97.222l-1.095 6.826-.506-.081 1.095-6.826zM267.882 96.838l-.977 6.839-.507-.072.976-6.84zM265.258 96.491l-.85 6.84-.509-.063.851-6.84zM262.643 96.19l-.734 6.889-.51-.054.734-6.888zM257.39 95.734l-.496 6.899-.511-.037.496-6.899zM254.776 95.583l-.393 6.922-.511-.029.393-6.922zM252.122 95.461l-.256 6.92-.512-.019.256-6.92zM249.487 95.396l-.137 6.933-.513-.01.138-6.934zM244.203 95.398l.108 6.93-.512.008-.108-6.93zM241.607 95.488l.226 6.962-.512.016-.226-6.961zM238.939 95.586l.341 6.964-.511.025-.341-6.964zM236.269 95.729l.492 6.952-.511.036-.492-6.952zM231.058 96.185l.714 6.944-.51.053-.714-6.944zM228.401 96.55l.834 6.922-.509.061-.834-6.922zM225.802 96.865l.959 6.94-.508.07-.959-6.94zM222.656 97.326l.506-.08.001.001 1.107 6.917-.506.081-.002-.015-.029.005-1.077-6.908M217.993 98.171l1.326 6.899-.503.096-1.326-6.898zM215.388 98.697l1.452 6.853-.502.106-1.452-6.853zM212.827 99.276l1.568 6.856-.5.114-1.567-6.856zM210.26 99.896l1.681 6.831-.498.122-1.681-6.831zM205.16 101.265l1.926 6.782-.493.139-1.926-6.782zM202.626 102.023l2.047 6.744-.49.148-2.048-6.743zM200.096 102.833l2.171 6.687-.488.158-2.17-6.687zM197.602 103.657l2.286 6.69-.485.165-2.286-6.69zM192.65 105.473l2.502 6.598-.479.181-2.502-6.598zM190.184 106.436l2.633 6.573-.476.19-2.633-6.573zM187.731 107.448l2.751 6.496-.472.199-2.751-6.496zM185.308 108.503l2.871 6.475-.468.207-2.871-6.475zM180.545 110.754l3.088 6.365-.461.223-3.088-6.365zM178.176 111.885l3.193 6.371-.458.229-3.193-6.371zM175.811 113.138l3.317 6.28-.453.239-3.318-6.28zM173.487 114.404l3.431 6.209-.449.247-3.431-6.209zM168.871 117.029l3.686 6.111-.439.264-3.686-6.111zM166.678 118.446l3.733 6.03-.436.269-3.733-6.03zM164.412 119.849l3.879 5.996-.43.277-3.879-5.996zM162.216 121.307l3.965 5.91-.426.284-3.964-5.909zM157.874 124.345l4.196 5.79-.415.3-4.197-5.79zM155.746 125.911l4.287 5.696-.41.308-4.286-5.697zM153.642 127.516l4.408 5.658-.405.314-4.408-5.658zM151.584 129.17l4.507 5.58-.399.321-4.507-5.579zM147.522 132.57l4.716 5.437-.387.335-4.716-5.437zM145.54 134.316l4.809 5.355-.381.342-4.809-5.355zM143.592 136.106l4.906 5.265-.375.349-4.906-5.266zM141.667 137.924l5.022 5.206-.369.355-5.022-5.206zM137.926 141.658l5.211 5.034-.356.368-5.211-5.034zM136.098 143.578l5.304 4.951-.35.374-5.304-4.951zM134.311 145.527l5.373 4.847-.343.38-5.374-4.847zM132.559 147.501l5.491 4.769-.336.386-5.491-4.769zM129.14 151.559l5.65 4.571-.323.398-5.65-4.571zM127.495 153.628l5.771 4.505-.316.403-5.77-4.504zM125.881 155.721l5.849 4.414-.309.408-5.849-4.414zM124.306 157.832l5.909 4.312-.303.413-5.908-4.312zM121.257 162.179l6.103 4.116-.287.424-6.103-4.116zM119.793 164.378l6.166 4.008-.28.429-6.165-4.008zM118.347 166.598l6.279 3.92-.271.434-6.28-3.92zM116.983 168.863l6.342 3.811-.264.438-6.343-3.811zM114.34 173.449l6.493 3.598-.249.447-6.492-3.598zM113.046 175.757l6.559 3.483-.24.452-6.559-3.483zM111.824 178.105l6.609 3.366-.233.456-6.609-3.366zM110.636 180.473l6.7 3.256-.224.46-6.7-3.256zM108.401 185.275l6.809 3.02-.208.467-6.809-3.019zM107.333 187.683l6.879 2.915-.2.471-6.879-2.915zM106.305 190.129l6.918 2.784-.192.474-6.918-2.783zM105.327 192.582l6.974 2.671-.183.477-6.975-2.67zM103.499 197.579l7.082 2.389-.011.03.003.001-.166.484-7.073-2.42h-.001l.165-.485zM102.627 200.045l7.134 2.301-.157.487-7.134-2.301zM101.855 202.571l7.191 2.188-.15.49-7.19-2.189zM101.091 205.105l7.213 2.056-.141.492-7.212-2.056zM99.707 210.215l7.319 1.81-.123.496-7.32-1.809zM99.082 212.782l7.317 1.672-.115.499-7.317-1.673zM98.491 215.371l7.399 1.547-.105.501-7.399-1.548zM97.988 217.972l7.406 1.407-.003.018.027.005-.097.502-7.43-1.429.096-.503M97.027 223.156l7.493 1.166-.079.506-7.493-1.167zM96.625 225.764l7.517 1.045-.071.506-7.517-1.045zM96.268 228.385l7.533.909-.062.508-7.533-.909zM95.918 231.024l7.595.755-.051.509-7.595-.755zM95.48 236.275l7.607.516-.035.511-7.606-.517zM95.307 238.911l7.647.385-.026.511-7.647-.385zM95.18 241.552l7.637.244-.016.512-7.637-.244zM95.106 244.192l7.667.116-.008.511-7.666-.116zM95.1 249.449l7.643-.124.008.512-7.643.124zM95.139 252.113l7.702-.289.019.512-7.702.289zM95.243 254.753l7.707-.422.028.511-7.707.422zM95.394 257.391l7.687-.56.038.51-7.688.56zM95.835 262.652l7.697-.827.054.509-7.697.826zM96.102 265.3l7.71-.991.066.508-7.711.991zM96.453 267.9l7.697-1.107.073.506-7.697 1.108zM96.83 270.504l7.67-1.232.082.506-7.67 1.232zM97.732 275.712l7.659-1.51.1.502-7.66 1.51zM98.246 278.297l7.603-1.632.108.5-7.604 1.632zM98.817 280.86l7.616-1.779.117.498-7.617 1.779zM99.419 283.44l7.593-1.91.125.496-7.593 1.911zM100.732 288.53l7.57-2.168.141.492-7.57 2.168zM101.496 291.079l7.499-2.31.151.489-7.499 2.31zM102.278 293.6l7.458-2.442.159.486-7.457 2.442zM103.105 296.098l7.438-2.579.168.483-7.438 2.579zM104.889 301.068l7.346-2.841.185.477-7.346 2.841zM105.842 303.525l7.306-2.973.193.474-7.305 2.973zM106.874 305.969l7.204-3.095.203.47-7.204 3.095zM107.901 308.39l7.205-3.222.21.467-7.205 3.222zM110.094 313.171l7.077-3.468.226.459-7.077 3.468zM111.268 315.535l7.039-3.607.234.456-7.039 3.606zM112.477 317.876l6.973-3.726.242.451-6.973 3.726zM113.734 320.172l6.908-3.846.249.447-6.907 3.846zM116.344 324.776l6.775-4.086.265.438-6.775 4.086zM117.708 327.025l6.72-4.208.272.433-6.719 4.208zM119.128 329.244l6.643-4.325.28.429-6.643 4.324zM120.563 331.455l6.556-4.438.287.423-6.555 4.439zM123.579 335.779l6.426-4.685.302.414-6.426 4.684zM125.134 337.899l6.313-4.768.309.408-6.313 4.768zM126.707 339.98l6.265-4.905.316.403-6.265 4.904zM128.352 342.084l6.177-5.019.323.397-6.177 5.019zM131.73 346.095l6.012-5.232.337.386-6.012 5.232zM133.46 348.066l5.909-5.336.344.379-5.91 5.336zM135.237 350.021l5.841-5.421.349.375-5.841 5.42zM137.072 351.944l5.737-5.554.357.368-5.738 5.553zM140.782 355.68l5.543-5.747.369.355-5.543 5.747zM142.698 357.493l5.451-5.854.376.349-5.452 5.854zM144.635 359.277l5.333-5.931.381.342-5.333 5.931zM146.56 361.001l5.283-6.015.385.337-5.282 6.015zM150.642 364.433l5.029-6.216.398.322-5.028 6.215zM152.685 366.068l4.941-6.329.404.314-4.941 6.33zM154.77 367.673l4.838-6.416.409.308-4.838 6.416zM156.884 369.243l4.702-6.477.414.3-4.701 6.477zM161.189 372.261l4.502-6.664.425.286-4.502 6.664zM163.379 373.719l4.363-6.718.43.279-4.363 6.717zM165.612 375.147l4.274-6.832.435.271-4.275 6.832zM167.843 376.545l4.157-6.909.439.264-4.157 6.908zM181.56 383.84l3.409-7.285.929.433-3.409 7.285zM193.721 388.907l2.756-7.544.963.35-2.756 7.545zM206.3 392.906l2.08-7.717.989.266-2.079 7.717zM219.122 395.761l1.403-7.843 1.009.18-1.404 7.843zM232.17 397.531l.712-7.943 1.021.091-.712 7.943zM258.551 397.508l-.674-7.918 1.021-.087.674 7.918zM271.629 395.813l-1.358-7.796 1.01-.176 1.358 7.796zM284.526 392.972l-2.021-7.617.991-.262 2.021 7.617zM297.114 389.015l-2.667-7.391.965-.347 2.666 7.391zM309.333 383.975l-3.288-7.096.93-.43 3.288 7.096zM332.22 370.805l-4.399-6.314.842-.585 4.399 6.314zM342.737 362.778l-4.894-5.848.786-.656 4.895 5.847zM352.507 353.866l-5.382-5.395.727-.722 5.381 5.394zM361.46 344.174l-5.813-4.883.66-.783 5.813 4.882zM369.565 333.675l-6.188-4.328.588-.838 6.188 4.328zM382.87 310.841l-6.77-3.15.433-.928 6.77 3.151zM387.986 298.644l-6.959-2.526.35-.962 6.959 2.526zM391.994 286.041l-7.042-1.867.263-.99 7.042 1.868zM394.95 273.168l-7.158-1.245.176-1.008 7.158 1.245zM396.746 260.074l-7.214-.617.087-1.019 7.215.616zM396.901 233.695l-7.156.64-.092-1.02 7.156-.64zM395.27 220.608l-7.04 1.25-.18-1.007 7.04-1.251zM392.471 207.71l-6.853 1.848-.267-.988 6.853-1.848zM388.612 195.125l-6.651 2.436-.353-.961 6.651-2.436zM383.602 182.901l-6.388 2.994-.436-.926 6.388-2.995zM370.539 160.076l-5.681 3.973-.588-.838 5.681-3.973zM362.583 149.552l-5.283 4.456-.662-.782 5.284-4.456zM353.74 139.812l-4.894 4.906-.727-.722 4.895-4.907zM344.065 130.886l-4.454 5.315-.786-.657 4.454-5.315zM333.643 122.835l-3.978 5.679-.84-.586 3.978-5.68zM310.903 109.622l-2.933 6.274-.928-.433 2.932-6.274zM298.751 104.558l-2.375 6.495-.962-.351 2.374-6.495zM286.198 100.56l-1.792 6.659-.99-.266 1.793-6.659zM273.338 97.702l-1.207 6.77-1.01-.18 1.207-6.77zM260.289 95.936l-.619 6.891-1.021-.091.619-6.892zM233.929 95.937l.586 6.961-1.021.086-.586-6.962zM220.843 97.655l1.196 6.905-1.01.174-1.196-6.905zM207.947 100.493l1.8 6.782-.991.262-1.8-6.782zM195.352 104.449l2.392 6.634-.965.347-2.391-6.634zM183.138 109.49l2.985 6.433-.93.43-2.985-6.432zM160.242 122.657l4.094 5.858-.841.585-4.094-5.857zM149.735 130.69l4.598 5.486-.786.657-4.598-5.486zM139.955 139.597l5.098 5.105-.726.723-5.098-5.105zM130.993 149.319l5.59 4.691-.66.783-5.59-4.69zM122.906 159.789l6.033 4.222-.588.838-6.033-4.221zM109.598 182.625l6.756 3.143-.433.928-6.756-3.143zM104.468 194.833l7.045 2.548-.349.962-7.045-2.548zM100.446 207.408l7.265 1.933-.263.989-7.266-1.933zM97.517 220.296l7.428 1.293-.176 1.008-7.428-1.293zM95.716 233.384l7.588.642-.086 1.02-7.588-.642zM95.558 259.771l7.714-.699.093 1.019-7.714.7zM97.21 272.866l7.672-1.375.181 1.007-7.672 1.376zM100.023 285.773l7.508-2.059.271.987-7.507 2.059zM103.889 298.351l7.372-2.699.353.961-7.372 2.699zM108.867 310.557l7.153-3.351.436.927-7.154 3.351zM121.902 333.418l6.5-4.561.589.837-6.5 4.562zM129.879 343.908l6.078-5.112.66.783-6.078 5.112zM138.726 353.642l5.634-5.64.726.723-5.635 5.64zM148.401 362.579l5.15-6.146.786.657-5.15 6.145zM158.808 370.624l4.62-6.586.84.587-4.621 6.587z" clip-rule="evenodd"/><path fill-rule="evenodd" d="M336.663 90.603C250.904 41.162 141.022 70.88 91.236 156.986c-49.786 86.107-20.62 195.988 65.139 245.429 85.759 49.44 195.641 19.722 245.427-66.384 49.786-86.107 20.619-195.988-65.139-245.428M90.55 156.59C140.553 70.11 250.918 40.257 337.06 89.918s115.431 160.027 65.429 246.508C352.485 422.907 242.12 452.761 155.979 403.1 69.839 353.438 40.548 243.072 90.55 156.591" clip-rule="evenodd"/><path fill-rule="evenodd" d="M245.749 250.854v-8.388h1.236v8.388z" clip-rule="evenodd"/><path fill-rule="evenodd" d="M250.545 247.281h-8.347v-1.235h8.347z" clip-rule="evenodd"/><path fill-rule="evenodd" d="M246.515 227.965c-10.196 0-18.467 8.299-18.467 18.543s8.271 18.544 18.467 18.544 18.467-8.299 18.467-18.544c0-10.244-8.271-18.543-18.467-18.543m-19.702 18.543c0-10.919 8.817-19.778 19.702-19.778s19.702 8.859 19.702 19.778c0 10.92-8.817 19.778-19.702 19.778s-19.702-8.858-19.702-19.778" clip-rule="evenodd"/><path fill-rule="evenodd" d="M322.089 115.448c-72.28-41.67-164.81-16.762-206.67 55.637s-17.199 164.869 55.082 206.54c72.28 41.67 164.809 16.761 206.67-55.638 41.86-72.398 17.198-164.869-55.082-206.539m-207.114 55.381c42.001-72.642 134.844-97.637 207.37-55.824 72.527 41.812 97.271 134.596 55.27 207.238-42.002 72.643-134.844 97.637-207.371 55.825-72.526-41.813-97.27-134.597-55.269-207.239" clip-rule="evenodd"/><path fill-rule="evenodd" d="M275.06 197.149c-27.15-15.652-61.938-6.244-77.701 21.018s-6.528 62.05 20.622 77.702 61.939 6.244 77.701-21.018c15.763-27.262 6.528-62.05-20.622-77.702m-78.23 20.713c15.93-27.551 51.091-37.063 78.536-21.241 27.444 15.822 36.775 50.984 20.845 78.535s-51.091 37.063-78.535 21.241c-27.445-15.822-36.776-50.984-20.846-78.535" clip-rule="evenodd"/><path d="M184.646 217.506v5.818h-.705v-5.079h-.034l-1.421.943v-.716l1.455-.966zm1.773 5.818v-.511l1.92-2.102q.339-.37.557-.642a2.4 2.4 0 0 0 .324-.518q.108-.243.108-.511a.94.94 0 0 0-.545-.878 1.3 1.3 0 0 0-.569-.122q-.335 0-.585.139a.95.95 0 0 0-.383.384 1.2 1.2 0 0 0-.134.579h-.67q0-.511.235-.897.237-.387.642-.603.41-.216.918-.216.512 0 .906.216.395.216.62.583.224.366.224.815 0 .32-.116.628a2.8 2.8 0 0 1-.398.679q-.282.372-.781.909l-1.307 1.398v.045h2.704v.625zM185.617 251.506v5.818h-.704v-5.079h-.034l-1.421.943v-.716l1.455-.966zM194.509 287.324v-.511l1.921-2.102q.338-.37.557-.642a2.4 2.4 0 0 0 .324-.518q.108-.243.108-.511a.95.95 0 0 0-.148-.531.96.96 0 0 0-.398-.347 1.3 1.3 0 0 0-.568-.122q-.336 0-.585.139a.96.96 0 0 0-.384.384 1.2 1.2 0 0 0-.133.579h-.671q0-.512.236-.897.236-.387.642-.603.41-.216.918-.216.512 0 .906.216.395.216.619.583.225.366.225.815 0 .32-.117.628a2.8 2.8 0 0 1-.398.679q-.28.372-.781.909l-1.307 1.398v.045h2.705v.625zM219.85 307.404a2.5 2.5 0 0 1-1.002-.193 1.7 1.7 0 0 1-.696-.537 1.44 1.44 0 0 1-.279-.804h.716q.023.28.193.485.171.202.446.313.276.111.611.111.375 0 .665-.131a1.1 1.1 0 0 0 .454-.364.9.9 0 0 0 .165-.539q0-.321-.159-.566a1.06 1.06 0 0 0-.466-.386 1.8 1.8 0 0 0-.75-.139h-.466v-.625h.466q.347 0 .608-.125a.945.945 0 0 0 .563-.887 1 1 0 0 0-.131-.514.9.9 0 0 0-.369-.341 1.2 1.2 0 0 0-.557-.122q-.301 0-.568.111-.265.108-.432.315a.82.82 0 0 0-.182.495h-.682q.017-.457.276-.802a1.7 1.7 0 0 1 .676-.539 2.2 2.2 0 0 1 .923-.194q.54 0 .926.219.387.216.594.571a1.5 1.5 0 0 1 .207.767q0 .492-.258.838a1.3 1.3 0 0 1-.696.48v.046q.55.091.861.469.309.375.309.929 0 .474-.258.852-.256.375-.699.591a2.3 2.3 0 0 1-1.009.216M249.729 311.131v-.58l2.556-4.045h.421v.898h-.284l-1.932 3.057v.045h3.443v.625zm2.738 1.193v-5.8180000000000005h.671v5.818zM283.316 301.404q-.5 0-.901-.199a1.7 1.7 0 0 1-.642-.546 1.5 1.5 0 0 1-.264-.789h.682a.93.93 0 0 0 .358.653q.321.256.767.256a1.2 1.2 0 0 0 1.077-.628q.162-.296.162-.668 0-.38-.168-.679-.165-.3-.455-.474a1.3 1.3 0 0 0-.661-.176 1.8 1.8 0 0 0-.549.082 1.5 1.5 0 0 0-.463.213l-.659-.079.352-2.864h3.023v.625h-2.432l-.204 1.716h.034q.179-.142.449-.236t.562-.094a1.79 1.79 0 0 1 1.611.949q.241.44.241 1.006 0 .557-.25.994-.247.435-.681.688-.435.25-.989.25M304.367 276.404a2.2 2.2 0 0 1-.716-.137 1.7 1.7 0 0 1-.653-.44q-.295-.312-.475-.844-.179-.534-.179-1.341 0-.772.145-1.369.145-.6.421-1.008.275-.412.664-.625.392-.213.884-.214.49 0 .869.197.384.192.625.539.241.346.313.799h-.693a1.3 1.3 0 0 0-.375-.651q-.279-.258-.739-.259-.677 0-1.065.589-.387.588-.39 1.65h.046a1.7 1.7 0 0 1 .866-.679 1.7 1.7 0 0 1 .566-.094q.5 0 .915.25.415.247.664.685.25.435.25.997 0 .54-.241.989a1.85 1.85 0 0 1-.679.71q-.435.261-1.023.256m0-.625q.358 0 .642-.179.287-.18.452-.48.168-.302.167-.671 0-.36-.161-.656a1.24 1.24 0 0 0-.441-.474 1.16 1.16 0 0 0-.636-.177q-.27 0-.503.108-.233.105-.409.29a1.4 1.4 0 0 0-.273.423 1.342 1.342 0 0 0 .512 1.631q.287.185.65.185M307.828 242.324l2.602-5.148v-.045h-3v-.625h3.728v.659l-2.591 5.159zM297.33 211.404q-.585 0-1.034-.208a1.7 1.7 0 0 1-.696-.576 1.45 1.45 0 0 1-.247-.841 1.54 1.54 0 0 1 .548-1.208q.26-.213.577-.27v-.034a1.12 1.12 0 0 1-.665-.468 1.4 1.4 0 0 1-.244-.827q-.003-.444.224-.793.228-.349.625-.551.4-.201.912-.202.505 0 .904.202.397.202.625.551.23.35.233.793a1.45 1.45 0 0 1-.253.827q-.248.36-.657.468v.034q.316.057.569.27.252.211.403.526.15.313.153.682a1.47 1.47 0 0 1-.255.841 1.7 1.7 0 0 1-.696.576 2.4 2.4 0 0 1-1.026.208m0-.625q.395 0 .682-.128t.443-.361a.97.97 0 0 0 .159-.545 1.05 1.05 0 0 0-.17-.583 1.15 1.15 0 0 0-.458-.397 1.4 1.4 0 0 0-.656-.145q-.372 0-.665.145a1.16 1.16 0 0 0-.457.397q-.165.253-.162.583a.95.95 0 0 0 .151.545q.155.233.446.361.29.128.687.128m0-2.762q.313 0 .554-.125a.95.95 0 0 0 .384-.349q.138-.225.142-.526a1 1 0 0 0-.139-.514.9.9 0 0 0-.378-.341 1.24 1.24 0 0 0-.563-.122q-.327 0-.571.122a.9.9 0 0 0-.378.341.95.95 0 0 0-.13.514.97.97 0 0 0 .133.526q.14.225.384.349.244.125.562.125M272.288 185.426q.357.003.715.137t.654.443q.296.307.474.838.18.531.179 1.332 0 .777-.147 1.378-.145.6-.421 1.012a1.87 1.87 0 0 1-.665.625 1.8 1.8 0 0 1-.88.213q-.489 0-.873-.193a1.7 1.7 0 0 1-.625-.543 1.9 1.9 0 0 1-.309-.81h.693q.094.4.372.662.282.26.742.259.673 0 1.062-.588.392-.588.392-1.662h-.045a1.692 1.692 0 0 1-.864.679 1.7 1.7 0 0 1-.568.093 1.77 1.77 0 0 1-.918-.247 1.9 1.9 0 0 1-.664-.684 2 2 0 0 1-.248-1q0-.534.239-.978.241-.446.676-.71.438-.264 1.029-.256m0 .625q-.358 0-.645.179a1.3 1.3 0 0 0-.452.478q-.165.298-.165.662 0 .363.159.662.162.296.441.471.28.174.639.173a1.21 1.21 0 0 0 .909-.397q.176-.187.275-.424.1-.238.1-.497a1.3 1.3 0 0 0-.165-.639 1.3 1.3 0 0 0-.449-.483 1.16 1.16 0 0 0-.647-.185M236.567 180.506v5.818h-.704v-5.079h-.034l-1.421.943v-.716l1.455-.966zm3.671 5.898q-.642 0-1.093-.35-.452-.352-.691-1.02-.238-.67-.238-1.619 0-.944.238-1.611.241-.67.694-1.022a1.7 1.7 0 0 1 1.09-.356q.637 0 1.089.356.454.351.693 1.022.241.667.241 1.611 0 .949-.238 1.619-.24.668-.691 1.02-.451.35-1.094.35m0-.625q.637 0 .989-.614.352-.613.352-1.75 0-.756-.162-1.287-.159-.531-.46-.809a1.01 1.01 0 0 0-.719-.279q-.63 0-.985.622-.355.62-.355 1.753 0 .756.159 1.284t.457.804q.301.276.724.276M205.708 192.506v5.818h-.704v-5.079h-.035l-1.42.943v-.716l1.455-.966zm3.819 0v5.818h-.705v-5.079h-.034l-1.42.943v-.716l1.454-.966z"/><path fill-rule="evenodd" d="M282.252 184.71c-33.992-19.597-77.548-7.818-97.283 26.314-19.735 34.133-8.173 77.688 25.819 97.285s77.548 7.818 97.283-26.315c19.736-34.132 8.173-77.687-25.819-97.284m-97.945 25.932c19.944-34.494 63.966-46.403 98.328-26.594 34.361 19.81 46.043 63.834 26.099 98.328-19.945 34.495-63.967 46.404-98.328 26.594s-46.044-63.833-26.099-98.328" clip-rule="evenodd"/><path fill-rule="evenodd" d="m371.253 174.597-74.924 43.727-.379-.65 74.924-43.727zM197.208 275.975l-75.219 43.365-.379-.651 75.219-43.365zM319.182 122.353l-43.701 74.349-.652-.378 43.701-74.349zM217.981 296.202l-43.652 75.111-.651-.378 43.651-75.111zM370.971 319.157l-75.143-43.833.378-.651 75.143 43.833zM196.828 218.324l-75.332-43.546.378-.651 75.332 43.546zM317.85 371.703l-43.175-75.504.654-.375 43.174 75.504zM217.675 197.199l-43.315-75.242.654-.374 43.315 75.241z" clip-rule="evenodd"/><path fill-rule="evenodd" d="m337.33 90.324-18.126 31.663a142.5 142.5 0 0 1 51.938 51.912l31.128-18.055.56.98-31.126 18.054a144.54 144.54 0 0 1 18.867 71.104l36.259-.092.003 1.129-36.23.092a144.15 144.15 0 0 1-19.28 71.178l31.007 18.035-.565.978-31.008-18.036a144.5 144.5 0 0 1-52.156 52.115l17.709 31.381-.98.562-17.711-31.382a145.1 145.1 0 0 1-71.02 19.099l-.094 35.783-1.13-.002.094-35.778a142.7 142.7 0 0 1-70.823-18.963l-18.318 31.243-.979-.564 18.319-31.244a142.45 142.45 0 0 1-51.74-51.844l-31.55 17.639-.55-.987 31.539-17.632a144.55 144.55 0 0 1-18.813-70.889l-36.223.085-.003-1.129 36.199-.085a144.1 144.1 0 0 1 19.196-71.168l-31.46-17.705.566-.977 31.459 17.704a144.4 144.4 0 0 1 51.874-52.042L155.83 91.324l.98-.562 18.329 31.157a145.1 145.1 0 0 1 70.977-19.309l.094-36.288 1.13.002-.094 36.28a142.7 142.7 0 0 1 70.979 18.819l18.126-31.663zm-90.648 13.411a143.96 143.96 0 0 0-71.467 19.444 143.3 143.3 0 0 0-52.23 52.401l-.083.144a143 143 0 0 0-19.244 70.948h.026l-.001.566a143.4 143.4 0 0 0 18.948 71.389 141.3 141.3 0 0 0 52.091 52.195l.129.074a141.6 141.6 0 0 0 71.183 19.019 144 144 0 0 0 71.517-19.236l.002.004a143.37 143.37 0 0 0 52.508-52.469l.083-.144a143 143 0 0 0 19.328-70.957l-.032.001v-.567a143.4 143.4 0 0 0-18.997-71.599 141.37 141.37 0 0 0-52.165-52.191l-.129-.075a141.55 141.55 0 0 0-71.467-18.947" clip-rule="evenodd"/><path fill-rule="evenodd" d="m247.245 102.679-.216 86.145-.754-.003.217-86.144zm-.661 201.145-.217 86.781-.753-.002.216-86.782zM390.598 246.719l-86.767.149-.002-.753 86.767-.149zm-201.267.454-87.079.148-.002-.752 87.079-.149z" clip-rule="evenodd"/></g></svg>