<svg xmlns="http://www.w3.org/2000/svg" width="802" height="802" fill="none"><path fill="#fff" d="M141.843 670.999q1.477 3.287 1.622 6.478.144 3.192-1.186 5.765l-2.855-1.332q1.567-3.192.328-7.479-1.192-4.335-4.668-7.81t-7.853-4.711q-4.284-1.236-7.422.386l-1.382-2.906q2.616-1.287 5.804-1.147 3.188.141 6.424 1.568l12.505-12.537q-1.477-3.19-1.621-6.382-.097-3.24 1.185-5.861l2.856 1.428q-1.569 3.097-.376 7.432 1.287 4.334 4.763 7.809t7.758 4.712 7.47-.338l1.381 2.809q-2.568 1.336-5.851 1.195-3.188-.14-6.377-1.616zm-8.285-9.617q2.142 1.38 3.761 2.999a21 21 0 0 1 2.952 3.713l11.174-11.202a21 21 0 0 1-3.713-2.951q-1.619-1.619-3-3.762zM25.048 483.825q4.438-.096 8.323 1.912a17.25 17.25 0 0 1 6.277 5.469 10 10 0 0 1 2.583-3.634q1.624-1.49 3.898-2.11a9.63 9.63 0 0 1 5.157-.013q2.475.649 4.367 2.503 1.809 1.808 2.506 4.407a9.93 9.93 0 0 1 .036 5.081 10.3 10.3 0 0 1-2.504 4.45q-1.878 1.838-4.478 2.547a9.5 9.5 0 0 1-4.42.161 10.6 10.6 0 0 1-4.063-1.89q-.367 4.355-2.673 7.983-2.37 3.646-6.25 5.821l-1.516-2.794q4.317-2.364 6.25-6.867 1.914-4.568.643-9.311-1.272-4.745-5.188-7.65-3.934-2.97-8.862-2.881zm25.347 17.558q2.664-.727 4.044-3.127t.665-5.063q-.713-2.664-3.103-4.034t-5.054-.643-4.044 3.126q-1.38 2.4-.665 5.064.697 2.599 3.103 4.034 2.39 1.37 5.054.643M31.159 291.312q.592-2.21 2.638-3.339 1.982-1.147 4.196-.561 1.629.43 2.705 1.619a5.8 5.8 0 0 1 1.314 2.644q.321 1.407.024 2.512l-3.061-.809q.14-.52-.22-1.52-.408-1.081-1.58-1.392-.913-.24-1.803.22-.873.396-1.152 1.435-.33 1.236 1.97 3.583 2.252 2.265 7.536 5.193a91 91 0 0 0 8.436 4.178q4.432 1.937 7.116 2.855l-.8 2.989q-2.79-.528-7.605-1.035a91 91 0 0 0-9.411-.538q-6.05-.067-9.156.852-3.154.837-3.484 2.072-.279 1.04.263 1.879.56.774 1.472 1.015 1.172.309 2.05-.363.83-.755.97-1.275l3.06.809q-.296 1.105-1.295 2.233-.982 1.062-2.446 1.58-1.53.501-3.158.071-2.214-.585-3.36-2.559-1.21-1.99-.618-4.199.732-2.73 4.628-3.997 3.85-1.35 11.093-1.314 1.604.006 6.063.28-4.007-1.964-5.4-2.75-6.305-3.545-8.987-6.55-2.73-3.088-1.998-5.818M145.407 136.28q3.186 2.622 7.278 3.006 4.09.288 7.613-1.901l1.664 2.717q-4.475 2.76-9.66 2.328-5.138-.48-9.133-3.912l-4.713 4.713q3.471 3.956 3.896 9.149t-2.29 9.622l-2.711-1.669q2.191-3.524 1.86-7.574-.33-4.145-2.992-7.29l-4.38 4.38-2.235-2.241 4.332-4.332q-3.138-2.289-6.992-2.434-3.807-.193-7.138 1.901l-1.616-2.669q4.189-2.665 9.136-2.376 4.948.289 8.848 3.34l4.808-4.808q-2.995-3.957-3.277-8.911t2.385-9.145l2.616 1.669q-2.049 3.285-1.861 7.192.14 3.86 2.375 6.957l4.332-4.332 2.235 2.24zM287.867 45.131l5.561-9.098 5.532 3.152 3.289-5.377 5.497 3.023 3.32-5.524 9.299 5.116-1.555 2.768-6.622-3.62-3.273 5.442-5.562-3.005-3.289 5.377-5.579-3.07-3.909 6.442zm9.655 6.473 5.514 3.087 3.307-5.312 5.48 2.958 3.337-5.459 9.299 5.116-1.555 2.768-6.64-3.684-3.255 5.506-5.562-3.005-3.289 5.377-5.597-3.135-3.891 6.507-2.71-1.626zM672.391 153.925l-2.229-2.228 7.055-7.072-24.447.015-.042 8.206-3.127.002.042-8.206-8.433.005.045-3.179 8.339-.005.042-8.206 3.127-.002.005 8.254 8.386-.053 16.061.038-7.111-7.111 2.226-2.231 10.903 10.904zM736.563 327.365l1.629-2.736 2.708 1.552-.295-1.1q-.798-2.976.766-5.696 1.563-2.718 4.605-3.549l-.018-.065 8.431-2.232 12.879-3.516q2.913-.795 3.464-1.849.615-1.07.321-2.171-.348-1.294-1.444-1.759t-3.88.295l-13.785 3.764-9.06 2.474-.815-3.042 9.06-2.474 13.85-3.781q2.912-.795 3.463-1.849.616-1.07.322-2.171-.348-1.294-1.444-1.759t-3.88.295l-13.85 3.782-8.995 2.456-.815-3.042 9.06-2.474 13.85-3.781q4.336-1.184 3.92-2.737l3.042-.831q.572 2.136-.704 3.596 2.146 1.011 2.857 3.665.763 2.848-.797 4.801 2.341.958 3.086 3.742.47 1.747-.026 3.271-.495 1.524-1.857 2.66-1.539 1.253-4.128 1.961l-12.896 3.451-8.414 2.297.018.065q-1.747.477-2.713 2.06-.9 1.566-.431 3.313l.277 1.035 1.563-2.719 2.79 1.6-4.263 7.415zM750.098 510.978l3.122-11.65 1.898 1.472a71 71 0 0 0 3.639 2.487q2.08 1.311 3.572 1.706 2.659.702 5.22-.561 2.544-1.2 3.359-4.241.815-3.042-.775-5.403t-4.249-3.063q-1.493-.394-3.953-.282a72 72 0 0 0-4.403.361l-2.383.341 3.121-11.65 3.049.806-1.908 7.119q5.086-.32 7.292.263 3.048.805 4.889 2.748 1.888 2.024 2.467 4.532.56 2.574-.099 5.033-.642 2.396-2.399 4.287-1.774 1.957-4.408 2.716-2.587.842-5.636.035-2.205-.582-6.459-3.37l-1.907 7.12zm.433-32.458-8.151 30.418-3.048-.805 8.15-30.418zM647.264 671.517q-2.282-2.288-3.898-5.528a25.4 25.4 0 0 1-2.374-6.671l-2.762 2.761-2.234-2.241 3.332-3.332a6.7 6.7 0 0 1 1.285-1q-.14-3.001.718-5.573t2.714-4.429l2.235 2.241q-2.284 2.285-2.526 6.62a8.15 8.15 0 0 1 3.378.335 8 8 0 0 1 2.901 1.86l.048-.047 6.134 6.149q3.804 3.909 9.414 9.534 2.187 2.193 3.377 2.146 1.237 0 2.046-.809.952-.952.763-2.191-.142-1.19-2.139-3.193l-10.175-10.201-6.657-6.674 2.237-2.238 6.657 6.674 10.176 10.201q2.187 2.193 3.376 2.146 1.237.001 2.047-.808.952-.952.762-2.191-.141-1.192-2.139-3.193l-10.175-10.202-6.657-6.673 2.238-2.238 6.657 6.674 10.175 10.201q3.233 3.242 4.376 2.099l2.235 2.24q-1.524 1.524-3.57 1.189.237 2.43-1.668 4.334-2.046 2.047-4.616 1.665.38 2.572-1.668 4.62-1.285 1.285-2.856 1.617t-3.235-.287q-1.856-.717-3.804-2.671l-2.901-2.907q-.239 1.571-1.524 2.857-2.857 2.856-5.806 1.425-2.996-1.383-5.897-4.291m.532-12.719a4.9 4.9 0 0 0-1.808-1.145 5 5 0 0 0-2.045-.144 22.1 22.1 0 0 0 1.946 6.433q1.473 3.192 3.613 5.338 3.138 3.145 4.708 3.48 1.522.382 2.522-.618 1.285-1.284.24-3.286-1.046-1.907-2.947-3.813l-.096-.096a532 532 0 0 0-6.086-6.197zM483.773 742.884q-.837-.053-1.688.344-.426.198-.613.434l-2.8-1.43q.576-1.155 2.157-1.893a6.35 6.35 0 0 1 2.894-.61 5.67 5.67 0 0 1 3.264.992q1.434 1.03 2.276 2.856 1.176 2.556 1.591 5.542.354 3.013.595 7.707.144 4 .511 6.563.308 2.592 1.205 4.539 1.176 2.556 4.033 3.146a7.2 7.2 0 0 0 2.6.192q1.202-.116 2.053-.513 1.155-.539 2.306-1.889 1.09-1.322 1.536-3.081.384-1.732-.429-3.497a9.8 9.8 0 0 0-1.196-1.956 73 73 0 0 0-1.935-2.276q-2.08-2.432-3.425-4.391-1.407-1.932-2.752-4.853-1.036-2.251-.213-4.632.852-2.319 3.102-3.369 2.25-1.049 4.559-.204 2.338.906 3.375 3.158t.185 4.571q-.852 2.32-3.102 3.369-.973.453-2.324.566a41 41 0 0 0 3.028 3.689q.29.31 1.098 1.262a33 33 0 0 1 1.467 1.904q.57.917.991 1.829 1.177 2.556.675 5.156-.5 2.6-2.092 4.598-1.652 2.027-3.536 2.906-1.4.653-3.199.752a10.2 10.2 0 0 1-3.498-.217q-2.141-.48-3.688-1.754a8.3 8.3 0 0 1-2.477-3.133q-1.065-2.313-1.424-5.177-.358-2.863-.553-7.135-.218-4.482-.581-7.195-.335-2.653-1.344-4.844-.897-1.947-2.632-2.026m20.148 2.212a2.94 2.94 0 0 0-1.598-1.547q-1.127-.362-2.161.121a2.67 2.67 0 0 0-1.427 1.552q-.426 1.16.079 2.255.476 1.035 1.603 1.397 1.093.45 2.128-.031 1.033-.483 1.459-1.642a2.66 2.66 0 0 0-.083-2.105M316.557 748.424a6 6 0 0 1 3.134-.004 5.37 5.37 0 0 1 2.65 1.589 5.6 5.6 0 0 1 1.537 2.653q.138.52.2 1.548l-.03.148q-.053 5.865-3.437 10.464t-9.045 6.116q-5.077 1.36-9.898-.274-4.87-1.551-8.073-5.499l3.449-.924q2.647 2.634 6.317 3.601 3.622 1.05 7.397.038 3.123-.837 5.365-2.9 2.178-2.046 3.493-4.976-2.407.645-4.546-.593-2.139-1.239-2.775-3.645-.636-2.407.609-4.552t3.653-2.79m1.637-3.295a14.44 14.44 0 0 0-6.269-3.684q-3.67-.967-7.444.044-3.124.838-5.318 2.818-2.242 2.064-3.559 4.994 2.408-.645 4.547.593 2.156 1.303 2.792 3.71t-.609 4.552-3.652 2.79a6 6 0 0 1-3.135.004 5.37 5.37 0 0 1-2.65-1.589q-1.108-1.026-1.537-2.653a5.6 5.6 0 0 1-.183-1.484l-.017-.065.03-.147q.053-5.866 3.437-10.464 3.32-4.582 9.046-6.116 5.076-1.36 9.945.191 4.822 1.634 8.025 5.582zm2.626 8.352q-.155-.585-.687-1.279a3.1 3.1 0 0 0-1.316-.761 3.1 3.1 0 0 0-1.453.041 2.67 2.67 0 0 0-1.68 1.286q-.623 1.073-.331 2.178.292 1.106 1.345 1.66 1.004.637 2.11.34a2.8 2.8 0 0 0 1.49-.956q.578-.712.598-1.693zm-20.935.943a2.96 2.96 0 0 0-1.314-1.808q-1.053-.554-2.159-.257a3.2 3.2 0 0 0-1.472 1.021 3.05 3.05 0 0 0-.598 1.693l-.03.147q-.014.213.106.668.189.716.735 1.197.496.563 1.251.779.753.216 1.47.024 1.106-.296 1.728-1.369a2.66 2.66 0 0 0 .283-2.095M508.274 50.739q2.398.642 3.626 2.775t.578 4.525-2.791 3.622q-2.06 1.182-4.475.605l-.064-.018a14.4 14.4 0 0 1-3.377-1.39q-1.615 1.856-4.425 2.213-2.79.293-5.841-.247-3.034-.605-7.635-1.838l.826-3.039q6.35 1.702 9.666 2.035 3.397.287 4.857-.987-1.87-1.819-2.492-4.136-.557-2.3.163-4.95l.843-3.104q.47-1.47 1.47-5.156.808-2.974.447-4.458-.297-1.467-1.917-1.901-1.813-.486-2.943.598-1.129 1.085-1.955 4.124l-3.003 11.057-3.046-.816 3.496-12.867q.597-2.199-.164-3.235-.68-1.084-3.336-1.796l.825-3.039q1.815.487 3.265 1.291 1.514.823 2.312 2.493 2.264-1.683 5.375-.85 1.88.506 2.976 1.839 1.097 1.335 1.319 3.336.238 1.936-.605 5.04-1 3.686-1.47 5.156l-.843 3.103q-.79 2.91.809 5.211.105-.387.093-.599l.065.017.041-.405q.65-2.392 2.791-3.622t4.539-.587m-4.285 5.025q-.298 1.1.251 2.148.632 1.002 1.733 1.297 1.167.312 2.155-.255 1.006-.631 1.305-1.731t-.333-2.101q-.55-1.05-1.651-1.344-1.102-.295-2.173.32a2.65 2.65 0 0 0-1.287 1.666"/><path stroke="#fff" d="M401.002 801.025c220.914 0 400-179.086 400-400s-179.086-400-400-400-400 179.086-400 400 179.086 400 400 400Z"/><path stroke="#fff" d="M401.001 734.359c184.095 0 333.334-149.238 333.334-333.333S585.096 67.692 401.001 67.692 67.668 216.931 67.668 401.026s149.238 333.333 333.333 333.333Z"/><path stroke="#fff" d="M401.003 717.692c174.89 0 316.666-141.777 316.666-316.667S575.893 84.358 401.003 84.358c-174.891 0-316.667 141.777-316.667 316.667s141.776 316.667 316.667 316.667Z"/><path stroke="#fff" d="M401.002 526.025c69.036 0 125-55.964 125-125 0-69.035-55.964-125-125-125s-125 55.965-125 125c0 69.036 55.964 125 125 125Z"/><path stroke="#fff" d="M401.003 442.692c23.011 0 41.666-18.655 41.666-41.667s-18.655-41.667-41.666-41.667c-23.012 0-41.667 18.655-41.667 41.667s18.655 41.667 41.667 41.667ZM1.002 401.025h275M801.002 401.025h-275"/><path stroke="#fff" stroke-width=".5" d="m67.72 395.208 16.664.291M67.72 406.843l16.664-.291M67.871 389.393l16.657.581M67.871 412.658l16.657-.581M68.125 383.581l16.644.872M68.125 418.47l16.644-.873M68.479 377.773l16.626 1.163M68.479 424.277l16.626-1.162M68.938 371.975l16.603 1.452M68.938 430.076l16.603-1.452"/><path stroke="#fff" d="m69.494 366.184 16.576 1.742M69.494 435.867l16.576-1.742"/><path stroke="#fff" stroke-width=".5" d="m70.152 360.402 16.543 2.031M70.152 441.648l16.543-2.031M70.914 354.634l16.504 2.319M70.914 447.417l16.504-2.32M71.773 348.88l16.462 2.607M71.773 453.171l16.462-2.607M72.734 343.143l16.414 2.894M72.734 458.908l16.414-2.894M73.791 337.422l16.36 3.18M73.791 464.629l16.36-3.18"/><path stroke="#fff" d="m74.953 331.722 16.303 3.465M74.953 470.329l16.303-3.465"/><path stroke="#fff" stroke-width=".5" d="m76.213 326.042 16.24 3.749M76.213 476.009l16.24-3.749M77.57 320.384l16.172 4.032M77.57 481.667l16.172-4.032M79.025 314.753l16.1 4.314M79.025 487.298l16.1-4.314M80.582 309.146l16.021 4.593M80.582 492.905l16.021-4.594M82.232 303.567l15.939 4.873M82.232 498.483l15.939-4.872"/><path stroke="#fff" d="m83.984 298.02 15.851 5.15M83.984 504.031l15.851-5.15"/><path stroke="#fff" stroke-width=".5" d="m85.83 292.503 15.759 5.426M85.83 509.548l15.759-5.426M87.77 287.019l15.661 5.7M87.77 515.032l15.661-5.7M89.807 281.569l15.559 5.973M89.807 520.481l15.559-5.972M91.94 276.157l15.453 6.244M91.94 525.894l15.453-6.244M94.166 270.781l15.342 6.512M94.166 531.27l15.342-6.513"/><path stroke="#fff" d="m96.486 265.446 15.226 6.779M96.486 536.604l15.226-6.778"/><path stroke="#fff" stroke-width=".5" d="m98.898 260.153 15.106 7.044M98.898 541.897l15.106-7.043M101.402 254.902l14.98 7.307M101.402 547.148l14.98-7.306M104 249.695l14.85 7.567M104 552.355l14.85-7.566M106.686 244.534l14.715 7.825M106.686 557.517l14.715-7.825M109.463 239.422l14.577 8.08M109.463 562.629l14.577-8.08"/><path stroke="#fff" d="m54.592 201.025 238.157 137.5M54.592 601.025l238.157-137.5"/><path stroke="#fff" stroke-width=".5" d="m115.279 229.346 14.286 8.584M115.279 572.705l14.286-8.584M118.32 224.387l14.134 8.832M118.32 577.664l14.134-8.832M121.445 219.479l13.978 9.078M121.445 582.571l13.978-9.077M124.658 214.627l13.817 9.32M124.658 587.424l13.817-9.32M127.951 209.834l13.653 9.56M127.951 592.217l13.653-9.56"/><path stroke="#fff" d="m131.33 205.098 13.484 9.796M131.33 596.953l13.484-9.796"/><path stroke="#fff" stroke-width=".5" d="m134.791 200.42 13.311 10.03M134.791 601.631l13.311-10.03M138.332 195.806l13.134 10.261M138.332 606.245l13.134-10.261M141.953 191.252l12.953 10.489M141.953 610.799l12.953-10.489M145.654 186.763l12.768 10.713M145.654 615.288l12.768-10.713M149.434 182.339l12.578 10.934M149.434 619.712l12.578-10.934"/><path stroke="#fff" d="m153.287 177.981 12.386 11.153M153.287 624.069l12.386-11.152"/><path stroke="#fff" stroke-width=".5" d="m157.217 173.693 12.189 11.367M157.217 628.357l12.189-11.366M161.223 169.473l11.989 11.577M161.223 632.578 173.212 621M165.299 165.324l11.785 11.785M165.299 636.729l11.785-11.786M169.449 161.245l11.578 11.989M169.449 640.806l11.578-11.989M173.668 157.241l11.367 12.189M173.668 644.81l11.367-12.19"/><path stroke="#fff" d="m177.959 153.311 11.152 12.385M177.959 648.74l11.152-12.386"/><path stroke="#fff" stroke-width=".5" d="m182.316 149.455 10.935 12.579M182.316 652.596l10.935-12.579M186.74 145.677l10.713 12.767M186.74 656.374l10.713-12.767M191.23 141.978l10.489 12.952M191.23 660.073l10.489-12.952M195.781 138.354l10.261 13.134M195.781 663.696l10.261-13.133M200.396 134.812l10.031 13.311M200.396 667.238l10.031-13.31"/><path stroke="#fff" d="m205.074 131.353 9.797 13.483M205.074 670.698l9.797-13.483"/><path stroke="#fff" stroke-width=".5" d="m209.811 127.976 9.559 13.652M209.811 674.075l9.559-13.652M214.605 124.68l9.32 13.817M214.605 677.371l9.32-13.817M219.455 121.468l9.077 13.978M219.455 680.583l9.077-13.978M224.361 118.343l8.832 14.134M224.361 683.708l8.832-14.134M229.322 115.303l8.584 14.286M229.322 686.748l8.584-14.286"/><path stroke="#fff" d="m201.002 54.616 137.5 238.157M201.002 747.435l137.5-238.157"/><path stroke="#fff" stroke-width=".5" d="m239.396 109.485 8.081 14.577M239.396 692.565l8.081-14.577M244.512 106.709l7.824 14.716M244.512 695.342l7.824-14.716M249.67 104.023l7.566 14.851M249.67 698.027l7.566-14.85M254.879 101.428l7.306 14.98M254.879 700.623l7.306-14.98M260.129 98.923l7.044 15.105M260.129 703.128l7.044-15.105"/><path stroke="#fff" d="m265.422 96.51 6.779 15.226M265.422 705.54l6.779-15.226"/><path stroke="#fff" stroke-width=".5" d="m270.758 94.191 6.512 15.342M270.758 707.859l6.512-15.341M276.133 91.965l6.243 15.453M276.133 710.086l6.243-15.453M281.545 89.832l5.973 15.56M281.545 712.219l5.973-15.56M286.994 87.795l5.7 15.661M286.994 714.256l5.7-15.662M292.48 85.853l5.427 15.758M292.48 716.198l5.427-15.758"/><path stroke="#fff" d="m297.998 84.007 5.15 15.85M297.998 718.044l5.15-15.851"/><path stroke="#fff" stroke-width=".5" d="m303.545 82.258 4.873 15.938M303.545 719.793l4.873-15.938M309.123 80.606l4.594 16.02M309.123 721.445l4.594-16.021M314.729 79.05l4.313 16.099M314.729 723.001l4.313-16.099M320.361 77.593l4.032 16.171M320.361 724.458l4.032-16.172M326.018 76.235l3.749 16.24M326.018 725.815l3.749-16.239"/><path stroke="#fff" d="m331.699 74.976 3.465 16.302M331.699 727.075l3.465-16.302"/><path stroke="#fff" stroke-width=".5" d="m337.398 73.816 3.181 16.36M337.398 728.234l3.181-16.36M343.117 72.756l2.894 16.413M343.117 729.295l2.894-16.414M348.857 71.795l2.608 16.461M348.857 730.256l2.608-16.462M354.611 70.936l2.32 16.504M354.611 731.115l2.32-16.504M360.381 70.178l2.031 16.542M360.381 731.873l2.031-16.542"/><path stroke="#fff" d="m366.158 69.519 1.742 16.575M366.158 732.532l1.742-16.575"/><path stroke="#fff" stroke-width=".5" d="m371.949 68.96 1.453 16.603M371.949 733.091l1.453-16.603M377.75 68.504l1.163 16.626M377.75 733.547l1.163-16.626M383.557 68.15l.872 16.643M383.557 733.901l.872-16.643M389.367 67.896l.582 16.656M389.367 734.155l.582-16.656M395.186 67.742l.29 16.663M395.186 734.309l.29-16.663"/><path stroke="#fff" d="M401.002 1.025v275M401.002 801.025v-275"/><path stroke="#fff" stroke-width=".5" d="m406.818 67.742-.29 16.663M406.818 734.309l-.29-16.663M412.637 67.896l-.582 16.656M412.637 734.155l-.582-16.656M418.447 68.15l-.872 16.643M418.447 733.901l-.872-16.643M424.254 68.504l-1.163 16.626M424.254 733.547l-1.163-16.626M430.055 68.96l-1.453 16.603M430.055 733.091l-1.453-16.603"/><path stroke="#fff" d="m435.846 69.519-1.742 16.575M435.846 732.532l-1.742-16.575"/><path stroke="#fff" stroke-width=".5" d="m441.623 70.178-2.031 16.542M441.623 731.873l-2.031-16.542M447.393 70.936l-2.32 16.504M447.393 731.115l-2.32-16.504M453.146 71.795l-2.607 16.461M453.146 730.256l-2.607-16.462M458.887 72.756l-2.894 16.413M458.887 729.295l-2.894-16.414M464.605 73.816l-3.18 16.36M464.605 728.234l-3.18-16.36"/><path stroke="#fff" d="m470.305 74.976-3.466 16.302M470.305 727.075l-3.466-16.302"/><path stroke="#fff" stroke-width=".5" d="m475.986 76.235-3.749 16.24M475.986 725.815l-3.749-16.239M481.643 77.593l-4.032 16.171M481.643 724.458l-4.032-16.172M487.275 79.05l-4.313 16.099M487.275 723.001l-4.313-16.099M492.881 80.606l-4.594 16.02M492.881 721.445l-4.594-16.021M498.459 82.258l-4.873 15.938M498.459 719.793l-4.873-15.938"/><path stroke="#fff" d="m504.006 84.007-5.15 15.85M504.006 718.044l-5.15-15.851"/><path stroke="#fff" stroke-width=".5" d="m509.523 85.853-5.426 15.758M509.523 716.198l-5.426-15.758M515.01 87.795l-5.701 15.661M515.01 714.256l-5.701-15.662M520.459 89.832l-5.973 15.56M520.459 712.219l-5.973-15.56M525.871 91.965l-6.243 15.453M525.871 710.086l-6.243-15.453M531.246 94.191l-6.512 15.342M531.246 707.859l-6.512-15.341"/><path stroke="#fff" d="m536.582 96.51-6.779 15.226M536.582 705.54l-6.779-15.226"/><path stroke="#fff" stroke-width=".5" d="m541.875 98.923-7.044 15.105M541.875 703.128l-7.044-15.105M547.125 101.428l-7.306 14.98M547.125 700.623l-7.306-14.98M552.334 104.023l-7.567 14.851M552.334 698.027l-7.567-14.85M557.492 106.709l-7.824 14.716M557.492 695.342l-7.824-14.716M562.607 109.485l-8.08 14.577M562.607 692.565l-8.08-14.577"/><path stroke="#fff" d="m601.002 54.616-137.5 238.157M601.002 747.435l-137.5-238.157"/><path stroke="#fff" stroke-width=".5" d="m572.682 115.303-8.584 14.286M572.682 686.748l-8.584-14.286M577.643 118.343l-8.832 14.134M577.643 683.708l-8.832-14.134M582.549 121.468l-9.077 13.978M582.549 680.583l-9.077-13.978M587.398 124.68l-9.319 13.817M587.398 677.371l-9.319-13.817M592.193 127.976l-9.559 13.652M592.193 674.075l-9.559-13.652"/><path stroke="#fff" d="m596.93 131.353-9.797 13.483M596.93 670.698l-9.797-13.483"/><path stroke="#fff" stroke-width=".5" d="m601.607 134.812-10.03 13.311M601.607 667.238l-10.03-13.31M606.223 138.354l-10.261 13.134M606.223 663.696l-10.261-13.133M610.773 141.978l-10.488 12.952M610.773 660.073l-10.488-12.952M615.264 145.677l-10.713 12.767M615.264 656.374l-10.713-12.767M619.688 149.455l-10.935 12.579M619.688 652.596l-10.935-12.579"/><path stroke="#fff" d="m624.045 153.311-11.152 12.385M624.045 648.74l-11.152-12.386"/><path stroke="#fff" stroke-width=".5" d="m628.336 157.241-11.367 12.189M628.336 644.81l-11.367-12.19M632.555 161.245l-11.578 11.989M632.555 640.806l-11.578-11.989M636.705 165.324l-11.785 11.785M636.705 636.729l-11.785-11.786M640.781 169.473l-11.989 11.577M640.781 632.578 628.792 621M644.787 173.693l-12.189 11.367M644.787 628.357l-12.189-11.366"/><path stroke="#fff" d="m648.717 177.981-12.386 11.153M648.717 624.069l-12.386-11.152"/><path stroke="#fff" stroke-width=".5" d="m652.57 182.339-12.578 10.934M652.57 619.712l-12.578-10.934M656.35 186.763l-12.768 10.713M656.35 615.288l-12.768-10.713M660.051 191.252l-12.953 10.489M660.051 610.799l-12.953-10.489M663.672 195.806l-13.134 10.261M663.672 606.245l-13.134-10.261M667.213 200.42l-13.311 10.03M667.213 601.631l-13.311-10.03"/><path stroke="#fff" d="m670.674 205.098-13.484 9.796M670.674 596.953l-13.484-9.796"/><path stroke="#fff" stroke-width=".5" d="m674.053 209.834-13.653 9.56M674.053 592.217l-13.653-9.56M677.346 214.627l-13.818 9.32M677.346 587.424l-13.818-9.32M680.559 219.479l-13.978 9.078M680.559 582.571l-13.978-9.077M683.684 224.387l-14.135 8.832M683.684 577.664l-14.135-8.832M686.725 229.346l-14.287 8.584M686.725 572.705l-14.287-8.584"/><path stroke="#fff" d="m747.412 201.025-238.157 137.5M747.412 601.025l-238.157-137.5"/><path stroke="#fff" stroke-width=".5" d="m692.541 239.422-14.577 8.08M692.541 562.629l-14.577-8.08M695.318 244.534l-14.715 7.825M695.318 557.517l-14.715-7.825M698.004 249.695l-14.85 7.567M698.004 552.355l-14.85-7.566M700.598 254.902l-14.98 7.307M700.598 547.148l-14.98-7.306M703.105 260.153 688 267.197M703.105 541.897 688 534.854"/><path stroke="#fff" d="m705.518 265.446-15.226 6.779M705.518 536.604l-15.226-6.778"/><path stroke="#fff" stroke-width=".5" d="m707.838 270.781-15.342 6.512M707.838 531.27l-15.342-6.513M710.064 276.157l-15.453 6.244M710.064 525.894l-15.453-6.244M712.197 281.569l-15.559 5.973M712.197 520.481l-15.559-5.972M714.234 287.019l-15.661 5.7M714.234 515.032l-15.661-5.7M716.174 292.503l-15.759 5.426M716.174 509.548l-15.759-5.426"/><path stroke="#fff" d="m718.02 298.02-15.851 5.15M718.02 504.031l-15.851-5.15"/><path stroke="#fff" stroke-width=".5" d="m719.771 303.567-15.938 4.873M719.771 498.483l-15.938-4.872M721.422 309.146l-16.021 4.593M721.422 492.905l-16.021-4.594M722.979 314.753l-16.099 4.314M722.979 487.298l-16.099-4.314M724.434 320.384l-16.172 4.032M724.434 481.667l-16.172-4.032M725.793 326.042l-16.24 3.749M725.793 476.009l-16.24-3.749"/><path stroke="#fff" d="m727.051 331.722-16.303 3.465M727.051 470.329l-16.303-3.465"/><path stroke="#fff" stroke-width=".5" d="m728.213 337.422-16.361 3.18M728.213 464.629l-16.361-3.18M729.27 343.143l-16.414 2.894M729.27 458.908l-16.414-2.894M730.23 348.88l-16.461 2.607M730.23 453.171l-16.461-2.607M731.09 354.634l-16.505 2.319M731.09 447.417l-16.505-2.32M731.852 360.402l-16.543 2.031M731.852 441.648l-16.543-2.031"/><path stroke="#fff" d="m732.51 366.184-16.576 1.742M732.51 435.867l-16.576-1.742"/><path stroke="#fff" stroke-width=".5" d="m733.066 371.975-16.603 1.452M733.066 430.076l-16.603-1.452M733.525 377.773l-16.626 1.163M733.525 424.277l-16.626-1.162M733.879 383.581l-16.644.872M733.879 418.47l-16.644-.873M734.133 389.393l-16.657.581M734.133 412.658l-16.657-.581M734.283 395.208l-16.663.291M734.283 406.843l-16.663-.291"/></svg>