<svg width="494" height="494" viewBox="0 0 494 494" fill="none" xmlns="http://www.w3.org/2000/svg">
<g opacity="0.75">
<path d="M129.899 360.068C129.453 359.075 129.209 358.097 129.166 357.132C129.123 356.168 129.303 355.298 129.705 354.521L130.998 355.125C130.524 356.089 130.474 357.219 130.847 358.514C131.206 359.824 131.911 361.004 132.96 362.054C134.009 363.105 135.194 363.818 136.517 364.192C137.81 364.566 138.931 364.509 139.88 364.019L140.505 365.336C139.714 365.725 138.838 365.897 137.875 365.854C136.912 365.811 135.942 365.573 134.964 365.141L129.294 370.818C129.739 371.782 129.984 372.746 130.027 373.711C130.055 374.689 129.876 375.574 129.487 376.366L128.194 375.718C128.668 374.783 128.726 373.66 128.367 372.351C127.979 371.041 127.26 369.861 126.211 368.81C125.162 367.76 123.991 367.047 122.697 366.673C121.404 366.299 120.276 366.349 119.313 366.824L118.688 365.55C119.464 365.147 120.348 364.967 121.339 365.011C122.302 365.054 123.265 365.299 124.228 365.745L129.899 360.068ZM133.649 364.429C133.003 364.012 132.435 363.558 131.946 363.069C131.443 362.565 130.998 362.004 130.61 361.385L125.543 366.457C126.161 366.846 126.722 367.292 127.225 367.796C127.713 368.285 128.166 368.854 128.583 369.501L133.649 364.429Z" fill="white"/>
<path d="M78.3515 285.504C79.692 285.478 80.9484 285.77 82.1206 286.379C83.268 286.974 84.2142 287.803 84.9591 288.864C85.2308 288.222 85.6222 287.674 86.1333 287.22C86.6248 286.772 87.2142 286.454 87.9017 286.268C88.6874 286.056 89.4663 286.056 90.2384 286.268C90.9857 286.466 91.6444 286.845 92.2145 287.407C92.7597 287.954 93.1366 288.621 93.3452 289.407C93.5485 290.173 93.5522 290.94 93.3562 291.709C93.1407 292.483 92.7609 293.154 92.217 293.722C91.6482 294.276 90.9709 294.659 90.1852 294.872C89.5174 295.052 88.8497 295.075 88.1822 294.94C87.5095 294.785 86.8966 294.498 86.3433 294.079C86.2292 295.394 85.8226 296.599 85.1236 297.694C84.4049 298.793 83.4587 299.67 82.285 300.324L81.6012 299.057C82.9072 298.346 83.8536 297.311 84.4403 295.952C85.0218 294.574 85.1223 293.168 84.7417 291.734C84.3612 290.3 83.5803 289.142 82.3992 288.262C81.2129 287.362 79.8756 286.923 78.3871 286.947L78.3515 285.504ZM89.8177 293.487C90.623 293.269 91.2349 292.798 91.6533 292.075C92.0718 291.351 92.1741 290.586 91.9604 289.781C91.7466 288.976 91.2793 288.365 90.5585 287.95C89.8377 287.534 89.0746 287.435 88.2693 287.653C87.4639 287.871 86.852 288.342 86.4336 289.065C86.0151 289.789 85.9128 290.554 86.1265 291.359C86.3351 292.145 86.8024 292.755 87.5284 293.19C88.2492 293.606 89.0123 293.705 89.8177 293.487Z" fill="white"/>
<path d="M81.2079 197.763C81.3879 197.096 81.7872 196.593 82.4059 196.252C83.005 195.907 83.6389 195.823 84.3076 196.001C84.7993 196.132 85.2074 196.377 85.5319 196.737C85.8368 197.091 86.0346 197.491 86.1255 197.936C86.2216 198.361 86.2246 198.74 86.1347 199.074L84.7481 198.705C84.7904 198.548 84.7575 198.319 84.6493 198.016C84.5267 197.689 84.2884 197.479 83.9344 197.385C83.6591 197.311 83.3868 197.344 83.1175 197.483C82.8535 197.602 82.6792 197.818 82.5945 198.132C82.4939 198.505 82.7905 199.047 83.4842 199.757C84.1636 200.443 85.3005 201.229 86.8952 202.116C88.0836 202.789 89.3567 203.422 90.7146 204.015C92.0527 204.602 93.1269 205.035 93.9371 205.314L93.5718 206.668C92.7299 206.507 91.5817 206.349 90.127 206.193C88.6528 206.033 87.2314 205.949 85.8631 205.942C84.0355 205.919 82.6524 206.045 81.7137 206.322C80.7607 206.573 80.2339 206.885 80.1333 207.258C80.0486 207.572 80.088 207.856 80.2514 208.109C80.4201 208.344 80.6421 208.497 80.9175 208.571C81.2715 208.665 81.5812 208.61 81.8467 208.408C82.0978 208.18 82.2445 207.988 82.2869 207.831L83.6735 208.199C83.5835 208.533 83.3872 208.87 83.0847 209.21C82.7874 209.531 82.4176 209.769 81.9751 209.925C81.5129 210.075 81.036 210.085 80.5443 209.954C79.8756 209.776 79.3688 209.389 79.0238 208.792C78.6591 208.191 78.5668 207.556 78.7467 206.889C78.969 206.065 79.669 205.462 80.8468 205.081C82.0101 204.676 83.6859 204.48 85.8743 204.494C86.3584 204.497 87.274 204.541 88.6212 204.626C87.4116 204.03 86.5965 203.614 86.176 203.376C84.2734 202.302 82.9178 201.31 82.1091 200.401C81.286 199.467 80.9856 198.588 81.2079 197.763Z" fill="white"/>
<path d="M132.206 128.523C133.168 129.315 134.268 129.768 135.504 129.883C136.74 129.97 137.89 129.682 138.953 129.02L139.708 130.251C138.357 131.085 136.898 131.438 135.331 131.308C133.779 131.164 132.399 130.574 131.192 129.538L129.058 131.674C130.107 132.869 130.696 134.25 130.825 135.819C130.954 137.388 130.609 138.841 129.79 140.179L128.561 139.424C129.222 138.359 129.503 137.215 129.402 135.992C129.302 134.74 128.849 133.639 128.044 132.689L126.061 134.675L125.048 133.66L127.01 131.696C126.061 131.005 125.005 130.638 123.841 130.595C122.691 130.537 121.613 130.825 120.607 131.458L119.874 130.249C121.139 129.443 122.519 129.083 124.013 129.17C125.508 129.256 126.845 129.76 128.023 130.681L130.201 128.501C129.295 127.307 128.8 125.961 128.713 124.465C128.627 122.968 128.987 121.587 129.792 120.32L130.977 121.076C130.359 122.069 130.079 123.155 130.136 124.335C130.179 125.501 130.539 126.551 131.214 127.487L133.176 125.523L134.189 126.537L132.206 128.523Z" fill="white"/>
<path d="M195.326 87.2424L197.807 83.0964L200.327 84.5007L201.794 82.0505L204.298 83.3964L205.779 80.8796L210.014 83.1579L209.321 84.4187L206.305 82.8069L204.846 85.2864L202.313 83.9486L200.845 86.3988L198.304 85.0318L196.561 87.9673L195.326 87.2424ZM199.729 90.134L202.241 91.5091L203.716 89.088L206.212 90.4047L207.7 87.9171L211.935 90.1955L211.243 91.4563L208.219 89.8152L206.767 92.3239L204.234 90.9861L202.767 93.4364L200.218 92.0402L198.482 95.0049L197.248 94.28L199.729 90.134Z" fill="white"/>
<path d="M294.116 87.9731C294.841 88.165 295.389 88.5825 295.762 89.2257C296.135 89.8688 296.225 90.5519 296.03 91.2752C295.836 91.9985 295.416 92.5468 294.77 92.9202C294.149 93.2792 293.474 93.3725 292.744 93.2001L292.714 93.1923C292.185 93.0523 291.675 92.8438 291.183 92.5669C290.696 93.129 290.029 93.4652 289.181 93.5757C288.338 93.6666 287.456 93.6319 286.533 93.4714C285.616 93.2915 284.463 93.0173 283.072 92.649L283.442 91.2709C285.362 91.7793 286.822 92.0824 287.824 92.1801C288.851 92.2636 289.584 92.1122 290.024 91.7261C289.457 91.1783 289.079 90.5547 288.889 89.8554C288.719 89.1612 288.741 88.4134 288.956 87.612L289.334 86.2045C289.475 85.7601 289.694 84.9808 289.994 83.8666C290.235 82.9674 290.3 82.2938 290.19 81.8458C290.099 81.403 289.809 81.1167 289.319 80.987C288.77 80.8418 288.326 80.9335 287.986 81.2622C287.646 81.5909 287.353 82.2147 287.106 83.1334L285.76 88.1474L284.378 87.7817L285.945 81.9467C286.124 81.2821 286.097 80.7936 285.867 80.4812C285.66 80.1544 285.156 79.8847 284.353 79.6721L284.723 78.2939C285.271 78.4392 285.765 78.6327 286.203 78.8745C286.662 79.1214 287.012 79.4969 287.254 80.0007C287.937 79.4905 288.748 79.3599 289.689 79.6089C290.257 79.7593 290.707 80.0356 291.04 80.4378C291.373 80.8399 291.573 81.3432 291.642 81.9476C291.716 82.5324 291.627 83.294 291.375 84.2323C291.075 85.3465 290.856 86.1258 290.715 86.5702L290.338 87.9777C290.101 88.8573 290.226 89.644 290.711 90.3378C290.743 90.2205 290.756 90.13 290.753 90.0661L290.782 90.0739L290.8 89.8902C290.994 89.1669 291.414 88.6186 292.06 88.2453C292.706 87.8719 293.391 87.7812 294.116 87.9731ZM292.181 90.2559C292.092 90.5882 292.13 90.9126 292.297 91.2289C292.489 91.5309 292.751 91.726 293.084 91.8142C293.437 91.9076 293.762 91.8681 294.06 91.6958C294.364 91.5039 294.56 91.2418 294.649 90.9095C294.739 90.5772 294.687 90.26 294.496 89.958C294.329 89.6417 294.079 89.4394 293.746 89.3512C293.413 89.263 293.085 89.3123 292.762 89.499C292.464 89.6713 292.27 89.9236 292.181 90.2559Z" fill="white"/>
<path d="M368.851 134.169L367.838 133.162L371.023 129.947L359.946 129.991L359.939 133.71L358.523 133.716L358.529 129.997L354.708 130.012L354.724 128.572L358.502 128.557L358.508 124.838L359.925 124.833L359.94 128.573L363.74 128.536L371.018 128.528L367.785 125.317L368.789 124.303L373.747 129.227L368.851 134.169Z" fill="white"/>
<path d="M399.386 212.478L400.128 211.24L401.352 211.947L401.22 211.448C400.982 210.548 401.1 209.688 401.575 208.868C402.05 208.049 402.747 207.515 403.667 207.267L403.659 207.237L407.482 206.237L413.323 204.662C414.203 204.425 414.727 204.147 414.895 203.829C415.082 203.506 415.131 203.178 415.043 202.846C414.94 202.455 414.722 202.188 414.392 202.047C414.061 201.906 413.475 201.948 412.633 202.175L406.382 203.861L402.273 204.97L401.908 203.59L406.017 202.482L412.297 200.788C413.178 200.55 413.702 200.273 413.869 199.955C414.056 199.632 414.106 199.304 414.018 198.972C413.914 198.58 413.697 198.314 413.366 198.173C413.035 198.031 412.449 198.074 411.608 198.301L405.327 199.995L401.248 201.096L400.882 199.716L404.991 198.608L411.272 196.914C412.583 196.56 413.176 196.149 413.052 195.679L414.431 195.307C414.602 195.953 414.494 196.495 414.108 196.935C414.755 197.243 415.185 197.797 415.397 198.6C415.625 199.461 415.503 200.185 415.029 200.774C415.736 201.066 416.2 201.632 416.423 202.474C416.562 203.002 416.557 203.496 416.406 203.956C416.255 204.416 415.974 204.817 415.561 205.159C415.095 205.536 414.471 205.83 413.688 206.041L407.84 207.587L404.024 208.617L404.032 208.646C403.504 208.788 403.093 209.098 402.8 209.576C402.527 210.048 402.46 210.548 402.6 211.076L402.724 211.546L403.436 210.316L404.698 211.045L402.756 214.399L399.386 212.478Z" fill="white"/>
<path d="M402.606 296.691L404.031 291.415L404.889 292.084C405.38 292.445 405.929 292.821 406.537 293.213C407.164 293.611 407.703 293.87 408.153 293.989C408.956 294.203 409.745 294.12 410.519 293.74C411.288 293.379 411.797 292.74 412.045 291.821C412.293 290.903 412.177 290.087 411.698 289.373C411.219 288.659 410.578 288.195 409.776 287.981C409.325 287.861 408.728 287.817 407.985 287.85C407.261 287.887 406.596 287.941 405.989 288.009L404.909 288.162L406.334 282.886L407.714 283.253L406.844 286.478C408.38 286.384 409.482 286.426 410.147 286.603C411.068 286.848 411.806 287.265 412.361 287.852C412.93 288.465 413.301 289.15 413.474 289.908C413.642 290.686 413.626 291.446 413.425 292.189C413.23 292.912 412.867 293.559 412.335 294.129C411.798 294.719 411.131 295.128 410.335 295.356C409.553 295.608 408.702 295.612 407.781 295.367C407.116 295.19 406.141 294.679 404.858 293.835L403.987 297.059L402.606 296.691ZM402.83 281.984L399.111 295.76L397.73 295.393L401.45 281.617L402.83 281.984Z" fill="white"/>
<path d="M358.515 369.163C357.825 368.472 357.236 367.637 356.748 366.659C356.245 365.694 355.885 364.687 355.67 363.637L354.419 364.888L353.406 363.874L354.915 362.363C355.088 362.19 355.282 362.039 355.498 361.91C355.454 361.003 355.562 360.161 355.821 359.384C356.08 358.607 356.49 357.938 357.05 357.377L358.063 358.391C357.373 359.082 356.992 360.082 356.92 361.392C357.438 361.334 357.948 361.385 358.451 361.543C358.954 361.73 359.392 362.011 359.766 362.385L359.788 362.363L362.568 365.148C363.718 366.328 365.141 367.767 366.837 369.466C367.498 370.128 368.008 370.452 368.367 370.437C368.741 370.437 369.05 370.315 369.294 370.07C369.582 369.783 369.697 369.452 369.639 369.077C369.596 368.718 369.273 368.236 368.669 367.631L364.056 363.011L361.038 359.989L362.052 358.974L365.07 361.997L369.683 366.617C370.344 367.279 370.854 367.602 371.213 367.588C371.587 367.588 371.896 367.466 372.14 367.221C372.428 366.933 372.543 366.602 372.485 366.228C372.442 365.869 372.119 365.386 371.515 364.782L366.902 360.162L363.884 357.14L364.898 356.125L367.916 359.148L372.529 363.768C373.506 364.746 374.167 365.063 374.512 364.717L375.525 365.732C375.065 366.193 374.526 366.372 373.908 366.272C373.98 367.006 373.728 367.66 373.153 368.236C372.535 368.855 371.838 369.106 371.062 368.991C371.177 369.768 370.926 370.466 370.308 371.085C369.919 371.474 369.488 371.718 369.014 371.819C368.54 371.919 368.051 371.876 367.548 371.689C366.987 371.473 366.413 371.07 365.823 370.48L364.508 369.163C364.436 369.638 364.206 370.07 363.818 370.458C362.956 371.322 362.079 371.538 361.188 371.106C360.283 370.688 359.392 370.041 358.515 369.163ZM358.753 363.399C358.523 363.169 358.25 362.996 357.934 362.881C357.617 362.795 357.308 362.773 357.007 362.816C357.15 363.824 357.445 364.795 357.89 365.731C358.336 366.695 358.882 367.501 359.528 368.148C360.477 369.098 361.188 369.624 361.663 369.724C362.123 369.839 362.503 369.746 362.805 369.444C363.193 369.055 363.229 368.559 362.913 367.954C362.597 367.379 362.152 366.803 361.577 366.227L361.534 366.184C360.657 365.277 359.737 364.342 358.774 363.378L358.753 363.399Z" fill="white"/>
<path d="M282.204 401.293C281.959 401.23 281.699 401.234 281.424 401.303C281.286 401.338 281.183 401.385 281.114 401.444L279.989 400.571C280.225 400.261 280.598 400.041 281.109 399.911C281.561 399.796 282.008 399.788 282.449 399.884C282.974 399.981 283.431 400.22 283.818 400.602C284.186 400.989 284.443 401.477 284.589 402.066C284.795 402.891 284.874 403.758 284.829 404.668C284.764 405.582 284.635 406.742 284.442 408.149C284.258 409.344 284.149 410.332 284.114 411.113C284.059 411.9 284.109 412.607 284.266 413.236C284.471 414.061 284.981 414.642 285.795 414.978C286.173 415.153 286.553 415.255 286.936 415.283C287.299 415.317 287.619 415.298 287.894 415.228C288.267 415.134 288.662 414.919 289.08 414.583C289.478 414.252 289.793 413.838 290.024 413.341C290.236 412.849 290.271 412.318 290.129 411.748C290.046 411.414 289.924 411.091 289.762 410.777C289.606 410.482 289.383 410.09 289.094 409.599C288.614 408.761 288.229 408.013 287.94 407.355C287.632 406.702 287.361 405.905 287.126 404.962C286.945 404.235 287.045 403.542 287.423 402.882C287.807 402.242 288.362 401.829 289.089 401.645C289.816 401.461 290.498 401.559 291.136 401.94C291.779 402.341 292.19 402.905 292.371 403.631C292.552 404.358 292.45 405.041 292.066 405.682C291.683 406.322 291.127 406.734 290.401 406.919C290.086 406.998 289.725 407.017 289.318 406.974C289.626 407.627 289.972 408.259 290.354 408.872C290.422 408.98 290.55 409.199 290.736 409.527C290.927 409.876 291.091 410.199 291.228 410.499C291.345 410.803 291.441 411.102 291.514 411.397C291.719 412.222 291.674 413.006 291.379 413.749C291.083 414.492 290.643 415.116 290.058 415.619C289.453 416.127 288.847 416.459 288.238 416.613C287.786 416.728 287.29 416.749 286.75 416.677C286.196 416.63 285.683 416.499 285.212 416.285C284.603 416.021 284.105 415.657 283.718 415.192C283.311 414.731 283.032 414.196 282.881 413.587C282.695 412.841 282.63 412.033 282.685 411.163C282.74 410.293 282.859 409.218 283.043 407.94C283.231 406.597 283.348 405.513 283.393 404.688C283.443 403.881 283.38 403.125 283.205 402.418C283.048 401.789 282.715 401.414 282.204 401.293ZM290.986 403.983C290.898 403.629 290.705 403.355 290.405 403.159C290.091 402.988 289.767 402.945 289.434 403.03C289.1 403.114 288.844 403.305 288.667 403.6C288.475 403.92 288.423 404.257 288.511 404.611C288.594 404.944 288.793 405.197 289.107 405.368C289.406 405.563 289.722 405.619 290.056 405.534C290.39 405.449 290.653 405.247 290.845 404.927C291.022 404.631 291.069 404.317 290.986 403.983Z" fill="white"/>
<path d="M208.141 407.207C208.613 407.333 209.024 407.568 209.374 407.914C209.723 408.259 209.951 408.666 210.056 409.136C210.186 409.591 210.188 410.055 210.06 410.526C210.018 410.683 209.928 410.9 209.789 411.179L209.744 411.23C208.847 412.758 207.609 413.87 206.031 414.565C204.452 415.259 202.807 415.379 201.096 414.924C199.562 414.516 198.287 413.735 197.27 412.581C196.228 411.442 195.585 410.114 195.341 408.598L196.904 409.013C197.201 410.102 197.757 411.049 198.572 411.855C199.363 412.675 200.329 413.237 201.469 413.54C202.413 413.792 203.334 413.816 204.232 413.613C205.11 413.405 205.942 413.016 206.728 412.447C206.001 412.253 205.45 411.834 205.076 411.187C204.702 410.541 204.613 409.855 204.809 409.129C205.005 408.403 205.427 407.852 206.076 407.478C206.725 407.104 207.414 407.014 208.141 407.207ZM209.529 406.283C209.232 405.194 208.689 404.24 207.898 403.42C207.083 402.614 206.105 402.059 204.964 401.756C204.02 401.505 203.111 401.473 202.239 401.662C201.341 401.865 200.499 402.251 199.713 402.82C200.441 403.013 200.991 403.433 201.365 404.08C201.734 404.746 201.82 405.442 201.624 406.168C201.428 406.894 201.006 407.444 200.357 407.818C199.708 408.192 199.019 408.283 198.292 408.089C197.82 407.964 197.409 407.728 197.059 407.383C196.71 407.037 196.483 406.63 196.377 406.16C196.242 405.725 196.24 405.261 196.373 404.771C196.431 404.555 196.519 404.347 196.636 404.147L196.644 404.117L196.689 404.066C197.586 402.538 198.824 401.427 200.403 400.732C201.961 400.032 203.606 399.912 205.337 400.372C206.871 400.78 208.159 401.554 209.201 402.694C210.217 403.847 210.848 405.182 211.093 406.699L209.529 406.283ZM208.674 410.157C208.722 409.98 208.728 409.761 208.693 409.499C208.628 409.272 208.513 409.073 208.348 408.903C208.178 408.752 207.985 408.648 207.768 408.591C207.434 408.502 207.117 408.544 206.818 408.716C206.493 408.904 206.286 409.164 206.196 409.498C206.106 409.831 206.157 410.15 206.349 410.453C206.516 410.771 206.767 410.975 207.101 411.063C207.377 411.137 207.644 411.124 207.902 411.024C208.161 410.925 208.367 410.748 208.52 410.494L208.674 410.157ZM200.237 405.799C200.333 405.446 200.297 405.11 200.13 404.792C199.937 404.489 199.674 404.292 199.34 404.203C199.059 404.15 198.789 404.173 198.531 404.272C198.267 404.391 198.061 404.568 197.914 404.802L197.868 404.853C197.833 404.907 197.796 405.002 197.759 405.14C197.701 405.355 197.707 405.567 197.778 405.775C197.823 405.998 197.928 406.194 198.093 406.364C198.258 406.534 198.449 406.648 198.665 406.706C198.999 406.794 199.329 406.745 199.653 406.558C199.953 406.386 200.147 406.132 200.237 405.799Z" fill="white"/>
<path fill-rule="evenodd" clip-rule="evenodd" d="M172.569 379.856L176.482 372.808L176.93 373.056L173.017 380.104L172.569 379.856Z" fill="white"/>
<path fill-rule="evenodd" clip-rule="evenodd" d="M174.909 381.102L178.696 373.99L179.149 374.23L175.361 381.343L174.909 381.102Z" fill="white"/>
<path fill-rule="evenodd" clip-rule="evenodd" d="M177.235 382.313L180.877 375.172L181.334 375.404L177.692 382.546L177.235 382.313Z" fill="white"/>
<path fill-rule="evenodd" clip-rule="evenodd" d="M179.588 383.483L183.127 376.254L183.587 376.479L180.049 383.707L179.588 383.483Z" fill="white"/>
<path fill-rule="evenodd" clip-rule="evenodd" d="M184.358 385.721L187.626 378.4L188.094 378.608L184.826 385.929L184.358 385.721Z" fill="white"/>
<path fill-rule="evenodd" clip-rule="evenodd" d="M186.774 386.773L189.928 379.368L190.4 379.568L187.246 386.974L186.774 386.773Z" fill="white"/>
<path fill-rule="evenodd" clip-rule="evenodd" d="M189.205 387.781L192.228 380.337L192.703 380.529L189.68 387.973L189.205 387.781Z" fill="white"/>
<path fill-rule="evenodd" clip-rule="evenodd" d="M191.669 388.752L194.546 381.278L195.024 381.462L192.147 388.936L191.669 388.752Z" fill="white"/>
<path fill-rule="evenodd" clip-rule="evenodd" d="M196.654 390.553L199.229 382.977L199.715 383.142L197.139 390.717L196.654 390.553Z" fill="white"/>
<path fill-rule="evenodd" clip-rule="evenodd" d="M199.103 391.404L201.598 383.782L202.085 383.941L199.591 391.563L199.103 391.404Z" fill="white"/>
<path fill-rule="evenodd" clip-rule="evenodd" d="M201.61 392.203L203.982 384.51L204.472 384.661L202.099 392.353L201.61 392.203Z" fill="white"/>
<path fill-rule="evenodd" clip-rule="evenodd" d="M204.15 392.93L206.368 385.239L206.86 385.38L204.643 393.071L204.15 392.93Z" fill="white"/>
<path fill-rule="evenodd" clip-rule="evenodd" d="M209.21 394.296L211.162 386.534L211.659 386.658L209.707 394.421L209.21 394.296Z" fill="white"/>
<path fill-rule="evenodd" clip-rule="evenodd" d="M211.82 394.92L213.616 387.131L214.116 387.246L212.319 395.035L211.82 394.92Z" fill="white"/>
<path fill-rule="evenodd" clip-rule="evenodd" d="M214.377 395.477L216.052 387.664L216.553 387.771L214.878 395.584L214.377 395.477Z" fill="white"/>
<path fill-rule="evenodd" clip-rule="evenodd" d="M216.96 396.001L218.501 388.155L219.004 388.254L217.463 396.1L216.96 396.001Z" fill="white"/>
<path fill-rule="evenodd" clip-rule="evenodd" d="M222.146 396.918L223.413 389.032L223.919 389.113L222.652 396.999L222.146 396.918Z" fill="white"/>
<path fill-rule="evenodd" clip-rule="evenodd" d="M224.761 397.304L225.885 389.399L226.392 389.471L225.269 397.376L224.761 397.304Z" fill="white"/>
<path fill-rule="evenodd" clip-rule="evenodd" d="M227.4 397.662L228.358 389.762L228.867 389.823L227.909 397.724L227.4 397.662Z" fill="white"/>
<path fill-rule="evenodd" clip-rule="evenodd" d="M229.981 397.94L230.83 389.994L231.339 390.048L230.49 397.994L229.981 397.94Z" fill="white"/>
<path fill-rule="evenodd" clip-rule="evenodd" d="M235.248 398.406L235.82 390.473L236.331 390.509L235.76 398.443L235.248 398.406Z" fill="white"/>
<path fill-rule="evenodd" clip-rule="evenodd" d="M237.883 398.559L238.32 390.593L238.831 390.621L238.395 398.587L237.883 398.559Z" fill="white"/>
<path fill-rule="evenodd" clip-rule="evenodd" d="M240.503 398.694L240.81 390.717L241.322 390.737L241.015 398.714L240.503 398.694Z" fill="white"/>
<path fill-rule="evenodd" clip-rule="evenodd" d="M243.16 398.745L243.312 390.787L243.824 390.797L243.672 398.755L243.16 398.745Z" fill="white"/>
<path fill-rule="evenodd" clip-rule="evenodd" d="M248.417 398.751L248.302 390.802L248.815 390.795L248.929 398.743L248.417 398.751Z" fill="white"/>
<path fill-rule="evenodd" clip-rule="evenodd" d="M251.069 398.664L250.81 390.714L251.322 390.698L251.581 398.648L251.069 398.664Z" fill="white"/>
<path fill-rule="evenodd" clip-rule="evenodd" d="M253.706 398.55L253.31 390.603L253.822 390.577L254.217 398.525L253.706 398.55Z" fill="white"/>
<path fill-rule="evenodd" clip-rule="evenodd" d="M256.367 398.399L255.836 390.5L256.347 390.465L256.879 398.364L256.367 398.399Z" fill="white"/>
<path fill-rule="evenodd" clip-rule="evenodd" d="M261.624 397.931L260.789 390.012L261.298 389.958L262.134 397.878L261.624 397.931Z" fill="white"/>
<path fill-rule="evenodd" clip-rule="evenodd" d="M264.221 397.622L263.27 389.762L263.779 389.701L264.73 397.561L264.221 397.622Z" fill="white"/>
<path fill-rule="evenodd" clip-rule="evenodd" d="M266.835 397.276L265.755 389.405L266.263 389.336L267.343 397.207L266.835 397.276Z" fill="white"/>
<path fill-rule="evenodd" clip-rule="evenodd" d="M269.445 396.883L268.226 389.049L268.732 388.971L269.952 396.804L269.445 396.883Z" fill="white"/>
<path fill-rule="evenodd" clip-rule="evenodd" d="M274.647 395.955L273.155 388.173L273.658 388.076L275.15 395.859L274.647 395.955Z" fill="white"/>
<path fill-rule="evenodd" clip-rule="evenodd" d="M277.231 395.435L275.602 387.701L276.104 387.596L277.732 395.33L277.231 395.435Z" fill="white"/>
<path fill-rule="evenodd" clip-rule="evenodd" d="M279.81 394.873L278.05 387.163L278.55 387.049L280.31 394.759L279.81 394.873Z" fill="white"/>
<path fill-rule="evenodd" clip-rule="evenodd" d="M282.368 394.234L280.487 386.562L280.985 386.441L282.866 394.112L282.368 394.234Z" fill="white"/>
<path fill-rule="evenodd" clip-rule="evenodd" d="M287.487 392.868L285.324 385.278L285.817 385.138L287.98 392.727L287.487 392.868Z" fill="white"/>
<path fill-rule="evenodd" clip-rule="evenodd" d="M290.001 392.148L287.716 384.598L288.206 384.45L290.491 392L290.001 392.148Z" fill="white"/>
<path fill-rule="evenodd" clip-rule="evenodd" d="M292.537 391.321L290.124 383.85L290.612 383.693L293.025 391.164L292.537 391.321Z" fill="white"/>
<path fill-rule="evenodd" clip-rule="evenodd" d="M295.039 390.484L292.489 383.034L292.974 382.868L295.524 390.319L295.039 390.484Z" fill="white"/>
<path fill-rule="evenodd" clip-rule="evenodd" d="M300.004 388.669L297.213 381.352L297.692 381.17L300.483 388.487L300.004 388.669Z" fill="white"/>
<path fill-rule="evenodd" clip-rule="evenodd" d="M302.462 387.706L299.537 380.42L300.012 380.229L302.938 387.515L302.462 387.706Z" fill="white"/>
<path fill-rule="evenodd" clip-rule="evenodd" d="M304.925 386.685L301.868 379.487L302.339 379.287L305.397 386.485L304.925 386.685Z" fill="white"/>
<path fill-rule="evenodd" clip-rule="evenodd" d="M307.327 385.636L304.158 378.491L304.627 378.284L307.796 385.429L307.327 385.636Z" fill="white"/>
<path fill-rule="evenodd" clip-rule="evenodd" d="M312.123 383.403L308.727 376.399L309.189 376.176L312.584 383.18L312.123 383.403Z" fill="white"/>
<path fill-rule="evenodd" clip-rule="evenodd" d="M314.49 382.225L310.965 375.273L311.422 375.042L314.947 381.994L314.49 382.225Z" fill="white"/>
<path fill-rule="evenodd" clip-rule="evenodd" d="M316.863 381.011L313.215 374.133L313.667 373.894L317.316 380.772L316.863 381.011Z" fill="white"/>
<path fill-rule="evenodd" clip-rule="evenodd" d="M319.156 379.738L315.413 372.959L315.862 372.712L319.605 379.491L319.156 379.738Z" fill="white"/>
<path fill-rule="evenodd" clip-rule="evenodd" d="M323.731 377.091L319.753 370.44L320.193 370.177L324.171 376.829L323.731 377.091Z" fill="white"/>
<path fill-rule="evenodd" clip-rule="evenodd" d="M325.988 375.715L321.909 369.159L322.344 368.889L326.423 375.445L325.988 375.715Z" fill="white"/>
<path fill-rule="evenodd" clip-rule="evenodd" d="M328.223 374.293L324.022 367.794L324.453 367.516L328.654 374.015L328.223 374.293Z" fill="white"/>
<path fill-rule="evenodd" clip-rule="evenodd" d="M330.429 372.831L326.129 366.438L326.555 366.153L330.854 372.545L330.429 372.831Z" fill="white"/>
<path fill-rule="evenodd" clip-rule="evenodd" d="M334.762 369.786L330.243 363.556L330.658 363.256L335.177 369.486L334.762 369.786Z" fill="white"/>
<path fill-rule="evenodd" clip-rule="evenodd" d="M336.867 368.211L332.284 362.09L332.695 361.783L337.277 367.905L336.867 368.211Z" fill="white"/>
<path fill-rule="evenodd" clip-rule="evenodd" d="M338.992 366.614L334.272 360.559L334.677 360.245L339.397 366.3L338.992 366.614Z" fill="white"/>
<path fill-rule="evenodd" clip-rule="evenodd" d="M341.057 364.967L336.234 358.997L336.632 358.676L341.456 364.646L341.057 364.967Z" fill="white"/>
<path fill-rule="evenodd" clip-rule="evenodd" d="M345.131 361.579L340.117 355.799L340.505 355.464L345.519 361.244L345.131 361.579Z" fill="white"/>
<path fill-rule="evenodd" clip-rule="evenodd" d="M347.111 359.805L341.989 354.134L342.369 353.791L347.492 359.462L347.111 359.805Z" fill="white"/>
<path fill-rule="evenodd" clip-rule="evenodd" d="M349.042 358.029L343.861 352.46L344.236 352.111L349.417 357.681L349.042 358.029Z" fill="white"/>
<path fill-rule="evenodd" clip-rule="evenodd" d="M350.966 356.216L345.672 350.718L346.041 350.363L351.336 355.862L350.966 356.216Z" fill="white"/>
<path fill-rule="evenodd" clip-rule="evenodd" d="M354.721 352.472L349.269 347.199L349.626 346.832L355.078 352.104L354.721 352.472Z" fill="white"/>
<path fill-rule="evenodd" clip-rule="evenodd" d="M356.545 350.551L350.983 345.36L351.333 344.987L356.895 350.178L356.545 350.551Z" fill="white"/>
<path fill-rule="evenodd" clip-rule="evenodd" d="M358.311 348.577L352.667 343.511L353.01 343.13L358.654 348.196L358.311 348.577Z" fill="white"/>
<path fill-rule="evenodd" clip-rule="evenodd" d="M360.084 346.628L354.368 341.657L354.704 341.271L360.421 346.242L360.084 346.628Z" fill="white"/>
<path fill-rule="evenodd" clip-rule="evenodd" d="M363.495 342.576L357.618 337.82L357.941 337.422L363.818 342.178L363.495 342.576Z" fill="white"/>
<path fill-rule="evenodd" clip-rule="evenodd" d="M365.153 340.514L359.199 335.859L359.515 335.456L365.469 340.111L365.153 340.514Z" fill="white"/>
<path fill-rule="evenodd" clip-rule="evenodd" d="M366.764 338.41L360.716 333.855L361.025 333.446L367.072 338.002L366.764 338.41Z" fill="white"/>
<path fill-rule="evenodd" clip-rule="evenodd" d="M368.336 336.287L362.231 331.862L362.533 331.448L368.637 335.873L368.336 336.287Z" fill="white"/>
<path fill-rule="evenodd" clip-rule="evenodd" d="M371.386 331.962L365.129 327.739L365.416 327.315L371.673 331.538L371.386 331.962Z" fill="white"/>
<path fill-rule="evenodd" clip-rule="evenodd" d="M372.855 329.757L366.547 325.667L366.826 325.238L373.134 329.327L372.855 329.757Z" fill="white"/>
<path fill-rule="evenodd" clip-rule="evenodd" d="M374.269 327.521L367.881 323.54L368.152 323.105L374.54 327.087L374.269 327.521Z" fill="white"/>
<path fill-rule="evenodd" clip-rule="evenodd" d="M375.668 325.271L369.207 321.401L369.47 320.962L375.932 324.832L375.668 325.271Z" fill="white"/>
<path fill-rule="evenodd" clip-rule="evenodd" d="M378.317 320.695L371.753 317.065L372.002 316.617L378.566 320.248L378.317 320.695Z" fill="white"/>
<path fill-rule="evenodd" clip-rule="evenodd" d="M379.582 318.374L372.958 314.863L373.198 314.411L379.823 317.922L379.582 318.374Z" fill="white"/>
<path fill-rule="evenodd" clip-rule="evenodd" d="M380.843 316.042L374.196 312.663L374.429 312.207L381.075 315.586L380.843 316.042Z" fill="white"/>
<path fill-rule="evenodd" clip-rule="evenodd" d="M382.008 313.667L375.288 310.4L375.512 309.94L382.232 313.207L382.008 313.667Z" fill="white"/>
<path fill-rule="evenodd" clip-rule="evenodd" d="M384.253 308.867L377.477 305.867L377.685 305.399L384.46 308.399L384.253 308.867Z" fill="white"/>
<path fill-rule="evenodd" clip-rule="evenodd" d="M385.312 306.45L378.467 303.555L378.667 303.084L385.512 305.979L385.312 306.45Z" fill="white"/>
<path fill-rule="evenodd" clip-rule="evenodd" d="M386.337 304.013L379.45 301.239L379.642 300.764L386.529 303.539L386.337 304.013Z" fill="white"/>
<path fill-rule="evenodd" clip-rule="evenodd" d="M387.307 301.556L380.428 298.922L380.612 298.444L387.491 301.078L387.307 301.556Z" fill="white"/>
<path fill-rule="evenodd" clip-rule="evenodd" d="M389.129 296.592L382.148 294.198L382.314 293.714L389.296 296.108L389.129 296.592Z" fill="white"/>
<path fill-rule="evenodd" clip-rule="evenodd" d="M389.998 294.053L382.992 291.826L383.148 291.339L390.154 293.565L389.998 294.053Z" fill="white"/>
<path fill-rule="evenodd" clip-rule="evenodd" d="M390.787 291.562L383.741 289.42L383.89 288.931L390.936 291.072L390.787 291.562Z" fill="white"/>
<path fill-rule="evenodd" clip-rule="evenodd" d="M391.545 289.025L384.484 287.02L384.624 286.528L391.685 288.533L391.545 289.025Z" fill="white"/>
<path fill-rule="evenodd" clip-rule="evenodd" d="M392.918 283.918L385.809 282.166L385.932 281.669L393.041 283.421L392.918 283.918Z" fill="white"/>
<path fill-rule="evenodd" clip-rule="evenodd" d="M393.556 281.358L386.44 279.729L386.554 279.23L393.671 280.859L393.556 281.358Z" fill="white"/>
<path fill-rule="evenodd" clip-rule="evenodd" d="M394.147 278.777L387.001 277.276L387.107 276.775L394.252 278.276L394.147 278.777Z" fill="white"/>
<path fill-rule="evenodd" clip-rule="evenodd" d="M394.662 276.22L387.507 274.813L387.606 274.311L394.761 275.718L394.662 276.22Z" fill="white"/>
<path fill-rule="evenodd" clip-rule="evenodd" d="M395.614 270.984L388.431 269.86L388.51 269.355L395.693 270.479L395.614 270.984Z" fill="white"/>
<path fill-rule="evenodd" clip-rule="evenodd" d="M396.015 268.372L388.803 267.376L388.873 266.87L396.085 267.865L396.015 268.372Z" fill="white"/>
<path fill-rule="evenodd" clip-rule="evenodd" d="M396.375 265.753L389.19 264.882L389.252 264.374L396.436 265.245L396.375 265.753Z" fill="white"/>
<path fill-rule="evenodd" clip-rule="evenodd" d="M396.674 263.13L389.46 262.387L389.513 261.878L396.727 262.621L396.674 263.13Z" fill="white"/>
<path fill-rule="evenodd" clip-rule="evenodd" d="M397.144 257.893L389.968 257.381L390.005 256.87L397.18 257.383L397.144 257.893Z" fill="white"/>
<path fill-rule="evenodd" clip-rule="evenodd" d="M397.335 255.232L390.101 254.867L390.127 254.356L397.361 254.721L397.335 255.232Z" fill="white"/>
<path fill-rule="evenodd" clip-rule="evenodd" d="M397.454 252.589L390.237 252.351L390.254 251.84L397.471 252.077L397.454 252.589Z" fill="white"/>
<path fill-rule="evenodd" clip-rule="evenodd" d="M397.508 249.931L390.341 249.84L390.347 249.329L397.514 249.419L397.508 249.931Z" fill="white"/>
<path fill-rule="evenodd" clip-rule="evenodd" d="M397.552 244.665L390.361 244.805L390.351 244.293L397.542 244.154L397.552 244.665Z" fill="white"/>
<path fill-rule="evenodd" clip-rule="evenodd" d="M397.501 242.022L390.309 242.287L390.29 241.776L397.482 241.51L397.501 242.022Z" fill="white"/>
<path fill-rule="evenodd" clip-rule="evenodd" d="M397.397 239.392L390.208 239.778L390.18 239.267L397.369 238.881L397.397 239.392Z" fill="white"/>
<path fill-rule="evenodd" clip-rule="evenodd" d="M397.248 236.749L390.1 237.267L390.063 236.756L397.211 236.239L397.248 236.749Z" fill="white"/>
<path fill-rule="evenodd" clip-rule="evenodd" d="M396.788 231.514L389.648 232.282L389.593 231.773L396.733 231.006L396.788 231.514Z" fill="white"/>
<path fill-rule="evenodd" clip-rule="evenodd" d="M396.516 228.863L389.436 229.746L389.372 229.238L396.453 228.355L396.516 228.863Z" fill="white"/>
<path fill-rule="evenodd" clip-rule="evenodd" d="M396.187 226.243L389.091 227.262L389.018 226.755L396.114 225.736L396.187 226.243Z" fill="white"/>
<path fill-rule="evenodd" clip-rule="evenodd" d="M395.801 223.624L388.736 224.761L388.655 224.256L395.719 223.119L395.801 223.624Z" fill="white"/>
<path fill-rule="evenodd" clip-rule="evenodd" d="M394.917 218.421L387.897 219.81L387.797 219.308L394.818 217.919L394.917 218.421Z" fill="white"/>
<path fill-rule="evenodd" clip-rule="evenodd" d="M394.397 215.838L387.422 217.335L387.314 216.835L394.289 215.338L394.397 215.838Z" fill="white"/>
<path fill-rule="evenodd" clip-rule="evenodd" d="M393.833 213.263L386.889 214.877L386.773 214.379L393.717 212.765L393.833 213.263Z" fill="white"/>
<path fill-rule="evenodd" clip-rule="evenodd" d="M393.232 210.693L386.312 212.438L386.187 211.942L393.107 210.196L393.232 210.693Z" fill="white"/>
<path fill-rule="evenodd" clip-rule="evenodd" d="M391.888 205.587L385.048 207.569L384.905 207.078L391.745 205.096L391.888 205.587Z" fill="white"/>
<path fill-rule="evenodd" clip-rule="evenodd" d="M391.153 203.057L384.355 205.153L384.204 204.664L391.002 202.568L391.153 203.057Z" fill="white"/>
<path fill-rule="evenodd" clip-rule="evenodd" d="M390.331 200.525L383.638 202.737L383.477 202.251L390.17 200.039L390.331 200.525Z" fill="white"/>
<path fill-rule="evenodd" clip-rule="evenodd" d="M389.53 198.03L382.823 200.361L382.654 199.877L389.362 197.547L389.53 198.03Z" fill="white"/>
<path fill-rule="evenodd" clip-rule="evenodd" d="M387.747 193.078L381.159 195.623L380.974 195.145L387.562 192.601L387.747 193.078Z" fill="white"/>
<path fill-rule="evenodd" clip-rule="evenodd" d="M386.819 190.63L380.263 193.292L380.07 192.818L386.626 190.156L386.819 190.63Z" fill="white"/>
<path fill-rule="evenodd" clip-rule="evenodd" d="M385.803 188.164L379.32 190.932L379.118 190.462L385.601 187.694L385.803 188.164Z" fill="white"/>
<path fill-rule="evenodd" clip-rule="evenodd" d="M384.753 185.753L378.316 188.629L378.107 188.162L384.543 185.286L384.753 185.753Z" fill="white"/>
<path fill-rule="evenodd" clip-rule="evenodd" d="M382.538 180.961L376.238 184.052L376.012 183.593L382.312 180.502L382.538 180.961Z" fill="white"/>
<path fill-rule="evenodd" clip-rule="evenodd" d="M381.377 178.598L375.119 181.804L374.885 181.348L381.143 178.142L381.377 178.598Z" fill="white"/>
<path fill-rule="evenodd" clip-rule="evenodd" d="M380.165 176.259L373.965 179.57L373.723 179.118L379.924 175.807L380.165 176.259Z" fill="white"/>
<path fill-rule="evenodd" clip-rule="evenodd" d="M378.916 173.937L372.815 177.341L372.565 176.895L378.666 173.49L378.916 173.937Z" fill="white"/>
<path fill-rule="evenodd" clip-rule="evenodd" d="M376.281 169.395L370.286 173.006L370.021 172.568L376.016 168.957L376.281 169.395Z" fill="white"/>
<path fill-rule="evenodd" clip-rule="evenodd" d="M374.925 167.112L369.019 170.819L368.746 170.386L374.652 166.679L374.925 167.112Z" fill="white"/>
<path fill-rule="evenodd" clip-rule="evenodd" d="M373.493 164.868L367.663 168.709L367.38 168.282L373.211 164.441L373.493 164.868Z" fill="white"/>
<path fill-rule="evenodd" clip-rule="evenodd" d="M372.081 162.674L366.299 166.588L366.011 166.165L371.794 162.25L372.081 162.674Z" fill="white"/>
<path fill-rule="evenodd" clip-rule="evenodd" d="M369.066 158.362L363.426 162.467L363.124 162.054L368.764 157.949L369.066 158.362Z" fill="white"/>
<path fill-rule="evenodd" clip-rule="evenodd" d="M367.498 156.237L361.965 160.423L361.655 160.015L367.188 155.83L367.498 156.237Z" fill="white"/>
<path fill-rule="evenodd" clip-rule="evenodd" d="M360.443 158.425L360.427 158.438L360.112 158.034L365.619 153.753L365.62 153.752L365.935 154.156L365.935 154.156L360.459 158.446L360.443 158.425Z" fill="white"/>
<path fill-rule="evenodd" clip-rule="evenodd" d="M364.268 152.073L358.869 156.463L358.546 156.066L363.944 151.676L364.268 152.073Z" fill="white"/>
<path fill-rule="evenodd" clip-rule="evenodd" d="M360.898 148.031L355.65 152.598L355.313 152.212L360.561 147.645L360.898 148.031Z" fill="white"/>
<path fill-rule="evenodd" clip-rule="evenodd" d="M359.16 146.051L354.008 150.701L353.665 150.321L358.816 145.672L359.16 146.051Z" fill="white"/>
<path fill-rule="evenodd" clip-rule="evenodd" d="M357.379 144.104L352.327 148.829L351.977 148.456L357.028 143.73L357.379 144.104Z" fill="white"/>
<path fill-rule="evenodd" clip-rule="evenodd" d="M355.576 142.189L350.581 147.019L350.225 146.652L355.22 141.821L355.576 142.189Z" fill="white"/>
<path fill-rule="evenodd" clip-rule="evenodd" d="M351.86 138.459L347.059 143.438L346.69 143.083L351.49 138.105L351.86 138.459Z" fill="white"/>
<path fill-rule="evenodd" clip-rule="evenodd" d="M349.957 136.644L345.217 141.721L344.842 141.372L349.582 136.295L349.957 136.644Z" fill="white"/>
<path fill-rule="evenodd" clip-rule="evenodd" d="M348.014 134.859L343.389 140.002L343.008 139.66L347.633 134.517L348.014 134.859Z" fill="white"/>
<path fill-rule="evenodd" clip-rule="evenodd" d="M346.044 133.112L341.498 138.337L341.111 138.002L345.657 132.777L346.044 133.112Z" fill="white"/>
<path fill-rule="evenodd" clip-rule="evenodd" d="M342.022 129.704L337.67 135.077L337.271 134.756L341.623 129.382L342.022 129.704Z" fill="white"/>
<path fill-rule="evenodd" clip-rule="evenodd" d="M339.957 128.073L335.691 133.532L335.287 133.217L339.553 127.758L339.957 128.073Z" fill="white"/>
<path fill-rule="evenodd" clip-rule="evenodd" d="M337.865 126.466L333.684 132.011L333.275 131.703L337.456 126.159L337.865 126.466Z" fill="white"/>
<path fill-rule="evenodd" clip-rule="evenodd" d="M335.756 124.9L331.696 130.487L331.281 130.186L335.341 124.599L335.756 124.9Z" fill="white"/>
<path fill-rule="evenodd" clip-rule="evenodd" d="M331.442 121.867L327.559 127.63L327.134 127.344L331.016 121.582L331.442 121.867Z" fill="white"/>
<path fill-rule="evenodd" clip-rule="evenodd" d="M329.245 120.424L325.484 126.211L325.054 125.932L328.815 120.145L329.245 120.424Z" fill="white"/>
<path fill-rule="evenodd" clip-rule="evenodd" d="M327.014 118.985L323.331 124.871L322.896 124.6L326.58 118.714L327.014 118.985Z" fill="white"/>
<path fill-rule="evenodd" clip-rule="evenodd" d="M324.792 117.616L321.212 123.571L320.773 123.308L324.352 117.353L324.792 117.616Z" fill="white"/>
<path fill-rule="evenodd" clip-rule="evenodd" d="M320.231 114.979L316.86 121.045L316.412 120.797L319.783 114.731L320.231 114.979Z" fill="white"/>
<path fill-rule="evenodd" clip-rule="evenodd" d="M317.918 113.722L314.659 119.843L314.207 119.603L317.466 113.481L317.918 113.722Z" fill="white"/>
<path fill-rule="evenodd" clip-rule="evenodd" d="M315.601 112.539L312.467 118.678L312.011 118.445L315.145 112.306L315.601 112.539Z" fill="white"/>
<path fill-rule="evenodd" clip-rule="evenodd" d="M313.214 111.32L310.169 117.555L309.708 117.331L312.754 111.095L313.214 111.32Z" fill="white"/>
<path fill-rule="evenodd" clip-rule="evenodd" d="M308.453 109.097L305.642 115.395L305.174 115.187L307.985 108.889L308.453 109.097Z" fill="white"/>
<path fill-rule="evenodd" clip-rule="evenodd" d="M306.036 108.044L303.319 114.414L302.847 114.214L305.565 107.843L306.036 108.044Z" fill="white"/>
<path fill-rule="evenodd" clip-rule="evenodd" d="M303.604 107.035L300.999 113.443L300.525 113.25L303.129 106.842L303.604 107.035Z" fill="white"/>
<path fill-rule="evenodd" clip-rule="evenodd" d="M301.145 106.075L298.673 112.505L298.195 112.321L300.667 105.892L301.145 106.075Z" fill="white"/>
<path fill-rule="evenodd" clip-rule="evenodd" d="M296.203 104.264L293.95 110.784L293.465 110.617L295.719 104.097L296.203 104.264Z" fill="white"/>
<path fill-rule="evenodd" clip-rule="evenodd" d="M293.704 103.427L291.561 109.974L291.074 109.815L293.217 103.268L293.704 103.427Z" fill="white"/>
<path fill-rule="evenodd" clip-rule="evenodd" d="M291.178 102.624L289.157 109.242L288.667 109.092L290.688 102.475L291.178 102.624Z" fill="white"/>
<path fill-rule="evenodd" clip-rule="evenodd" d="M288.669 101.89L286.756 108.507L286.264 108.365L288.177 101.748L288.669 101.89Z" fill="white"/>
<path fill-rule="evenodd" clip-rule="evenodd" d="M283.569 100.521L281.88 107.22L281.383 107.095L283.073 100.396L283.569 100.521Z" fill="white"/>
<path fill-rule="evenodd" clip-rule="evenodd" d="M281.005 99.902L279.448 106.606L278.948 106.49L280.505 99.7864L281.005 99.902Z" fill="white"/>
<path fill-rule="evenodd" clip-rule="evenodd" d="M278.436 99.3333L276.984 106.089L276.483 105.982L277.935 99.226L278.436 99.3333Z" fill="white"/>
<path fill-rule="evenodd" clip-rule="evenodd" d="M275.848 98.8075L274.513 105.595L274.01 105.496L275.345 98.7089L275.848 98.8075Z" fill="white"/>
<path fill-rule="evenodd" clip-rule="evenodd" d="M270.661 97.8982L269.566 104.724L269.06 104.643L270.155 97.8173L270.661 97.8982Z" fill="white"/>
<path fill-rule="evenodd" clip-rule="evenodd" d="M268.054 97.5138L267.078 104.353L266.571 104.281L267.547 97.4416L268.054 97.5138Z" fill="white"/>
<path fill-rule="evenodd" clip-rule="evenodd" d="M265.43 97.1673L264.58 104.007L264.071 103.944L264.922 97.1043L265.43 97.1673Z" fill="white"/>
<path fill-rule="evenodd" clip-rule="evenodd" d="M262.816 96.8667L262.082 103.755L261.572 103.701L262.306 96.8125L262.816 96.8667Z" fill="white"/>
<path fill-rule="evenodd" clip-rule="evenodd" d="M257.563 96.4099L257.067 103.309L256.556 103.272L257.052 96.3732L257.563 96.4099Z" fill="white"/>
<path fill-rule="evenodd" clip-rule="evenodd" d="M254.949 96.2578L254.556 103.18L254.045 103.151L254.437 96.2288L254.949 96.2578Z" fill="white"/>
<path fill-rule="evenodd" clip-rule="evenodd" d="M252.295 96.1373L252.039 103.057L251.527 103.038L251.782 96.1184L252.295 96.1373Z" fill="white"/>
<path fill-rule="evenodd" clip-rule="evenodd" d="M249.66 96.0707L249.523 103.004L249.01 102.994L249.148 96.0606L249.66 96.0707Z" fill="white"/>
<path fill-rule="evenodd" clip-rule="evenodd" d="M244.375 96.0741L244.483 103.004L243.971 103.012L243.863 96.082L244.375 96.0741Z" fill="white"/>
<path fill-rule="evenodd" clip-rule="evenodd" d="M241.781 96.1636L242.007 103.125L241.494 103.141L241.269 96.1802L241.781 96.1636Z" fill="white"/>
<path fill-rule="evenodd" clip-rule="evenodd" d="M239.111 96.261L239.452 103.226L238.94 103.25L238.599 96.286L239.111 96.261Z" fill="white"/>
<path fill-rule="evenodd" clip-rule="evenodd" d="M236.442 96.4044L236.934 103.357L236.423 103.393L235.931 96.4405L236.442 96.4044Z" fill="white"/>
<path fill-rule="evenodd" clip-rule="evenodd" d="M231.231 96.8617L231.945 103.806L231.435 103.858L230.721 96.9139L231.231 96.8617Z" fill="white"/>
<path fill-rule="evenodd" clip-rule="evenodd" d="M228.574 97.2252L229.408 104.148L228.899 104.209L228.065 97.2863L228.574 97.2252Z" fill="white"/>
<path fill-rule="evenodd" clip-rule="evenodd" d="M225.973 97.5399L226.933 104.48L226.425 104.55L225.466 97.6099L225.973 97.5399Z" fill="white"/>
<path fill-rule="evenodd" clip-rule="evenodd" d="M222.829 98.0014L223.335 97.9216L223.335 97.9226L224.443 104.839L223.937 104.92L223.935 104.906L223.906 104.91L222.829 98.0024L222.829 98.0014Z" fill="white"/>
<path fill-rule="evenodd" clip-rule="evenodd" d="M218.166 98.8468L219.492 105.745L218.989 105.842L217.662 98.9433L218.166 98.8468Z" fill="white"/>
<path fill-rule="evenodd" clip-rule="evenodd" d="M215.561 99.3729L217.013 106.226L216.511 106.332L215.059 99.4788L215.561 99.3729Z" fill="white"/>
<path fill-rule="evenodd" clip-rule="evenodd" d="M213.001 99.9512L214.569 106.807L214.069 106.921L212.501 100.065L213.001 99.9512Z" fill="white"/>
<path fill-rule="evenodd" clip-rule="evenodd" d="M210.434 100.571L212.115 107.403L211.617 107.525L209.936 100.693L210.434 100.571Z" fill="white"/>
<path fill-rule="evenodd" clip-rule="evenodd" d="M205.333 101.941L207.259 108.723L206.766 108.863L204.84 102.081L205.333 101.941Z" fill="white"/>
<path fill-rule="evenodd" clip-rule="evenodd" d="M202.798 102.698L204.845 109.442L204.355 109.59L202.307 102.847L202.798 102.698Z" fill="white"/>
<path fill-rule="evenodd" clip-rule="evenodd" d="M200.27 103.508L202.44 110.196L201.953 110.353L199.782 103.666L200.27 103.508Z" fill="white"/>
<path fill-rule="evenodd" clip-rule="evenodd" d="M197.775 104.332L200.06 111.023L199.575 111.188L197.29 104.498L197.775 104.332Z" fill="white"/>
<path fill-rule="evenodd" clip-rule="evenodd" d="M192.822 106.148L195.324 112.746L194.845 112.927L192.343 106.329L192.822 106.148Z" fill="white"/>
<path fill-rule="evenodd" clip-rule="evenodd" d="M190.356 107.111L192.99 113.685L192.514 113.875L189.881 107.301L190.356 107.111Z" fill="white"/>
<path fill-rule="evenodd" clip-rule="evenodd" d="M187.904 108.123L190.655 114.619L190.183 114.819L187.432 108.322L187.904 108.123Z" fill="white"/>
<path fill-rule="evenodd" clip-rule="evenodd" d="M185.482 109.178L188.353 115.653L187.884 115.86L185.014 109.385L185.482 109.178Z" fill="white"/>
<path fill-rule="evenodd" clip-rule="evenodd" d="M180.718 111.43L183.806 117.795L183.345 118.018L180.257 111.653L180.718 111.43Z" fill="white"/>
<path fill-rule="evenodd" clip-rule="evenodd" d="M178.35 112.561L181.543 118.932L181.084 119.161L177.892 112.79L178.35 112.561Z" fill="white"/>
<path fill-rule="evenodd" clip-rule="evenodd" d="M175.982 113.814L179.3 120.094L178.847 120.332L175.529 114.053L175.982 113.814Z" fill="white"/>
<path fill-rule="evenodd" clip-rule="evenodd" d="M173.659 115.079L177.09 121.288L176.641 121.536L173.21 115.327L173.659 115.079Z" fill="white"/>
<path fill-rule="evenodd" clip-rule="evenodd" d="M169.045 117.705L172.731 123.816L172.292 124.08L168.606 117.969L169.045 117.705Z" fill="white"/>
<path fill-rule="evenodd" clip-rule="evenodd" d="M166.851 119.122L170.584 125.152L170.148 125.421L166.415 119.391L166.851 119.122Z" fill="white"/>
<path fill-rule="evenodd" clip-rule="evenodd" d="M164.585 120.524L168.464 126.52L168.033 126.798L164.155 120.802L164.585 120.524Z" fill="white"/>
<path fill-rule="evenodd" clip-rule="evenodd" d="M162.389 121.983L166.354 127.893L165.928 128.178L161.963 122.268L162.389 121.983Z" fill="white"/>
<path fill-rule="evenodd" clip-rule="evenodd" d="M158.046 125.021L162.243 130.811L161.828 131.111L157.631 125.322L158.046 125.021Z" fill="white"/>
<path fill-rule="evenodd" clip-rule="evenodd" d="M155.92 126.587L160.207 132.283L159.797 132.591L155.51 126.894L155.92 126.587Z" fill="white"/>
<path fill-rule="evenodd" clip-rule="evenodd" d="M153.816 128.192L158.224 133.85L157.819 134.164L153.411 128.506L153.816 128.192Z" fill="white"/>
<path fill-rule="evenodd" clip-rule="evenodd" d="M151.756 129.846L156.263 135.426L155.864 135.747L151.357 130.167L151.756 129.846Z" fill="white"/>
<path fill-rule="evenodd" clip-rule="evenodd" d="M147.694 133.246L152.41 138.683L152.023 139.018L147.307 133.581L147.694 133.246Z" fill="white"/>
<path fill-rule="evenodd" clip-rule="evenodd" d="M145.714 134.993L150.523 140.347L150.142 140.689L145.333 135.334L145.714 134.993Z" fill="white"/>
<path fill-rule="evenodd" clip-rule="evenodd" d="M143.765 136.782L148.671 142.048L148.296 142.396L143.39 137.131L143.765 136.782Z" fill="white"/>
<path fill-rule="evenodd" clip-rule="evenodd" d="M141.84 138.6L146.861 143.806L146.492 144.161L141.471 138.955L141.84 138.6Z" fill="white"/>
<path fill-rule="evenodd" clip-rule="evenodd" d="M138.098 142.335L143.309 147.368L142.953 147.736L137.742 142.702L138.098 142.335Z" fill="white"/>
<path fill-rule="evenodd" clip-rule="evenodd" d="M136.272 144.253L141.576 149.205L141.226 149.578L135.922 144.627L136.272 144.253Z" fill="white"/>
<path fill-rule="evenodd" clip-rule="evenodd" d="M134.484 146.203L139.857 151.05L139.514 151.429L134.14 146.583L134.484 146.203Z" fill="white"/>
<path fill-rule="evenodd" clip-rule="evenodd" d="M132.733 148.177L138.224 152.946L137.887 153.332L132.397 148.563L132.733 148.177Z" fill="white"/>
<path fill-rule="evenodd" clip-rule="evenodd" d="M129.312 152.234L134.962 156.806L134.639 157.203L128.989 152.632L129.312 152.234Z" fill="white"/>
<path fill-rule="evenodd" clip-rule="evenodd" d="M127.669 154.304L133.439 158.809L133.124 159.212L127.354 154.707L127.669 154.304Z" fill="white"/>
<path fill-rule="evenodd" clip-rule="evenodd" d="M126.055 156.397L131.904 160.811L131.595 161.219L125.746 156.805L126.055 156.397Z" fill="white"/>
<path fill-rule="evenodd" clip-rule="evenodd" d="M124.479 158.507L130.388 162.819L130.085 163.232L124.177 158.92L124.479 158.507Z" fill="white"/>
<path fill-rule="evenodd" clip-rule="evenodd" d="M121.43 162.855L127.532 166.971L127.246 167.395L121.143 163.279L121.43 162.855Z" fill="white"/>
<path fill-rule="evenodd" clip-rule="evenodd" d="M119.967 165.055L126.133 169.062L125.853 169.491L119.687 165.484L119.967 165.055Z" fill="white"/>
<path fill-rule="evenodd" clip-rule="evenodd" d="M118.519 167.275L124.799 171.194L124.528 171.628L118.248 167.709L118.519 167.275Z" fill="white"/>
<path fill-rule="evenodd" clip-rule="evenodd" d="M117.154 169.539L123.497 173.349L123.233 173.788L116.89 169.977L117.154 169.539Z" fill="white"/>
<path fill-rule="evenodd" clip-rule="evenodd" d="M114.513 174.124L121.006 177.722L120.757 178.17L114.265 174.572L114.513 174.124Z" fill="white"/>
<path fill-rule="evenodd" clip-rule="evenodd" d="M113.218 176.433L119.777 179.916L119.537 180.368L112.977 176.885L113.218 176.433Z" fill="white"/>
<path fill-rule="evenodd" clip-rule="evenodd" d="M111.997 178.781L118.606 182.147L118.373 182.603L111.764 179.237L111.997 178.781Z" fill="white"/>
<path fill-rule="evenodd" clip-rule="evenodd" d="M110.809 181.15L117.509 184.405L117.284 184.865L110.585 181.61L110.809 181.15Z" fill="white"/>
<path fill-rule="evenodd" clip-rule="evenodd" d="M108.574 185.951L115.383 188.97L115.175 189.438L108.366 186.419L108.574 185.951Z" fill="white"/>
<path fill-rule="evenodd" clip-rule="evenodd" d="M107.505 188.359L114.384 191.273L114.184 191.744L107.305 188.83L107.505 188.359Z" fill="white"/>
<path fill-rule="evenodd" clip-rule="evenodd" d="M106.477 190.805L113.396 193.589L113.204 194.063L106.286 191.28L106.477 190.805Z" fill="white"/>
<path fill-rule="evenodd" clip-rule="evenodd" d="M105.501 193.258L112.475 195.928L112.291 196.406L105.317 193.735L105.501 193.258Z" fill="white"/>
<path fill-rule="evenodd" clip-rule="evenodd" d="M103.671 198.254L110.753 200.643L110.742 200.674L110.745 200.675L110.579 201.159L103.506 198.739L103.505 198.739L103.67 198.254L103.671 198.254Z" fill="white"/>
<path fill-rule="evenodd" clip-rule="evenodd" d="M102.8 200.72L109.934 203.021L109.777 203.508L102.643 201.207L102.8 200.72Z" fill="white"/>
<path fill-rule="evenodd" clip-rule="evenodd" d="M102.028 203.246L109.219 205.434L109.069 205.924L101.879 203.736L102.028 203.246Z" fill="white"/>
<path fill-rule="evenodd" clip-rule="evenodd" d="M101.264 205.781L108.477 207.837L108.336 208.329L101.124 206.273L101.264 205.781Z" fill="white"/>
<path fill-rule="evenodd" clip-rule="evenodd" d="M99.8807 210.892L107.2 212.701L107.077 213.198L99.7575 211.388L99.8807 210.892Z" fill="white"/>
<path fill-rule="evenodd" clip-rule="evenodd" d="M99.2534 213.457L106.571 215.13L106.456 215.629L99.139 213.956L99.2534 213.457Z" fill="white"/>
<path fill-rule="evenodd" clip-rule="evenodd" d="M98.6651 216.046L106.064 217.594L105.959 218.095L98.56 216.547L98.6651 216.046Z" fill="white"/>
<path fill-rule="evenodd" clip-rule="evenodd" d="M98.1594 218.647L105.566 220.055L105.563 220.072L105.59 220.077L105.493 220.58L98.0631 219.15L98.0625 219.15L98.1589 218.647L98.1594 218.647Z" fill="white"/>
<path fill-rule="evenodd" clip-rule="evenodd" d="M97.1991 223.832L104.692 224.998L104.613 225.504L97.1202 224.337L97.1991 223.832Z" fill="white"/>
<path fill-rule="evenodd" clip-rule="evenodd" d="M96.7965 226.439L104.314 227.484L104.243 227.991L96.7258 226.946L96.7965 226.439Z" fill="white"/>
<path fill-rule="evenodd" clip-rule="evenodd" d="M96.4406 229.061L103.974 229.97L103.912 230.478L96.3791 229.569L96.4406 229.061Z" fill="white"/>
<path fill-rule="evenodd" clip-rule="evenodd" d="M96.0905 231.7L103.686 232.455L103.635 232.964L96.0398 232.21L96.0905 231.7Z" fill="white"/>
<path fill-rule="evenodd" clip-rule="evenodd" d="M95.6544 236.95L103.261 237.467L103.226 237.977L95.6196 237.461L95.6544 236.95Z" fill="white"/>
<path fill-rule="evenodd" clip-rule="evenodd" d="M95.4802 239.586L103.126 239.972L103.101 240.483L95.4543 240.097L95.4802 239.586Z" fill="white"/>
<path fill-rule="evenodd" clip-rule="evenodd" d="M95.3529 242.228L102.99 242.473L102.974 242.984L95.3365 242.74L95.3529 242.228Z" fill="white"/>
<path fill-rule="evenodd" clip-rule="evenodd" d="M95.2803 244.867L102.947 244.984L102.939 245.495L95.2725 245.379L95.2803 244.867Z" fill="white"/>
<path fill-rule="evenodd" clip-rule="evenodd" d="M95.2719 250.124L102.915 250L102.923 250.512L95.2802 250.636L95.2719 250.124Z" fill="white"/>
<path fill-rule="evenodd" clip-rule="evenodd" d="M95.3124 252.789L103.015 252.5L103.034 253.012L95.3316 253.301L95.3124 252.789Z" fill="white"/>
<path fill-rule="evenodd" clip-rule="evenodd" d="M95.4156 255.429L103.123 255.007L103.151 255.518L95.4436 255.94L95.4156 255.429Z" fill="white"/>
<path fill-rule="evenodd" clip-rule="evenodd" d="M95.5656 258.067L103.253 257.507L103.291 258.018L95.6029 258.578L95.5656 258.067Z" fill="white"/>
<path fill-rule="evenodd" clip-rule="evenodd" d="M96.0083 263.328L103.705 262.501L103.76 263.01L96.0631 263.837L96.0083 263.328Z" fill="white"/>
<path fill-rule="evenodd" clip-rule="evenodd" d="M96.2755 265.977L103.986 264.986L104.052 265.493L96.3409 266.484L96.2755 265.977Z" fill="white"/>
<path fill-rule="evenodd" clip-rule="evenodd" d="M96.6248 268.577L104.322 267.469L104.395 267.976L96.6979 269.083L96.6248 268.577Z" fill="white"/>
<path fill-rule="evenodd" clip-rule="evenodd" d="M97.0034 271.181L104.673 269.949L104.755 270.454L97.0848 271.686L97.0034 271.181Z" fill="white"/>
<path fill-rule="evenodd" clip-rule="evenodd" d="M97.9051 276.387L105.564 274.878L105.663 275.38L98.0043 276.889L97.9051 276.387Z" fill="white"/>
<path fill-rule="evenodd" clip-rule="evenodd" d="M98.4185 278.973L106.022 277.34L106.13 277.841L98.5263 279.473L98.4185 278.973Z" fill="white"/>
<path fill-rule="evenodd" clip-rule="evenodd" d="M98.9904 281.536L106.607 279.756L106.723 280.255L99.1072 282.034L98.9904 281.536Z" fill="white"/>
<path fill-rule="evenodd" clip-rule="evenodd" d="M99.5917 284.116L107.185 282.206L107.31 282.702L99.7169 284.612L99.5917 284.116Z" fill="white"/>
<path fill-rule="evenodd" clip-rule="evenodd" d="M100.906 289.205L108.476 287.037L108.617 287.529L101.047 289.697L100.906 289.205Z" fill="white"/>
<path fill-rule="evenodd" clip-rule="evenodd" d="M101.669 291.754L109.167 289.445L109.318 289.934L101.82 292.243L101.669 291.754Z" fill="white"/>
<path fill-rule="evenodd" clip-rule="evenodd" d="M102.452 294.275L109.91 291.834L110.069 292.32L102.612 294.762L102.452 294.275Z" fill="white"/>
<path fill-rule="evenodd" clip-rule="evenodd" d="M103.278 296.774L110.716 294.194L110.884 294.678L103.446 297.257L103.278 296.774Z" fill="white"/>
<path fill-rule="evenodd" clip-rule="evenodd" d="M105.062 301.744L112.408 298.903L112.593 299.38L105.247 302.221L105.062 301.744Z" fill="white"/>
<path fill-rule="evenodd" clip-rule="evenodd" d="M106.015 304.201L113.32 301.228L113.514 301.702L106.209 304.675L106.015 304.201Z" fill="white"/>
<path fill-rule="evenodd" clip-rule="evenodd" d="M107.046 306.645L114.25 303.55L114.453 304.02L107.249 307.115L107.046 306.645Z" fill="white"/>
<path fill-rule="evenodd" clip-rule="evenodd" d="M108.073 309.065L115.278 305.844L115.488 306.311L108.283 309.532L108.073 309.065Z" fill="white"/>
<path fill-rule="evenodd" clip-rule="evenodd" d="M110.268 313.846L117.345 310.378L117.57 310.838L110.494 314.305L110.268 313.846Z" fill="white"/>
<path fill-rule="evenodd" clip-rule="evenodd" d="M111.44 316.211L118.479 312.604L118.713 313.059L111.674 316.666L111.44 316.211Z" fill="white"/>
<path fill-rule="evenodd" clip-rule="evenodd" d="M112.651 318.551L119.624 314.825L119.866 315.276L112.892 319.002L112.651 318.551Z" fill="white"/>
<path fill-rule="evenodd" clip-rule="evenodd" d="M113.906 320.849L120.813 317.003L121.063 317.45L114.156 321.296L113.906 320.849Z" fill="white"/>
<path fill-rule="evenodd" clip-rule="evenodd" d="M116.517 325.451L123.292 321.366L123.557 321.804L116.782 325.889L116.517 325.451Z" fill="white"/>
<path fill-rule="evenodd" clip-rule="evenodd" d="M117.88 327.7L124.6 323.492L124.872 323.926L118.152 328.133L117.88 327.7Z" fill="white"/>
<path fill-rule="evenodd" clip-rule="evenodd" d="M119.3 329.919L125.943 325.595L126.222 326.023L119.58 330.348L119.3 329.919Z" fill="white"/>
<path fill-rule="evenodd" clip-rule="evenodd" d="M120.737 332.131L127.292 327.692L127.58 328.116L121.025 332.555L120.737 332.131Z" fill="white"/>
<path fill-rule="evenodd" clip-rule="evenodd" d="M123.752 336.455L130.179 331.771L130.481 332.184L124.055 336.869L123.752 336.455Z" fill="white"/>
<path fill-rule="evenodd" clip-rule="evenodd" d="M125.307 338.574L131.62 333.806L131.929 334.214L125.616 338.983L125.307 338.574Z" fill="white"/>
<path fill-rule="evenodd" clip-rule="evenodd" d="M126.879 340.656L133.144 335.751L133.46 336.154L127.195 341.059L126.879 340.656Z" fill="white"/>
<path fill-rule="evenodd" clip-rule="evenodd" d="M128.525 342.76L134.703 337.742L135.026 338.138L128.849 343.157L128.525 342.76Z" fill="white"/>
<path fill-rule="evenodd" clip-rule="evenodd" d="M131.902 346.77L137.914 341.539L138.251 341.924L132.239 347.156L131.902 346.77Z" fill="white"/>
<path fill-rule="evenodd" clip-rule="evenodd" d="M133.632 348.742L139.542 343.406L139.886 343.785L133.976 349.121L133.632 348.742Z" fill="white"/>
<path fill-rule="evenodd" clip-rule="evenodd" d="M135.41 350.696L141.251 345.275L141.6 345.65L135.759 351.071L135.41 350.696Z" fill="white"/>
<path fill-rule="evenodd" clip-rule="evenodd" d="M137.243 352.619L142.981 347.066L143.338 347.434L137.6 352.987L137.243 352.619Z" fill="white"/>
<path fill-rule="evenodd" clip-rule="evenodd" d="M140.956 356.355L146.499 350.608L146.868 350.963L141.325 356.71L140.956 356.355Z" fill="white"/>
<path fill-rule="evenodd" clip-rule="evenodd" d="M142.87 358.169L148.321 352.315L148.697 352.664L143.245 358.518L142.87 358.169Z" fill="white"/>
<path fill-rule="evenodd" clip-rule="evenodd" d="M144.808 359.953L150.141 354.022L150.522 354.363L145.189 360.295L144.808 359.953Z" fill="white"/>
<path fill-rule="evenodd" clip-rule="evenodd" d="M146.733 361.676L152.016 355.661L152.401 355.999L147.118 362.013L146.733 361.676Z" fill="white"/>
<path fill-rule="evenodd" clip-rule="evenodd" d="M150.815 365.108L155.844 358.893L156.242 359.214L151.214 365.43L150.815 365.108Z" fill="white"/>
<path fill-rule="evenodd" clip-rule="evenodd" d="M152.858 366.744L157.799 360.414L158.203 360.729L153.262 367.058L152.858 366.744Z" fill="white"/>
<path fill-rule="evenodd" clip-rule="evenodd" d="M154.944 368.349L159.782 361.933L160.191 362.241L155.353 368.657L154.944 368.349Z" fill="white"/>
<path fill-rule="evenodd" clip-rule="evenodd" d="M157.057 369.919L161.758 363.442L162.173 363.742L157.472 370.219L157.057 369.919Z" fill="white"/>
<path fill-rule="evenodd" clip-rule="evenodd" d="M161.362 372.936L165.864 366.272L166.289 366.558L161.786 373.222L161.362 372.936Z" fill="white"/>
<path fill-rule="evenodd" clip-rule="evenodd" d="M163.551 374.395L167.913 367.678L168.343 367.956L163.981 374.673L163.551 374.395Z" fill="white"/>
<path fill-rule="evenodd" clip-rule="evenodd" d="M165.785 375.822L170.06 368.991L170.495 369.262L166.22 376.094L165.785 375.822Z" fill="white"/>
<path fill-rule="evenodd" clip-rule="evenodd" d="M168.016 377.22L172.173 370.311L172.612 370.575L168.455 377.483L168.016 377.22Z" fill="white"/>
<path fill-rule="evenodd" clip-rule="evenodd" d="M181.734 384.515L185.143 377.23L186.072 377.663L182.663 384.948L181.734 384.515Z" fill="white"/>
<path fill-rule="evenodd" clip-rule="evenodd" d="M193.894 389.582L196.65 382.038L197.613 382.389L194.857 389.933L193.894 389.582Z" fill="white"/>
<path fill-rule="evenodd" clip-rule="evenodd" d="M206.472 393.582L208.551 385.865L209.541 386.131L207.462 393.848L206.472 393.582Z" fill="white"/>
<path fill-rule="evenodd" clip-rule="evenodd" d="M219.295 396.437L220.699 388.593L221.708 388.773L220.304 396.617L219.295 396.437Z" fill="white"/>
<path fill-rule="evenodd" clip-rule="evenodd" d="M232.344 398.206L233.056 390.264L234.077 390.355L233.364 398.298L232.344 398.206Z" fill="white"/>
<path fill-rule="evenodd" clip-rule="evenodd" d="M258.723 398.184L258.049 390.266L259.07 390.18L259.744 398.097L258.723 398.184Z" fill="white"/>
<path fill-rule="evenodd" clip-rule="evenodd" d="M271.801 396.488L270.443 388.692L271.453 388.517L272.811 396.312L271.801 396.488Z" fill="white"/>
<path fill-rule="evenodd" clip-rule="evenodd" d="M284.699 393.648L282.678 386.031L283.668 385.769L285.69 393.385L284.699 393.648Z" fill="white"/>
<path fill-rule="evenodd" clip-rule="evenodd" d="M297.287 389.69L294.62 382.3L295.584 381.953L298.251 389.343L297.287 389.69Z" fill="white"/>
<path fill-rule="evenodd" clip-rule="evenodd" d="M309.506 384.651L306.218 377.555L307.148 377.125L310.436 384.221L309.506 384.651Z" fill="white"/>
<path fill-rule="evenodd" clip-rule="evenodd" d="M332.394 371.48L327.995 365.166L328.837 364.582L333.235 370.896L332.394 371.48Z" fill="white"/>
<path fill-rule="evenodd" clip-rule="evenodd" d="M342.909 363.453L338.015 357.606L338.801 356.949L343.695 362.797L342.909 363.453Z" fill="white"/>
<path fill-rule="evenodd" clip-rule="evenodd" d="M352.68 354.541L347.298 349.147L348.024 348.424L353.406 353.819L352.68 354.541Z" fill="white"/>
<path fill-rule="evenodd" clip-rule="evenodd" d="M361.633 344.849L355.82 339.966L356.479 339.183L362.292 344.066L361.633 344.849Z" fill="white"/>
<path fill-rule="evenodd" clip-rule="evenodd" d="M369.738 334.351L363.55 330.023L364.138 329.184L370.326 333.513L369.738 334.351Z" fill="white"/>
<path fill-rule="evenodd" clip-rule="evenodd" d="M383.043 311.517L376.274 308.367L376.707 307.439L383.476 310.59L383.043 311.517Z" fill="white"/>
<path fill-rule="evenodd" clip-rule="evenodd" d="M388.158 299.32L381.199 296.794L381.549 295.832L388.508 298.358L388.158 299.32Z" fill="white"/>
<path fill-rule="evenodd" clip-rule="evenodd" d="M392.166 286.717L385.124 284.849L385.387 283.86L392.429 285.728L392.166 286.717Z" fill="white"/>
<path fill-rule="evenodd" clip-rule="evenodd" d="M395.123 273.844L387.965 272.599L388.141 271.591L395.299 272.836L395.123 273.844Z" fill="white"/>
<path fill-rule="evenodd" clip-rule="evenodd" d="M396.919 260.75L389.704 260.134L389.792 259.114L397.007 259.731L396.919 260.75Z" fill="white"/>
<path fill-rule="evenodd" clip-rule="evenodd" d="M397.074 234.371L389.917 235.011L389.826 233.991L396.982 233.351L397.074 234.371Z" fill="white"/>
<path fill-rule="evenodd" clip-rule="evenodd" d="M395.443 221.283L388.403 222.534L388.223 221.526L395.263 220.275L395.443 221.283Z" fill="white"/>
<path fill-rule="evenodd" clip-rule="evenodd" d="M392.643 208.386L385.79 210.233L385.523 209.245L392.375 207.398L392.643 208.386Z" fill="white"/>
<path fill-rule="evenodd" clip-rule="evenodd" d="M388.785 195.801L382.134 198.236L381.781 197.275L388.432 194.84L388.785 195.801Z" fill="white"/>
<path fill-rule="evenodd" clip-rule="evenodd" d="M383.776 183.577L377.388 186.571L376.952 185.645L383.34 182.65L383.776 183.577Z" fill="white"/>
<path fill-rule="evenodd" clip-rule="evenodd" d="M370.712 160.752L365.031 164.725L364.443 163.886L370.124 159.913L370.712 160.752Z" fill="white"/>
<path fill-rule="evenodd" clip-rule="evenodd" d="M362.756 150.228L357.473 154.684L356.811 153.902L362.095 149.446L362.756 150.228Z" fill="white"/>
<path fill-rule="evenodd" clip-rule="evenodd" d="M353.914 140.487L349.019 145.394L348.293 144.671L353.188 139.765L353.914 140.487Z" fill="white"/>
<path fill-rule="evenodd" clip-rule="evenodd" d="M344.238 131.561L339.784 136.876L338.998 136.219L343.452 130.905L344.238 131.561Z" fill="white"/>
<path fill-rule="evenodd" clip-rule="evenodd" d="M333.816 123.51L329.837 129.189L328.998 128.603L332.976 122.923L333.816 123.51Z" fill="white"/>
<path fill-rule="evenodd" clip-rule="evenodd" d="M311.076 110.298L308.143 116.571L307.215 116.138L310.147 109.865L311.076 110.298Z" fill="white"/>
<path fill-rule="evenodd" clip-rule="evenodd" d="M298.923 105.234L296.548 111.729L295.586 111.378L297.96 104.883L298.923 105.234Z" fill="white"/>
<path fill-rule="evenodd" clip-rule="evenodd" d="M286.371 101.236L284.579 107.894L283.589 107.629L285.381 100.97L286.371 101.236Z" fill="white"/>
<path fill-rule="evenodd" clip-rule="evenodd" d="M273.51 98.3776L272.303 105.147L271.294 104.968L272.501 98.1982L273.51 98.3776Z" fill="white"/>
<path fill-rule="evenodd" clip-rule="evenodd" d="M260.462 96.6117L259.843 103.503L258.822 103.412L259.441 96.5203L260.462 96.6117Z" fill="white"/>
<path fill-rule="evenodd" clip-rule="evenodd" d="M234.102 96.6125L234.688 103.574L233.667 103.659L233.081 96.6983L234.102 96.6125Z" fill="white"/>
<path fill-rule="evenodd" clip-rule="evenodd" d="M221.016 98.3306L222.212 105.236L221.202 105.41L220.006 98.505L221.016 98.3306Z" fill="white"/>
<path fill-rule="evenodd" clip-rule="evenodd" d="M208.12 101.169L209.92 107.951L208.929 108.214L207.129 101.432L208.12 101.169Z" fill="white"/>
<path fill-rule="evenodd" clip-rule="evenodd" d="M195.524 105.125L197.915 111.759L196.951 112.105L194.56 105.472L195.524 105.125Z" fill="white"/>
<path fill-rule="evenodd" clip-rule="evenodd" d="M183.31 110.167L186.295 116.599L185.365 117.029L182.38 110.597L183.31 110.167Z" fill="white"/>
<path fill-rule="evenodd" clip-rule="evenodd" d="M160.413 123.333L164.508 129.191L163.667 129.777L159.573 123.919L160.413 123.333Z" fill="white"/>
<path fill-rule="evenodd" clip-rule="evenodd" d="M149.908 131.365L154.506 136.851L153.72 137.508L149.122 132.022L149.908 131.365Z" fill="white"/>
<path fill-rule="evenodd" clip-rule="evenodd" d="M140.127 140.274L145.225 145.378L144.5 146.101L139.402 140.996L140.127 140.274Z" fill="white"/>
<path fill-rule="evenodd" clip-rule="evenodd" d="M131.166 149.994L136.757 154.685L136.097 155.469L130.507 150.778L131.166 149.994Z" fill="white"/>
<path fill-rule="evenodd" clip-rule="evenodd" d="M123.08 160.465L129.113 164.686L128.525 165.524L122.491 161.303L123.08 160.465Z" fill="white"/>
<path fill-rule="evenodd" clip-rule="evenodd" d="M109.77 183.301L116.525 186.444L116.093 187.372L109.337 184.229L109.77 183.301Z" fill="white"/>
<path fill-rule="evenodd" clip-rule="evenodd" d="M104.641 195.508L111.686 198.056L111.337 199.019L104.292 196.47L104.641 195.508Z" fill="white"/>
<path fill-rule="evenodd" clip-rule="evenodd" d="M100.617 208.084L107.883 210.016L107.619 211.005L100.354 209.073L100.617 208.084Z" fill="white"/>
<path fill-rule="evenodd" clip-rule="evenodd" d="M97.6898 220.972L105.118 222.265L104.942 223.273L97.5138 221.98L97.6898 220.972Z" fill="white"/>
<path fill-rule="evenodd" clip-rule="evenodd" d="M95.8891 234.06L103.477 234.702L103.391 235.722L95.8026 235.08L95.8891 234.06Z" fill="white"/>
<path fill-rule="evenodd" clip-rule="evenodd" d="M95.7313 260.448L103.445 259.748L103.538 260.768L95.8239 261.467L95.7313 260.448Z" fill="white"/>
<path fill-rule="evenodd" clip-rule="evenodd" d="M97.382 273.542L105.054 272.167L105.235 273.174L97.5631 274.55L97.382 273.542Z" fill="white"/>
<path fill-rule="evenodd" clip-rule="evenodd" d="M100.197 286.449L107.704 284.39L107.976 285.376L100.468 287.436L100.197 286.449Z" fill="white"/>
<path fill-rule="evenodd" clip-rule="evenodd" d="M104.063 299.026L111.435 296.327L111.788 297.288L104.416 299.987L104.063 299.026Z" fill="white"/>
<path fill-rule="evenodd" clip-rule="evenodd" d="M109.04 311.233L116.193 307.882L116.629 308.809L109.475 312.16L109.04 311.233Z" fill="white"/>
<path fill-rule="evenodd" clip-rule="evenodd" d="M122.075 334.093L128.574 329.532L129.164 330.37L122.664 334.931L122.075 334.093Z" fill="white"/>
<path fill-rule="evenodd" clip-rule="evenodd" d="M130.051 344.583L136.129 339.471L136.789 340.254L130.711 345.366L130.051 344.583Z" fill="white"/>
<path fill-rule="evenodd" clip-rule="evenodd" d="M138.898 354.317L144.532 348.678L145.258 349.4L139.623 355.04L138.898 354.317Z" fill="white"/>
<path fill-rule="evenodd" clip-rule="evenodd" d="M148.573 363.254L153.723 357.109L154.509 357.765L149.359 363.911L148.573 363.254Z" fill="white"/>
<path fill-rule="evenodd" clip-rule="evenodd" d="M158.981 371.3L163.601 364.713L164.441 365.301L159.82 371.887L158.981 371.3Z" fill="white"/>
<path fill-rule="evenodd" clip-rule="evenodd" d="M336.834 91.2783C251.076 41.8376 141.194 71.556 91.4081 157.662C41.6221 243.769 70.7887 353.65 156.547 403.09C242.306 452.531 352.188 422.813 401.974 336.707C451.76 250.6 422.593 140.719 336.834 91.2783ZM90.7221 157.267C140.725 70.7857 251.09 40.9322 337.23 90.5934C423.371 140.254 452.662 250.621 402.66 337.102C352.657 423.583 242.292 453.437 156.151 403.775C70.0103 354.114 40.7195 243.748 90.7221 157.267Z" fill="white"/>
<path fill-rule="evenodd" clip-rule="evenodd" d="M245.92 251.529V243.142H247.156V251.529H245.92Z" fill="white"/>
<path fill-rule="evenodd" clip-rule="evenodd" d="M250.718 247.956H242.371V246.722H250.718V247.956Z" fill="white"/>
<path fill-rule="evenodd" clip-rule="evenodd" d="M246.687 228.64C236.491 228.64 228.22 236.94 228.22 247.184C228.22 257.429 236.491 265.728 246.687 265.728C256.883 265.728 265.153 257.429 265.153 247.184C265.153 236.94 256.883 228.64 246.687 228.64ZM226.984 247.184C226.984 236.264 235.802 227.406 246.687 227.406C257.571 227.406 266.389 236.264 266.389 247.184C266.389 258.104 257.571 266.962 246.687 266.962C235.802 266.962 226.984 258.104 226.984 247.184Z" fill="white"/>
<path fill-rule="evenodd" clip-rule="evenodd" d="M322.261 116.123C249.981 74.4528 157.451 99.3613 115.591 171.76C73.7303 244.159 98.3922 336.63 170.672 378.3C242.953 419.97 335.482 395.062 377.343 322.663C419.203 250.264 394.541 157.793 322.261 116.123ZM115.147 171.504C157.148 98.862 249.99 73.8676 322.517 115.68C395.044 157.492 419.788 250.276 377.786 322.919C335.785 395.561 242.943 420.555 170.416 378.743C97.8896 336.931 73.1457 244.146 115.147 171.504Z" fill="white"/>
<path fill-rule="evenodd" clip-rule="evenodd" d="M275.231 197.825C248.081 182.173 213.293 191.581 197.53 218.843C181.767 246.105 191.002 280.893 218.152 296.545C245.302 312.197 280.09 302.789 295.853 275.527C311.616 248.265 302.381 213.477 275.231 197.825ZM197.001 218.538C212.931 190.986 248.092 181.474 275.536 197.297C302.981 213.119 312.312 248.281 296.382 275.832C280.452 303.383 245.291 312.895 217.847 297.073C190.402 281.251 181.071 246.089 197.001 218.538Z" fill="white"/>
<path fill-rule="evenodd" clip-rule="evenodd" d="M371.424 175.272L296.5 219L296.121 218.349L371.045 174.622L371.424 175.272ZM197.379 276.65L122.16 320.015L121.781 319.364L197 276L197.379 276.65Z" fill="white"/>
<path fill-rule="evenodd" clip-rule="evenodd" d="M319.353 123.029L275.652 197.378L275 197L318.701 122.651L319.353 123.029ZM218.152 296.878L174.5 371.989L173.848 371.611L217.5 296.5L218.152 296.878Z" fill="white"/>
<path fill-rule="evenodd" clip-rule="evenodd" d="M371.143 319.833L296 276L296.378 275.349L371.521 319.182L371.143 319.833ZM197 219L121.668 175.454L122.046 174.803L197.378 218.349L197 219Z" fill="white"/>
<path fill-rule="evenodd" clip-rule="evenodd" d="M318.021 372.378L274.846 296.874L275.5 296.5L318.674 372.004L318.021 372.378ZM217.846 197.874L174.531 122.633L175.185 122.258L218.5 197.5L217.846 197.874Z" fill="white"/>
<path fill-rule="evenodd" clip-rule="evenodd" d="M337.502 90.9999L319.376 122.663C340.924 135.13 358.826 153.023 371.314 174.575L402.442 156.519L403.002 157.5L371.876 175.554C384.185 197.204 390.684 221.697 390.742 246.658L427.002 246.566L427.005 247.695L390.774 247.787C390.635 272.758 383.99 297.293 371.495 318.965L402.502 337L401.937 337.978L370.929 319.942C358.34 341.534 340.363 359.496 318.772 372.057L336.482 403.437L335.502 404L317.791 372.618C296.123 384.984 271.662 391.562 246.771 391.717L246.677 427.5L245.546 427.497L245.641 391.719C220.762 391.668 196.354 385.133 174.818 372.757L156.5 404L155.521 403.436L173.84 372.192C152.372 359.718 134.541 341.851 122.1 320.347L90.5498 337.986L90 337L121.539 319.367C109.285 297.776 102.805 273.362 102.726 248.479L66.5023 248.564L66.5 247.435L102.699 247.35C102.814 222.389 109.43 197.858 121.895 176.181L90.4352 158.477L91.0005 157.5L122.46 175.204C134.978 153.672 152.853 135.739 174.333 123.162L156.002 91.9999L156.982 91.4376L175.311 122.595C196.946 110.162 221.392 103.511 246.288 103.286L246.382 66.9974L247.512 67L247.418 103.28C272.338 103.26 296.802 109.746 318.396 122.099L336.523 90.4355L337.502 90.9999ZM246.854 104.41C221.775 104.54 197.135 111.244 175.387 123.855C153.699 136.44 135.683 154.515 123.157 176.256L123.074 176.399C110.579 197.989 103.946 222.453 103.83 247.348L103.856 247.348L103.855 247.914C103.838 272.987 110.37 297.598 122.803 319.303C135.25 341.013 153.22 359.019 174.894 371.497L175.023 371.572C196.638 384.077 221.191 390.638 246.206 390.591C271.283 390.533 295.94 383.901 317.723 371.355L317.725 371.358C339.522 358.791 357.637 340.689 370.233 318.889L370.316 318.746C382.841 297.162 389.503 272.694 389.644 247.789L389.611 247.789L389.612 247.223C389.651 222.074 383.1 197.386 370.615 175.624C358.145 153.907 340.149 135.902 318.45 123.432L318.321 123.358C296.617 110.828 271.959 104.29 246.854 104.41Z" fill="white"/>
<path fill-rule="evenodd" clip-rule="evenodd" d="M247.417 103.355L247.2 189.5L246.447 189.498L246.664 103.353L247.417 103.355ZM246.756 304.5L246.539 391.282L245.785 391.279L246.002 304.498L246.756 304.5Z" fill="white"/>
<path fill-rule="evenodd" clip-rule="evenodd" d="M390.769 247.394L304.002 247.543L304 246.79L390.767 246.642L390.769 247.394ZM189.502 247.848L102.422 247.997L102.421 247.244L189.5 247.095L189.502 247.848Z" fill="white"/>
</g>
</svg>
